<?xml version="1.0" encoding="utf-8"?>
<!-- Generator: Adobe Illustrator 20.1.0, SVG Export Plug-In . SVG Version: 6.00 Build 0)  -->
<svg version="1.1" id="Camada_1" xmlns="http://www.w3.org/2000/svg" xmlns:xlink="http://www.w3.org/1999/xlink" x="0px" y="0px"
	 viewBox="2.1 0.1 25 25" style="enable-background:new 2.1 0.1 25 25;" xml:space="preserve">
<style type="text/css">
	.st0{fill:none;}
	.st1{fill:#E26161;}
	.st2{opacity:0.2;}
	.st3{fill:#231F20;}
	.st4{fill:#FFFFFF;}
	.st5{fill:#4D4D4D;}
	.st6{fill:#e4376e;}
	.st7{fill:#212930;}
</style>
<rect x="-171" y="99.7" class="st0" width="31.2" height="3.1"/>
<g>
	<g>
		<g>
			<path class="st1" d="M526.7,1685.2c0,11.8-9.7,21.9-21.5,21.9H125.7c-11.8,0-22.1-10.1-22.1-21.9v-42.9
				c0-11.8,10.2-21.2,22.1-21.2h379.4c11.8,0,21.5,9.4,21.5,21.2V1685.2z"/>
			<g>
				
					<text transform="matrix(1 0 0 1 211.2488 1677.167)" class="st4" style="font-family:'OpenSans-Semibold'; font-size:34.2965px;">Fórum</text>
			</g>
		</g>
	</g>
</g>
<g class="st2">
	<g>
		<g>
			<path class="st3" d="M151.2,1673c0,5.9,4.8,10.8,10.8,10.8h26.9c5.9,0,10.8-4.8,10.8-10.8v-16.4c0-5.9-4.8-10.8-10.8-10.8H162
				c-5.9,0-10.8,4.8-10.8,10.8V1673z"/>
		</g>
		<g>
			<path class="st3" d="M186.2,1645.8h2.7v2.7C188.9,1647,187.7,1645.8,186.2,1645.8z"/>
		</g>
		<g>
			<path class="st3" d="M180.8,1645.8c-1.5,0-2.7,1.2-2.7,2.7v-2.7H180.8z"/>
		</g>
		<g>
			<path class="st3" d="M180.8,1645.8h5.4c1.5,0,2.7,1.2,2.7,2.7v32.5v2.7v2.7v5.3c0,1.5-0.9,1.8-1.9,0.8l-3.5-3.4l-5.4-5.3v-2.7
				v-32.5C178.1,1647,179.4,1645.8,180.8,1645.8z"/>
		</g>
	</g>
	<g>
		<g>
			<path class="st3" d="M172.8,1667.5c0,5.9-4.8,10.8-10.8,10.8h-26.9c-5.9,0-10.8-4.8-10.8-10.8v-16.4c0-5.9,4.8-10.8,10.8-10.8
				H162c5.9,0,10.8,4.8,10.8,10.8V1667.5z"/>
		</g>
		<g>
			<path class="st3" d="M137.8,1640.4h-2.7v2.7C135.1,1641.6,136.3,1640.4,137.8,1640.4z"/>
		</g>
		<g>
			<path class="st3" d="M143.1,1640.4c1.5,0,2.7,1.2,2.7,2.7v-2.7H143.1z"/>
		</g>
		<g>
			<path class="st3" d="M143.1,1640.4h-5.4c-1.5,0-2.7,1.2-2.7,2.7v32.5v2.7v2.7v5.3c0,1.5,0.9,1.8,1.9,0.8l3.5-3.4l5.4-5.3v-2.7
				v-32.5C145.8,1641.6,144.6,1640.4,143.1,1640.4z"/>
		</g>
	</g>
	<g>
		<circle class="st3" cx="137.8" cy="1659.2" r="2.7"/>
		<circle class="st3" cx="148.5" cy="1659.2" r="2.7"/>
		<circle class="st3" cx="159.3" cy="1659.2" r="2.7"/>
	</g>
</g>
<g>
	<g>
		<g>
			<path class="st4" d="M149.2,1671c0,5.9,4.8,10.8,10.8,10.8h26.9c5.9,0,10.8-4.8,10.8-10.8v-16.4c0-5.9-4.8-10.8-10.8-10.8H160
				c-5.9,0-10.8,4.8-10.8,10.8V1671z"/>
		</g>
		<g>
			<path class="st4" d="M184.2,1643.8h2.7v2.7C186.9,1645,185.7,1643.8,184.2,1643.8z"/>
		</g>
		<g>
			<path class="st4" d="M178.8,1643.8c-1.5,0-2.7,1.2-2.7,2.7v-2.7H178.8z"/>
		</g>
		<g>
			<path class="st4" d="M178.8,1643.8h5.4c1.5,0,2.7,1.2,2.7,2.7v32.5v2.7v2.7v5.3c0,1.5-0.9,1.8-1.9,0.8l-3.5-3.4l-5.4-5.3v-2.7
				v-32.5C176.1,1645,177.4,1643.8,178.8,1643.8z"/>
		</g>
	</g>
	<g>
		<g>
			<path class="st5" d="M170.8,1665.5c0,5.9-4.8,10.8-10.8,10.8h-26.9c-5.9,0-10.8-4.8-10.8-10.8v-16.4c0-5.9,4.8-10.8,10.8-10.8
				H160c5.9,0,10.8,4.8,10.8,10.8V1665.5z"/>
		</g>
		<g>
			<path class="st5" d="M135.8,1638.4h-2.7v2.7C133.1,1639.6,134.3,1638.4,135.8,1638.4z"/>
		</g>
		<g>
			<path class="st5" d="M141.1,1638.4c1.5,0,2.7,1.2,2.7,2.7v-2.7H141.1z"/>
		</g>
		<g>
			<path class="st5" d="M141.1,1638.4h-5.4c-1.5,0-2.7,1.2-2.7,2.7v32.5v2.7v2.7v5.3c0,1.5,0.9,1.8,1.9,0.8l3.5-3.4l5.4-5.3v-2.7
				v-32.5C143.8,1639.6,142.6,1638.4,141.1,1638.4z"/>
		</g>
	</g>
	<g>
		<circle class="st4" cx="135.8" cy="1657.2" r="2.7"/>
		<circle class="st4" cx="146.5" cy="1657.2" r="2.7"/>
		<circle class="st4" cx="157.3" cy="1657.2" r="2.7"/>
	</g>
</g>
<g>
	<circle class="st6" cx="14.6" cy="13.2" r="2.9"/>
	<g>
		<g>
			<path class="st7" d="M20.8,22.4l-2.4-2l0.6-0.7l1.8,1.5l1.5-1.5l-1.6-1.9l0.2-0.3c0.5-0.8,0.9-1.6,1.1-2.5l0.1-0.3l2.6-0.2v-2.1
				l-2.5-0.2L22,11.8c-0.2-0.9-0.5-1.7-1-2.5L20.9,9l1.7-2L21,5.5l-1.9,1.6L18.8,7c-0.8-0.5-1.6-0.9-2.5-1.1l-0.3-0.1l-0.2-2.6h-2.1
				l-0.2,2.5l-0.3,0.1c-0.9,0.2-1.7,0.5-2.5,1l-0.3,0.2l-2-1.7L6.9,6.8l1.6,1.9L8.3,9c-0.5,0.8-0.9,1.6-1.1,2.5l-0.1,0.3L4.6,12
				l0,2.1l2.5,0.2l0.1,0.3c0.2,0.9,0.5,1.7,1,2.5l0.2,0.3l-1.7,2l1.5,1.5l1.7-1.4l0.6,0.7l-2.3,2l-2.6-2.6l1.8-2.1
				c-0.4-0.7-0.7-1.4-0.9-2.2l-2.7-0.2l0-3.7l2.8-0.2c0.2-0.8,0.5-1.5,1-2.2L5.7,6.7l2.6-2.6l2.1,1.8c0.7-0.4,1.4-0.7,2.2-0.9
				l0.2-2.7h3.7l0.2,2.8c0.8,0.2,1.5,0.5,2.2,1l2.1-1.7L23.7,7l-1.8,2.1c0.4,0.7,0.7,1.4,0.9,2.2l2.7,0.2v3.7l-2.8,0.2
				c-0.2,0.8-0.5,1.5-1,2.2l1.7,2.1L20.8,22.4z"/>
		</g>
	</g>
	<g>
		<g>
			<path class="st7" d="M9.1,13.3H8.2c0-0.2,0-0.3,0-0.5l0.9,0.1C9.1,13,9.1,13.1,9.1,13.3z"/>
		</g>
		<g>
			<path class="st7" d="M9.2,12.1l-0.9-0.2c0.1-0.3,0.2-0.6,0.3-0.9l0.8,0.3C9.4,11.6,9.3,11.8,9.2,12.1z M19.9,12.1
				c-0.1-0.3-0.1-0.5-0.2-0.7l0.8-0.3c0.1,0.3,0.2,0.6,0.3,0.9L19.9,12.1z M9.8,10.6L9,10.2C9.2,10,9.3,9.7,9.5,9.5l0.7,0.5
				C10.1,10.2,9.9,10.4,9.8,10.6z M19.4,10.6c-0.1-0.2-0.3-0.4-0.4-0.7l0.7-0.5c0.2,0.2,0.3,0.5,0.5,0.8L19.4,10.6z M10.7,9.4
				l-0.6-0.6c0.2-0.2,0.4-0.4,0.7-0.6l0.5,0.7C11.1,9,10.9,9.2,10.7,9.4z M18.4,9.4c-0.2-0.2-0.4-0.4-0.6-0.5l0.5-0.7
				c0.2,0.2,0.5,0.4,0.7,0.6L18.4,9.4z M12,8.5l-0.4-0.8c0.3-0.1,0.5-0.3,0.8-0.4l0.3,0.8C12.4,8.2,12.2,8.4,12,8.5z M17.2,8.5
				c-0.2-0.1-0.5-0.2-0.7-0.3l0.3-0.8c0.3,0.1,0.6,0.2,0.8,0.4L17.2,8.5z M13.4,7.9l-0.2-0.9C13.5,7,13.8,7,14.1,6.9l0.1,0.9
				C13.9,7.8,13.7,7.9,13.4,7.9z M15.7,7.9c-0.3-0.1-0.5-0.1-0.8-0.1L15,6.9c0.3,0,0.6,0.1,0.9,0.1L15.7,7.9z"/>
		</g>
		<g>
			<path class="st7" d="M20.9,13.3h-0.9c0-0.1,0-0.3,0-0.4l0.9-0.1C20.9,13,20.9,13.1,20.9,13.3z"/>
		</g>
	</g>
	<g>
		<g>
			<path class="st7" d="M14.6,9.2c2.2,0,4,1.8,4,4c0,0-0.1,2-1.8,4.2l0,0l0,0c-0.2,0.3-0.4,0.7-0.5,1.1h-3.4
				c-0.1-0.4-0.3-0.8-0.5-1.1l0,0l0,0c-1.7-2.2-1.8-4.2-1.8-4.2C10.6,11,12.4,9.2,14.6,9.2 M14.6,8.3c-2.7,0-4.9,2.2-4.9,4.9
				c0,0.2,0.1,2.4,1.9,4.8c0.3,0.4,0.4,1,0.4,1.5h5c0-0.5,0.1-1.1,0.4-1.5c1.8-2.4,1.9-4.6,1.9-4.8C19.4,10.5,17.3,8.3,14.6,8.3
				L14.6,8.3z"/>
			<g>
				<g>
					
						<rect x="13.1" y="14.1" transform="matrix(0.9945 -0.1049 0.1049 0.9945 -1.6812 1.5136)" class="st7" width="0.9" height="5.4"/>
				</g>
				<g>
					
						<rect x="12.9" y="16.3" transform="matrix(0.1068 -0.9943 0.9943 0.1068 -2.6903 30.4904)" class="st7" width="5.4" height="0.9"/>
				</g>
			</g>
			<g>
				<g>
					<rect x="11.4" y="19" class="st7" width="6.3" height="0.9"/>
				</g>
				<g>
					<rect x="11.4" y="20.5" class="st7" width="6.3" height="0.9"/>
				</g>
				<g>
					<rect x="12.5" y="21.9" class="st7" width="4.1" height="0.9"/>
				</g>
				<g>
					<rect x="12" y="19.5" class="st7" width="0.9" height="1.5"/>
				</g>
			</g>
		</g>
	</g>
</g>
</svg>
