<?xml version="1.0" encoding="utf-8"?>
<!-- Generator: Adobe Illustrator 20.1.0, SVG Export Plug-In . SVG Version: 6.00 Build 0)  -->
<svg version="1.1" id="Camada_1" xmlns="http://www.w3.org/2000/svg" xmlns:xlink="http://www.w3.org/1999/xlink" x="0px" y="0px"
	 viewBox="2.1 0.1 25 25" style="enable-background:new 2.1 0.1 25 25;" xml:space="preserve">
<style type="text/css">
	.st0{fill:none;}
	.st1{fill:#E26161;}
	.st2{opacity:0.2;}
	.st3{fill:#231F20;}
	.st4{fill:#FFFFFF;}
	.st5{fill:#4D4D4D;}
	.st6{fill:#212930;}
	.st7{fill:#CC2A06;}
	.st8{fill:#00A087;}
</style>
<rect x="-171" y="99.7" class="st0" width="31.2" height="3.1"/>
<g>
	<g>
		<g>
			<path class="st1" d="M526.7,1685.2c0,11.8-9.7,21.9-21.5,21.9H125.7c-11.8,0-22.1-10.1-22.1-21.9v-42.9
				c0-11.8,10.2-21.2,22.1-21.2h379.4c11.8,0,21.5,9.4,21.5,21.2V1685.2z"/>
			<g>
				
					<text transform="matrix(1 0 0 1 211.2488 1677.167)" class="st4" style="font-family:'OpenSans-Semibold'; font-size:34.2965px;">Fórum</text>
			</g>
		</g>
	</g>
</g>
<g class="st2">
	<g>
		<g>
			<path class="st3" d="M151.2,1673c0,5.9,4.8,10.8,10.8,10.8h26.9c5.9,0,10.8-4.8,10.8-10.8v-16.4c0-5.9-4.8-10.8-10.8-10.8H162
				c-5.9,0-10.8,4.8-10.8,10.8V1673z"/>
		</g>
		<g>
			<path class="st3" d="M186.2,1645.8h2.7v2.7C188.9,1647,187.7,1645.8,186.2,1645.8z"/>
		</g>
		<g>
			<path class="st3" d="M180.8,1645.8c-1.5,0-2.7,1.2-2.7,2.7v-2.7H180.8z"/>
		</g>
		<g>
			<path class="st3" d="M180.8,1645.8h5.4c1.5,0,2.7,1.2,2.7,2.7v32.5v2.7v2.7v5.3c0,1.5-0.9,1.8-1.9,0.8l-3.5-3.4l-5.4-5.3v-2.7
				v-32.5C178.1,1647,179.4,1645.8,180.8,1645.8z"/>
		</g>
	</g>
	<g>
		<g>
			<path class="st3" d="M172.8,1667.5c0,5.9-4.8,10.8-10.8,10.8h-26.9c-5.9,0-10.8-4.8-10.8-10.8v-16.4c0-5.9,4.8-10.8,10.8-10.8
				H162c5.9,0,10.8,4.8,10.8,10.8V1667.5z"/>
		</g>
		<g>
			<path class="st3" d="M137.8,1640.4h-2.7v2.7C135.1,1641.6,136.3,1640.4,137.8,1640.4z"/>
		</g>
		<g>
			<path class="st3" d="M143.1,1640.4c1.5,0,2.7,1.2,2.7,2.7v-2.7H143.1z"/>
		</g>
		<g>
			<path class="st3" d="M143.1,1640.4h-5.4c-1.5,0-2.7,1.2-2.7,2.7v32.5v2.7v2.7v5.3c0,1.5,0.9,1.8,1.9,0.8l3.5-3.4l5.4-5.3v-2.7
				v-32.5C145.8,1641.6,144.6,1640.4,143.1,1640.4z"/>
		</g>
	</g>
	<g>
		<circle class="st3" cx="137.8" cy="1659.2" r="2.7"/>
		<circle class="st3" cx="148.5" cy="1659.2" r="2.7"/>
		<circle class="st3" cx="159.3" cy="1659.2" r="2.7"/>
	</g>
</g>
<g>
	<g>
		<g>
			<path class="st4" d="M149.2,1671c0,5.9,4.8,10.8,10.8,10.8h26.9c5.9,0,10.8-4.8,10.8-10.8v-16.4c0-5.9-4.8-10.8-10.8-10.8H160
				c-5.9,0-10.8,4.8-10.8,10.8V1671z"/>
		</g>
		<g>
			<path class="st4" d="M184.2,1643.8h2.7v2.7C186.9,1645,185.7,1643.8,184.2,1643.8z"/>
		</g>
		<g>
			<path class="st4" d="M178.8,1643.8c-1.5,0-2.7,1.2-2.7,2.7v-2.7H178.8z"/>
		</g>
		<g>
			<path class="st4" d="M178.8,1643.8h5.4c1.5,0,2.7,1.2,2.7,2.7v32.5v2.7v2.7v5.3c0,1.5-0.9,1.8-1.9,0.8l-3.5-3.4l-5.4-5.3v-2.7
				v-32.5C176.1,1645,177.4,1643.8,178.8,1643.8z"/>
		</g>
	</g>
	<g>
		<g>
			<path class="st5" d="M170.8,1665.5c0,5.9-4.8,10.8-10.8,10.8h-26.9c-5.9,0-10.8-4.8-10.8-10.8v-16.4c0-5.9,4.8-10.8,10.8-10.8
				H160c5.9,0,10.8,4.8,10.8,10.8V1665.5z"/>
		</g>
		<g>
			<path class="st5" d="M135.8,1638.4h-2.7v2.7C133.1,1639.6,134.3,1638.4,135.8,1638.4z"/>
		</g>
		<g>
			<path class="st5" d="M141.1,1638.4c1.5,0,2.7,1.2,2.7,2.7v-2.7H141.1z"/>
		</g>
		<g>
			<path class="st5" d="M141.1,1638.4h-5.4c-1.5,0-2.7,1.2-2.7,2.7v32.5v2.7v2.7v5.3c0,1.5,0.9,1.8,1.9,0.8l3.5-3.4l5.4-5.3v-2.7
				v-32.5C143.8,1639.6,142.6,1638.4,141.1,1638.4z"/>
		</g>
	</g>
	<g>
		<circle class="st4" cx="135.8" cy="1657.2" r="2.7"/>
		<circle class="st4" cx="146.5" cy="1657.2" r="2.7"/>
		<circle class="st4" cx="157.3" cy="1657.2" r="2.7"/>
	</g>
</g>
<g>
	<g>
		<line class="st4" x1="22.3" y1="13.3" x2="22.3" y2="17.9"/>
		<rect x="22" y="13.3" class="st6" width="0.7" height="4.5"/>
	</g>
	<g>
		<path class="st4" d="M7.1,17.9V7.6C7.1,7.3,7.3,7,7.6,7h7.6"/>
		<path class="st6" d="M7.4,17.9H6.7V7.6c0-0.5,0.4-0.9,0.9-0.9h7.6v0.7H7.6c-0.1,0-0.2,0.1-0.2,0.2V17.9z"/>
	</g>
	<rect x="8.2" y="8.2" class="st7" width="13" height="8.4"/>
	<g>
		<g>
			<path class="st4" d="M23,5.6h-6.2c-0.3,0-0.5,0.3-0.5,0.7v5.3c0,0.4,0.2,0.7,0.5,0.7h0.9v1.3l1.4-1.3H23c0.3,0,0.5-0.3,0.5-0.7
				V6.3C23.6,5.9,23.3,5.6,23,5.6z"/>
			<path class="st6" d="M17.4,14.3v-1.7h-0.6c-0.5,0-0.9-0.5-0.9-1V6.3c0-0.6,0.4-1,0.9-1H23c0.5,0,0.9,0.5,0.9,1v5.3
				c0,0.6-0.4,1-0.9,1h-3.7L17.4,14.3z M16.8,6c-0.1,0-0.2,0.1-0.2,0.3v5.3c0,0.2,0.1,0.3,0.2,0.3h1.3v0.8l0.9-0.8h4
				c0.1,0,0.2-0.1,0.2-0.3V6.3C23.2,6.1,23.1,6,23,6H16.8z"/>
		</g>
		<polygon class="st8" points="21.6,8.7 20.3,9.5 19,10.3 19,8.7 19,7.1 20.3,7.9 		"/>
	</g>
	<g>
		<g>
			<path class="st8" d="M8.8,17.6v-0.9c0-0.5,0.4-0.9,1-0.9h4.4c0.5,0,1,0.4,1,0.9v0.9"/>
			<path class="st6" d="M15.4,17.6h-0.7v-0.9c0-0.3-0.3-0.6-0.6-0.6H9.7c-0.4,0-0.6,0.3-0.6,0.6v0.9H8.4v-0.9c0-0.7,0.6-1.3,1.3-1.3
				h4.4c0.7,0,1.3,0.6,1.3,1.3V17.6z"/>
		</g>
		<g>
			<polygon class="st4" points="12.7,15.8 11.9,16.3 11.1,15.8 11.1,13.8 11.9,13.8 12.7,13.8 			"/>
			<path class="st6" d="M11.9,16.7L10.7,16v-2.5h2.4V16L11.9,16.7z M11.4,15.5l0.5,0.3l0.5-0.3v-1.3h-1V15.5z"/>
		</g>
		<g>
			<path class="st4" d="M13.9,11v2c0,1.1-0.9,1.9-1.9,1.9l0,0c-1.1,0-1.9-0.7-1.9-1.9v-2"/>
			<path class="st6" d="M11.9,15.2c-1.3,0-2.3-0.9-2.3-2.2v-2h0.7v2c0,0.9,0.7,1.5,1.6,1.5c0.9,0,1.6-0.6,1.6-1.5v-2h0.7v2
				C14.2,14.3,13.3,15.2,11.9,15.2z"/>
		</g>
		<g>
			<path class="st4" d="M11,9.1c-0.4,0-0.7,0.2-0.9,0.5H9.8C9.3,9.6,9,10,9,10.5v1.6l0.9,1.4v-1.8c0-0.3,0.3-0.6,0.6-0.6h0.3h2.4
				h0.5c0.6,0,1-0.5,1-1.1V9.1H11z"/>
			<path class="st6" d="M10.3,14.6l-1.6-2.4v-1.8c0-0.7,0.5-1.2,1.1-1.2H10c0.3-0.3,0.6-0.5,1-0.5h4.1V10c0,0.8-0.6,1.5-1.4,1.5
				h-3.2c-0.1,0-0.2,0.1-0.2,0.2V14.6z M9.3,12l0.2,0.3v-0.6c0-0.5,0.4-1,0.9-1h3.2c0.4,0,0.7-0.3,0.7-0.7V9.5H11
				c-0.2,0-0.4,0.1-0.6,0.3L10.3,10H9.8c-0.2,0-0.4,0.2-0.4,0.5V12z"/>
		</g>
		<g>
			<rect x="11.5" y="16.4" class="st6" width="0.7" height="1.2"/>
		</g>
	</g>
	<g>
		<path class="st4" d="M4.8,17.8v1c0,0,0.7,0.5,1.2,0.5h6.3h4.8h6.3c0.5,0,1.2-0.5,1.2-0.5v-1H4.8z"/>
		<path class="st6" d="M23.4,19.7H6c-0.6,0-1.3-0.6-1.4-0.6L4.5,19v-1.6H25V19l-0.1,0.1C24.7,19.2,24,19.7,23.4,19.7z M5.2,18.6
			C5.4,18.8,5.8,19,6,19h17.4c0.2,0,0.6-0.2,0.8-0.4v-0.4H5.2V18.6z"/>
	</g>
</g>
</svg>
