<?xml version="1.0" encoding="utf-8"?>
<!-- Generator: Adobe Illustrator 16.0.0, SVG Export Plug-In . SVG Version: 6.00 Build 0)  -->
<!DOCTYPE svg PUBLIC "-//W3C//DTD SVG 1.1//EN" "http://www.w3.org/Graphics/SVG/1.1/DTD/svg11.dtd">
<svg version="1.1" id="Camada_1" xmlns="http://www.w3.org/2000/svg" xmlns:xlink="http://www.w3.org/1999/xlink" x="0px" y="0px"
	 width="1051.447px" height="364.481px" viewBox="0 0 1051.447 364.481" enable-background="new 0 0 1051.447 364.481"
	 xml:space="preserve">
<g>
	<rect x="575.185" y="24.456" fill="#FFFFFF" width="7.349" height="239.401"/>
	<rect x="566.664" y="24.456" fill="#FFFFFF" width="9.811" height="239.401"/>
	<g>
		<path fill="#FFFFFF" d="M849.699,76.995V47.717c-7.503-4.061-16.082-6.374-25.218-6.374c-30.326,0-54.24,25.383-54.24,55.442
			c0,29.923,24.046,55.438,54.24,55.438s54.24-25.515,54.24-55.438c0-6.93-1.277-13.617-3.605-19.791H849.699z M824.481,124.974
			c-15.641,0-28.184-12.547-28.184-28.188c0-15.76,12.42-28.184,28.184-28.184c15.76,0,28.184,12.424,28.184,28.184
			C852.665,112.426,840.109,124.974,824.481,124.974z"/>
		<path fill="#FFFFFF" d="M824.735,195.377c-0.004,0-42.245-41.694-42.329-40.952V232h20.1v-32.868l22.229,21.415l0,0l0,0l0,0l0,0
			l22.261-21.415V232h20.083v-77.575C867.023,153.683,824.753,195.377,824.735,195.377z"/>
		<path fill="#FFFFFF" d="M925.771,155.758c-21.025,0-38.966,16.905-38.966,38.116c0,21.217,17.94,38.126,38.966,38.126
			c21.122,0,38.956-16.816,38.956-38.126C964.728,172.569,946.894,155.758,925.771,155.758z M925.771,213.678
			c-10.978,0-19.809-8.817-19.809-19.804c0-10.977,8.831-19.803,19.809-19.803c11.083,0,19.803,8.716,19.803,19.803
			C945.574,204.945,936.854,213.678,925.771,213.678z"/>
		<path fill="#FFFFFF" d="M726.604,155.758c-21.029,0-38.953,16.905-38.953,38.116c0,21.217,17.924,38.126,38.953,38.126
			c21.118,0,38.952-16.816,38.952-38.126C765.556,172.569,747.722,155.758,726.604,155.758z M726.604,213.678
			c-10.981,0-19.815-8.817-19.815-19.804c0-10.977,8.834-19.803,19.815-19.803c11.078,0,19.794,8.716,19.794,19.803
			C746.397,204.945,737.682,213.678,726.604,213.678z"/>
		<path fill="#FFFFFF" d="M642.418,232.429c-3.983,0-7.562-0.425-10.748-1.248c-3.179-0.849-5.97-1.896-8.384-3.148
			c-2.407-1.256-4.478-2.669-6.188-4.239c-1.71-1.578-3.132-3.093-4.247-4.561l13.841-10.379c1.757,2.163,3.768,3.983,6.068,5.498
			c2.316,1.503,5.244,2.254,8.817,2.254c2.873,0,5.088-0.445,6.653-1.311c1.579-0.87,2.351-2.317,2.351-4.35
			c0-1.54-0.561-2.741-1.706-3.615c-1.158-0.879-2.936-1.711-5.296-2.47l-8.371-2.835c-2.588-0.845-4.985-1.884-7.15-3.147
			c-2.159-1.257-4.044-2.763-5.617-4.503c-1.563-1.739-2.784-3.746-3.654-6.021c-0.882-2.282-1.319-4.875-1.319-7.815
			c0-3.476,0.662-6.573,1.99-9.22c1.337-2.661,3.132-4.871,5.394-6.658c2.266-1.791,4.892-3.131,7.823-4.04
			c2.924-0.911,5.971-1.356,9.106-1.356c3.153,0,5.963,0.249,8.444,0.784c2.481,0.513,4.663,1.218,6.548,2.088
			c1.909,0.873,3.543,1.875,5.002,2.999c1.417,1.12,2.656,2.296,3.708,3.569l-10.9,11.418c-1.468-1.54-3.084-2.77-4.824-3.721
			c-1.743-0.955-4.061-1.409-6.925-1.409c-2.296,0-4.026,0.454-5.177,1.409c-1.163,0.951-1.718,2.122-1.718,3.521
			c0,1.393,0.378,2.471,1.183,3.233c0.812,0.768,2.08,1.431,3.828,1.994l9.44,3.152c3.557,1.18,6.564,2.495,9.009,3.925
			c2.443,1.431,4.417,3.052,5.885,4.821c1.451,1.795,2.525,3.737,3.188,5.881c0.675,2.13,0.997,4.446,0.997,6.972
			c0,3.284-0.514,6.305-1.592,9.06c-1.03,2.758-2.647,5.147-4.845,7.133c-2.212,1.989-5.024,3.543-8.449,4.65
			C651.146,231.868,647.095,232.429,642.418,232.429z"/>
		<path fill="#FFFFFF" d="M1009.404,232.429c-3.993,0-7.569-0.425-10.752-1.248c-3.178-0.849-5.974-1.896-8.385-3.148
			c-2.419-1.256-4.485-2.669-6.178-4.239c-1.723-1.578-3.14-3.093-4.26-4.561l13.854-10.379c1.735,2.163,3.772,3.983,6.081,5.498
			c2.277,1.503,5.236,2.254,8.791,2.254c2.86,0,5.088-0.445,6.662-1.311c1.578-0.87,2.347-2.317,2.347-4.35
			c0-1.54-0.568-2.741-1.723-3.615c-1.153-0.879-2.911-1.711-5.283-2.47l-8.389-2.835c-2.593-0.845-4.969-1.884-7.128-3.147
			c-2.164-1.257-4.035-2.763-5.609-4.503c-1.584-1.739-2.797-3.746-3.685-6.021c-0.86-2.282-1.311-4.875-1.311-7.815
			c0-3.476,0.68-6.573,1.999-9.22c1.341-2.661,3.145-4.871,5.4-6.658c2.267-1.791,4.872-3.131,7.805-4.04
			c2.943-0.911,5.982-1.356,9.135-1.356c3.137,0,5.94,0.249,8.436,0.784c2.457,0.513,4.651,1.218,6.548,2.088
			c1.879,0.873,3.538,1.875,4.994,2.999c1.422,1.12,2.673,2.296,3.717,3.569l-10.913,11.418c-1.464-1.54-3.077-2.77-4.821-3.721
			c-1.743-0.955-4.061-1.409-6.907-1.409c-2.309,0-4.052,0.454-5.194,1.409c-1.162,0.951-1.744,2.122-1.744,3.521
			c0,1.393,0.421,2.471,1.201,3.233c0.819,0.768,2.105,1.431,3.833,1.994l9.436,3.152c3.568,1.18,6.581,2.495,9.026,3.925
			c2.439,1.431,4.408,3.052,5.859,4.821c1.48,1.795,2.551,3.737,3.2,5.881c0.665,2.13,1.004,4.446,1.004,6.972
			c0,3.284-0.53,6.305-1.578,9.06c-1.039,2.758-2.66,5.147-4.87,7.133c-2.207,1.989-5.024,3.543-8.444,4.65
			C1018.137,231.868,1014.072,232.429,1009.404,232.429z"/>
		<g>
			<path fill="#FFFFFF" d="M848.918,264.286h9.98v1.74h-11.891v-18.67h11.575v1.748h-9.665v6.36h9.038v1.728h-9.038V264.286z"/>
			<path fill="#FFFFFF" d="M868.712,247.356h6.213c1.149,0,2.309,0.199,3.475,0.58c1.176,0.387,2.229,0.969,3.174,1.749
				c0.935,0.785,1.702,1.773,2.271,2.933c0.582,1.176,0.896,2.529,0.896,4.077c0,1.565-0.313,2.933-0.896,4.09
				c-0.568,1.163-1.336,2.126-2.271,2.92c-0.945,0.765-1.998,1.349-3.174,1.743c-1.166,0.392-2.325,0.578-3.475,0.578h-6.213
				V247.356z M870.631,264.286h3.679c1.426,0,2.639-0.208,3.709-0.64c1.035-0.429,1.904-0.997,2.596-1.714
				c0.705-0.71,1.201-1.528,1.554-2.433c0.326-0.899,0.488-1.838,0.488-2.805c0-0.968-0.162-1.909-0.488-2.809
				c-0.353-0.904-0.849-1.716-1.554-2.428c-0.691-0.712-1.561-1.285-2.596-1.718c-1.07-0.42-2.283-0.637-3.709-0.637h-3.679V264.286
				z"/>
			<path fill="#FFFFFF" d="M908.191,259.076c0,0.763-0.098,1.6-0.28,2.452c-0.174,0.883-0.521,1.689-1.03,2.415
				c-0.526,0.737-1.215,1.353-2.105,1.824c-0.899,0.501-2.011,0.733-3.403,0.733c-1.43,0-2.567-0.232-3.444-0.733
				c-0.866-0.472-1.563-1.087-2.084-1.824c-0.501-0.726-0.854-1.532-1.031-2.415c-0.187-0.853-0.284-1.689-0.284-2.452v-11.72h1.893
				v11.499c0,0.903,0.098,1.677,0.283,2.304c0.162,0.653,0.392,1.188,0.68,1.629c0.311,0.434,0.637,0.786,0.989,1.044
				c0.355,0.246,0.729,0.45,1.077,0.603c0.37,0.123,0.718,0.212,1.04,0.26c0.335,0.054,0.606,0.072,0.882,0.072
				c0.225,0,0.51-0.019,0.846-0.072c0.343-0.048,0.691-0.137,1.064-0.26c0.356-0.152,0.73-0.356,1.078-0.603
				c0.359-0.258,0.675-0.61,0.979-1.044c0.275-0.44,0.522-0.976,0.684-1.629c0.194-0.627,0.271-1.4,0.271-2.304v-11.499h1.896
				V259.076z"/>
			<path fill="#FFFFFF" d="M934.644,263.081c-0.306,0.471-0.7,0.916-1.171,1.354c-0.476,0.411-0.997,0.786-1.6,1.091
				c-0.586,0.298-1.24,0.544-1.927,0.704c-0.705,0.191-1.451,0.271-2.193,0.271c-1.396,0-2.69-0.25-3.866-0.733
				c-1.191-0.492-2.24-1.188-3.102-2.041c-0.861-0.887-1.545-1.889-2.036-3.102c-0.497-1.192-0.752-2.5-0.752-3.93
				c0-1.431,0.255-2.72,0.752-3.942c0.491-1.18,1.175-2.21,2.036-3.089c0.861-0.869,1.91-1.561,3.102-2.036
				c1.176-0.501,2.47-0.747,3.866-0.747c1.158,0,2.309,0.229,3.467,0.691c1.162,0.45,2.159,1.196,2.983,2.266l-1.673,1.231
				c-0.191-0.297-0.445-0.582-0.78-0.896c-0.327-0.289-0.714-0.556-1.154-0.781c-0.429-0.233-0.891-0.424-1.366-0.556
				c-0.505-0.145-1.014-0.212-1.477-0.212c-1.21,0-2.279,0.212-3.237,0.649c-0.938,0.445-1.739,1.039-2.397,1.778
				c-0.68,0.737-1.172,1.591-1.528,2.565c-0.364,0.973-0.521,1.999-0.521,3.077c0,1.073,0.157,2.109,0.521,3.067
				c0.356,0.98,0.849,1.838,1.528,2.571c0.658,0.747,1.459,1.338,2.397,1.77c0.958,0.438,2.027,0.663,3.237,0.663
				c0.463,0,0.972-0.056,1.463-0.128c0.471-0.098,0.951-0.238,1.409-0.454c0.467-0.207,0.935-0.496,1.324-0.854
				c0.415-0.368,0.789-0.814,1.129-1.361L934.644,263.081z"/>
			<path fill="#FFFFFF" d="M943.852,266.026h-2.228l8.139-18.67h1.846l8.121,18.67h-2.211l-2.062-4.892h-9.553L943.852,266.026z
				 M946.609,259.386h8.097l-4.019-9.803L946.609,259.386z"/>
			<path fill="#FFFFFF" d="M975.638,267.609l0.051,0.033c0.135-0.059,0.288-0.094,0.432-0.145c0.153-0.025,0.318-0.046,0.506-0.046
				c0.53,0,0.997,0.174,1.404,0.525c0.433,0.332,0.637,0.823,0.637,1.452c0,0.406-0.094,0.768-0.284,1.052
				c-0.174,0.31-0.424,0.56-0.714,0.727c-0.287,0.194-0.598,0.325-0.967,0.398c-0.361,0.114-0.717,0.135-1.064,0.135
				c-0.926,0-1.765-0.208-2.567-0.619l0.425-0.946c0.585,0.306,1.251,0.472,1.946,0.472c0.382,0,0.76-0.085,1.121-0.263
				c0.339-0.188,0.513-0.484,0.513-0.921c0-0.081-0.004-0.183-0.055-0.289c-0.021-0.119-0.098-0.255-0.174-0.36
				c-0.094-0.102-0.221-0.217-0.408-0.284c-0.156-0.077-0.386-0.123-0.645-0.123c-0.254,0-0.462,0.013-0.649,0.067
				c-0.212,0.067-0.398,0.123-0.568,0.22l-0.471-0.449l1.362-1.858c-0.776-0.11-1.549-0.317-2.292-0.619
				c-1.188-0.492-2.193-1.188-3.067-2.041c-0.883-0.887-1.562-1.889-2.058-3.102c-0.479-1.192-0.726-2.5-0.726-3.93
				c0-1.431,0.246-2.72,0.726-3.942c0.496-1.18,1.175-2.21,2.058-3.089c0.874-0.869,1.88-1.561,3.081-2.036
				c1.196-0.501,2.481-0.747,3.882-0.747c1.138,0,2.3,0.229,3.459,0.691c1.176,0.45,2.168,1.196,2.978,2.266l-1.672,1.231
				c-0.174-0.297-0.44-0.582-0.776-0.896c-0.339-0.289-0.721-0.556-1.128-0.781c-0.458-0.233-0.904-0.424-1.396-0.556
				c-0.505-0.145-0.976-0.212-1.464-0.212c-1.213,0-2.282,0.212-3.246,0.649c-0.938,0.445-1.739,1.039-2.401,1.778
				c-0.653,0.725-1.163,1.591-1.516,2.554c-0.355,0.976-0.529,2.003-0.529,3.085c0,1.061,0.174,2.097,0.529,3.067
				c0.353,0.977,0.862,1.824,1.516,2.572c0.662,0.717,1.464,1.315,2.401,1.747c0.964,0.434,2.033,0.663,3.246,0.663
				c0.488,0,0.959-0.047,1.447-0.137c0.492-0.093,0.945-0.229,1.413-0.437c0.487-0.225,0.921-0.496,1.327-0.862
				c0.403-0.343,0.795-0.805,1.15-1.336l1.541,1.111c-0.311,0.471-0.684,0.916-1.163,1.354c-0.459,0.411-1.002,0.786-1.596,1.091
				c-0.585,0.298-1.238,0.544-1.927,0.704c-0.691,0.191-1.438,0.271-2.193,0.271c-0.225,0-0.411-0.004-0.599-0.028L975.638,267.609z
				"/>
			<path fill="#FFFFFF" d="M993.157,266.026h-2.194l8.113-18.67h1.839l8.134,18.67h-2.224l-2.05-4.892h-9.543L993.157,266.026z
				 M995.729,246.231c0.043-0.34,0.136-0.696,0.264-1.01c0.085-0.331,0.246-0.624,0.433-0.879c0.208-0.258,0.453-0.462,0.699-0.636
				c0.271-0.153,0.621-0.229,1.02-0.229c0.335,0,0.657,0.063,0.972,0.183c0.322,0.123,0.649,0.271,0.95,0.437
				c0.323,0.132,0.628,0.269,0.946,0.395c0.297,0.128,0.568,0.204,0.823,0.204c0.425,0,0.708-0.136,0.887-0.403
				c0.199-0.271,0.318-0.585,0.407-0.916h1.142c-0.056,0.34-0.137,0.692-0.246,1.006c-0.132,0.331-0.28,0.628-0.467,0.891
				c-0.191,0.242-0.445,0.445-0.713,0.603c-0.28,0.17-0.607,0.246-1.01,0.246c-0.306,0-0.633-0.067-0.959-0.199
				c-0.318-0.14-0.641-0.276-0.968-0.407c-0.284-0.152-0.589-0.301-0.869-0.438c-0.331-0.109-0.607-0.187-0.896-0.187
				c-0.398,0-0.688,0.136-0.866,0.425c-0.195,0.271-0.327,0.576-0.399,0.916H995.729z M995.941,259.386h8.083l-4.022-9.803
				L995.941,259.386z"/>
			<path fill="#FFFFFF" d="M1036.107,256.695c0,1.43-0.255,2.737-0.734,3.93c-0.501,1.213-1.179,2.215-2.05,3.102
				c-0.891,0.853-1.896,1.549-3.085,2.041c-1.188,0.483-2.481,0.733-3.877,0.733c-1.384,0-2.661-0.25-3.854-0.733
				c-1.201-0.492-2.207-1.188-3.094-2.041c-0.869-0.887-1.549-1.889-2.04-3.102c-0.484-1.192-0.735-2.5-0.735-3.93
				c0-1.431,0.251-2.72,0.735-3.942c0.491-1.18,1.171-2.21,2.04-3.089c0.887-0.869,1.893-1.561,3.094-2.036
				c1.192-0.501,2.47-0.747,3.854-0.747c1.396,0,2.689,0.246,3.877,0.747c1.188,0.476,2.194,1.167,3.085,2.036
				c0.871,0.879,1.549,1.909,2.05,3.089C1035.853,253.976,1036.107,255.265,1036.107,256.695z M1034.041,256.695
				c0-1.078-0.162-2.104-0.535-3.077c-0.344-0.975-0.835-1.828-1.51-2.565c-0.646-0.739-1.452-1.333-2.419-1.778
				c-0.934-0.438-2.028-0.649-3.216-0.649c-1.189,0-2.267,0.212-3.209,0.649c-0.967,0.445-1.743,1.039-2.397,1.778
				c-0.661,0.737-1.166,1.591-1.523,2.565c-0.359,0.973-0.543,1.999-0.543,3.077c0,1.073,0.184,2.109,0.543,3.067
				c0.357,0.98,0.862,1.838,1.523,2.571c0.654,0.747,1.431,1.338,2.397,1.77c0.942,0.438,2.02,0.663,3.209,0.663
				c1.188,0,2.282-0.226,3.216-0.663c0.967-0.432,1.773-1.022,2.419-1.77c0.675-0.733,1.166-1.591,1.51-2.571
				C1033.879,258.805,1034.041,257.769,1034.041,256.695z"/>
		</g>
	</g>
	<g>
		<path fill="#FFFFFF" d="M86.751,339.337H83.23l-29.605-44.373h-0.273c0.273,5.287,0.41,9.276,0.41,11.965v32.408h-3.35v-49.979
			h3.487l29.571,44.305h0.205c-0.205-4.103-0.308-8-0.308-11.691v-32.613h3.384V339.337z"/>
		<path fill="#FFFFFF" d="M102.989,302.177v24.067c0,3.737,0.787,6.455,2.359,8.153c1.573,1.697,4.011,2.547,7.316,2.547
			c4.421,0,7.675-1.117,9.76-3.351c2.085-2.233,3.128-5.868,3.128-10.905v-20.512h3.35v37.16h-2.872l-0.615-5.128h-0.205
			c-2.416,3.875-6.712,5.812-12.888,5.812c-8.456,0-12.683-4.523-12.683-13.571v-24.272H102.989z M110.75,296.365
			c1.664-1.8,3.31-3.755,4.94-5.863c1.629-2.107,2.74-3.709,3.333-4.803h4.82v0.581c-0.82,1.186-2.217,2.758-4.188,4.718
			c-1.972,1.96-4.143,3.932-6.513,5.914h-2.393V296.365z"/>
		<path fill="#FFFFFF" d="M156.183,340.021c-5.311,0-9.47-1.675-12.478-5.025c-3.008-3.35-4.512-8.021-4.512-14.016
			c0-6.154,1.561-10.945,4.683-14.376c3.122-3.43,7.396-5.145,12.82-5.145c3.213,0,6.29,0.559,9.23,1.675l-0.923,3.009
			c-3.213-1.071-6.005-1.606-8.375-1.606c-4.559,0-8.011,1.407-10.358,4.222c-2.348,2.814-3.521,6.866-3.521,12.153
			c0,5.014,1.173,8.939,3.521,11.776c2.347,2.838,5.629,4.257,9.846,4.257c3.373,0,6.506-0.604,9.401-1.813v3.146
			C163.145,339.439,160.034,340.021,156.183,340.021z"/>
		<path fill="#FFFFFF" d="M177.993,339.337h-3.385v-53.193h3.385V339.337z"/>
		<path fill="#FFFFFF" d="M205.444,340.021c-5.401,0-9.612-1.663-12.632-4.991c-3.02-3.327-4.529-7.987-4.529-13.981
			c0-5.926,1.458-10.672,4.375-14.239c2.917-3.566,6.849-5.35,11.794-5.35c4.375,0,7.828,1.527,10.358,4.581
			s3.795,7.202,3.795,12.443v2.735h-26.768c0.045,5.105,1.236,9.002,3.572,11.691c2.336,2.689,5.68,4.034,10.034,4.034
			c2.12,0,3.982-0.148,5.589-0.445c1.607-0.296,3.641-0.934,6.102-1.914v3.077c-2.097,0.911-4.034,1.533-5.812,1.863
			S207.586,340.021,205.444,340.021z M204.453,304.468c-3.579,0-6.45,1.179-8.615,3.538c-2.166,2.358-3.43,5.76-3.794,10.204h22.973
			c0-4.308-0.935-7.675-2.803-10.102C210.344,305.681,207.757,304.468,204.453,304.468z"/>
		<path fill="#FFFFFF" d="M259.595,320.706c0,6.063-1.47,10.797-4.41,14.204s-6.997,5.11-12.17,5.11
			c-3.26,0-6.131-0.786-8.615-2.358c-2.484-1.573-4.387-3.829-5.709-6.77c-1.322-2.939-1.982-6.335-1.982-10.187
			c0-6.063,1.47-10.786,4.41-14.171c2.94-3.384,6.974-5.076,12.102-5.076c5.105,0,9.11,1.715,12.016,5.145
			C258.142,310.034,259.595,314.734,259.595,320.706z M230.264,320.706c0,5.105,1.122,9.088,3.367,11.947
			c2.245,2.86,5.418,4.291,9.521,4.291c4.102,0,7.275-1.431,9.521-4.291c2.245-2.859,3.367-6.842,3.367-11.947
			c0-5.128-1.134-9.105-3.401-11.932c-2.268-2.825-5.453-4.238-9.555-4.238c-4.103,0-7.265,1.407-9.487,4.222
			S230.264,315.556,230.264,320.706z"/>
		<path fill="#FFFFFF" d="M301.678,301.459c2.689,0,5.014,0.49,6.974,1.47c1.96,0.98,3.714,2.655,5.265,5.025h0.205
			c-0.137-2.871-0.205-5.686-0.205-8.443v-13.367h3.35v53.193h-2.222l-0.854-5.675h-0.273c-2.826,4.239-6.883,6.358-12.17,6.358
			c-5.128,0-9.048-1.595-11.76-4.786c-2.712-3.19-4.068-7.84-4.068-13.947c0-6.428,1.344-11.338,4.034-14.734
			C292.641,303.157,296.55,301.459,301.678,301.459z M301.678,304.536c-4.057,0-7.105,1.424-9.145,4.272
			c-2.04,2.85-3.06,6.986-3.06,12.41c0,10.529,4.09,15.794,12.272,15.794c4.193,0,7.27-1.22,9.23-3.658
			c1.96-2.438,2.94-6.461,2.94-12.067v-0.581c0-5.744-0.963-9.874-2.889-12.393C309.102,305.795,305.985,304.536,301.678,304.536z"
			/>
		<path fill="#FFFFFF" d="M344.752,340.021c-5.401,0-9.612-1.663-12.632-4.991c-3.02-3.327-4.529-7.987-4.529-13.981
			c0-5.926,1.458-10.672,4.375-14.239c2.917-3.566,6.849-5.35,11.794-5.35c4.375,0,7.828,1.527,10.358,4.581
			s3.795,7.202,3.795,12.443v2.735h-26.768c0.045,5.105,1.236,9.002,3.572,11.691c2.336,2.689,5.68,4.034,10.034,4.034
			c2.12,0,3.982-0.148,5.589-0.445c1.607-0.296,3.641-0.934,6.102-1.914v3.077c-2.097,0.911-4.034,1.533-5.812,1.863
			S346.894,340.021,344.752,340.021z M343.761,304.468c-3.579,0-6.45,1.179-8.615,3.538c-2.166,2.358-3.43,5.76-3.794,10.204h22.973
			c0-4.308-0.935-7.675-2.803-10.102C349.652,305.681,347.065,304.468,343.761,304.468z"/>
		<path fill="#FFFFFF" d="M414.525,339.337h-27.314v-49.979h27.314v3.213h-23.828v18.905h22.494v3.213h-22.494v21.435h23.828
			V339.337z"/>
		<path fill="#FFFFFF" d="M438.592,301.459c2.689,0,5.014,0.49,6.974,1.47c1.96,0.98,3.714,2.655,5.265,5.025h0.205
			c-0.137-2.871-0.205-5.686-0.205-8.443v-13.367h3.35v53.193h-2.222l-0.854-5.675h-0.273c-2.826,4.239-6.883,6.358-12.17,6.358
			c-5.128,0-9.048-1.595-11.76-4.786c-2.712-3.19-4.068-7.84-4.068-13.947c0-6.428,1.344-11.338,4.034-14.734
			C429.556,303.157,433.464,301.459,438.592,301.459z M438.592,304.536c-4.057,0-7.105,1.424-9.145,4.272
			c-2.04,2.85-3.06,6.986-3.06,12.41c0,10.529,4.09,15.794,12.272,15.794c4.193,0,7.27-1.22,9.23-3.658
			c1.96-2.438,2.94-6.461,2.94-12.067v-0.581c0-5.744-0.963-9.874-2.889-12.393C446.016,305.795,442.9,304.536,438.592,304.536z"/>
		<path fill="#FFFFFF" d="M469.599,302.177v24.067c0,3.737,0.787,6.455,2.359,8.153c1.573,1.697,4.011,2.547,7.316,2.547
			c4.421,0,7.675-1.117,9.76-3.351c2.085-2.233,3.128-5.868,3.128-10.905v-20.512h3.35v37.16h-2.872l-0.615-5.128h-0.205
			c-2.416,3.875-6.712,5.812-12.888,5.812c-8.456,0-12.683-4.523-12.683-13.571v-24.272H469.599z"/>
		<path fill="#FFFFFF" d="M522.792,340.021c-5.311,0-9.47-1.675-12.478-5.025c-3.008-3.35-4.512-8.021-4.512-14.016
			c0-6.154,1.561-10.945,4.683-14.376c3.122-3.43,7.396-5.145,12.82-5.145c3.213,0,6.29,0.559,9.23,1.675l-0.923,3.009
			c-3.213-1.071-6.005-1.606-8.375-1.606c-4.559,0-8.011,1.407-10.358,4.222c-2.348,2.814-3.521,6.866-3.521,12.153
			c0,5.014,1.173,8.939,3.521,11.776c2.347,2.838,5.629,4.257,9.846,4.257c3.373,0,6.506-0.604,9.401-1.813v3.146
			C529.754,339.439,526.643,340.021,522.792,340.021z"/>
		<path fill="#FFFFFF" d="M563.78,339.337l-0.854-5.88h-0.273c-1.869,2.393-3.789,4.085-5.76,5.076
			c-1.973,0.992-4.303,1.487-6.992,1.487c-3.646,0-6.484-0.935-8.512-2.803c-2.028-1.869-3.042-4.456-3.042-7.761
			c0-3.624,1.51-6.438,4.53-8.443c3.019-2.006,7.39-3.065,13.111-3.18l7.076-0.205v-2.461c0-3.533-0.719-6.199-2.154-8
			c-1.436-1.8-3.748-2.7-6.939-2.7c-3.441,0-7.008,0.957-10.7,2.871l-1.265-2.939c4.08-1.915,8.113-2.872,12.102-2.872
			c4.08,0,7.127,1.06,9.145,3.18c2.018,2.119,3.025,5.424,3.025,9.913v24.717H563.78z M550.106,336.944
			c3.967,0,7.094-1.134,9.385-3.402c2.289-2.267,3.436-5.418,3.436-9.452v-3.658l-6.496,0.274
			c-5.219,0.251-8.939,1.065-11.161,2.443c-2.222,1.38-3.333,3.527-3.333,6.444c0,2.325,0.712,4.131,2.136,5.419
			C545.497,336.3,547.509,336.944,550.106,336.944z"/>
		<path fill="#FFFFFF" d="M593.146,340.021c-5.311,0-9.47-1.675-12.478-5.025c-3.009-3.35-4.513-8.021-4.513-14.016
			c0-6.154,1.561-10.945,4.684-14.376c3.122-3.43,7.395-5.145,12.819-5.145c3.214,0,6.29,0.559,9.23,1.675l-0.923,3.009
			c-3.214-1.071-6.006-1.606-8.376-1.606c-4.559,0-8.012,1.407-10.358,4.222c-2.348,2.814-3.521,6.866-3.521,12.153
			c0,5.014,1.174,8.939,3.521,11.776c2.347,2.838,5.629,4.257,9.846,4.257c3.372,0,6.507-0.604,9.401-1.813v3.146
			C600.108,339.439,596.998,340.021,593.146,340.021z M596.805,349.285c0,2.278-0.77,3.994-2.308,5.145
			c-1.539,1.15-3.688,1.727-6.444,1.727c-1.55,0-2.621-0.125-3.214-0.376v-3.009c0.684,0.229,1.732,0.343,3.146,0.343
			c1.777,0,3.134-0.32,4.068-0.958c0.934-0.638,1.401-1.55,1.401-2.734c0-2.143-2.199-3.521-6.598-4.137l3.179-5.948h3.282l-2.256,4
			C594.89,344.18,596.805,346.162,596.805,349.285z"/>
		<path fill="#FFFFFF" d="M634.135,339.337l-0.854-5.88h-0.273c-1.869,2.393-3.789,4.085-5.76,5.076
			c-1.972,0.992-4.303,1.487-6.991,1.487c-3.646,0-6.484-0.935-8.513-2.803c-2.028-1.869-3.042-4.456-3.042-7.761
			c0-3.624,1.509-6.438,4.529-8.443c3.02-2.006,7.39-3.065,13.11-3.18l7.076-0.205v-2.461c0-3.533-0.718-6.199-2.153-8
			c-1.436-1.8-3.749-2.7-6.939-2.7c-3.442,0-7.009,0.957-10.7,2.871l-1.266-2.939c4.08-1.915,8.113-2.872,12.103-2.872
			c4.079,0,7.127,1.06,9.145,3.18c2.017,2.119,3.025,5.424,3.025,9.913v24.717H634.135z M629.178,296.844
			c-0.82,0-1.675-0.21-2.563-0.633c-0.889-0.421-2.04-1.235-3.453-2.443c-0.729-0.593-1.441-1.117-2.137-1.573
			c-0.695-0.455-1.407-0.684-2.136-0.684c-1.026,0-1.881,0.394-2.564,1.18s-1.23,2.171-1.641,4.153h-2.496
			c0.228-2.529,0.945-4.518,2.154-5.966c1.207-1.446,2.769-2.17,4.684-2.17c1.094,0,2.096,0.285,3.008,0.854
			c0.911,0.569,1.846,1.242,2.804,2.017c0.774,0.639,1.526,1.208,2.256,1.709c0.729,0.502,1.424,0.753,2.085,0.753
			c1.049,0,1.926-0.416,2.633-1.248c0.706-0.832,1.253-2.193,1.641-4.085h2.599c-0.365,2.644-1.151,4.66-2.359,6.051
			C632.482,296.148,630.979,296.844,629.178,296.844z M620.461,336.944c3.966,0,7.094-1.134,9.384-3.402
			c2.29-2.267,3.436-5.418,3.436-9.452v-3.658l-6.495,0.274c-5.22,0.251-8.939,1.065-11.162,2.443
			c-2.222,1.38-3.333,3.527-3.333,6.444c0,2.325,0.712,4.131,2.137,5.419C615.851,336.3,617.862,336.944,620.461,336.944z"/>
		<path fill="#FFFFFF" d="M679.397,320.706c0,6.063-1.47,10.797-4.41,14.204c-2.939,3.407-6.997,5.11-12.17,5.11
			c-3.26,0-6.131-0.786-8.615-2.358c-2.484-1.573-4.388-3.829-5.709-6.77c-1.322-2.939-1.982-6.335-1.982-10.187
			c0-6.063,1.47-10.786,4.41-14.171c2.939-3.384,6.974-5.076,12.102-5.076c5.104,0,9.11,1.715,12.017,5.145
			C677.944,310.034,679.397,314.734,679.397,320.706z M650.065,320.706c0,5.105,1.123,9.088,3.368,11.947
			c2.244,2.86,5.418,4.291,9.521,4.291s7.275-1.431,9.521-4.291c2.244-2.859,3.367-6.842,3.367-11.947
			c0-5.128-1.134-9.105-3.401-11.932c-2.268-2.825-5.452-4.238-9.555-4.238s-7.265,1.407-9.486,4.222
			C651.177,311.572,650.065,315.556,650.065,320.706z"/>
		<path fill="#FFFFFF" d="M730.437,339.337l-0.854-5.88h-0.273c-1.869,2.393-3.789,4.085-5.76,5.076
			c-1.972,0.992-4.303,1.487-6.991,1.487c-3.646,0-6.484-0.935-8.513-2.803c-2.028-1.869-3.042-4.456-3.042-7.761
			c0-3.624,1.509-6.438,4.529-8.443c3.02-2.006,7.39-3.065,13.11-3.18l7.076-0.205v-2.461c0-3.533-0.718-6.199-2.153-8
			c-1.436-1.8-3.749-2.7-6.939-2.7c-3.442,0-7.009,0.957-10.7,2.871l-1.266-2.939c4.08-1.915,8.113-2.872,12.103-2.872
			c4.079,0,7.127,1.06,9.145,3.18c2.017,2.119,3.025,5.424,3.025,9.913v24.717H730.437z M716.763,336.944
			c3.966,0,7.094-1.134,9.384-3.402c2.29-2.267,3.436-5.418,3.436-9.452v-3.658l-6.495,0.274c-5.22,0.251-8.939,1.065-11.162,2.443
			c-2.222,1.38-3.333,3.527-3.333,6.444c0,2.325,0.712,4.131,2.137,5.419C712.152,336.3,714.164,336.944,716.763,336.944z"/>
		<path fill="#FFFFFF" d="M801.954,313.868c0,8.388-2.199,14.729-6.598,19.024c-4.398,4.297-10.859,6.444-19.383,6.444h-11.966
			v-49.979h13.504c7.977,0,14.044,2.085,18.204,6.256C799.874,299.784,801.954,305.869,801.954,313.868z M798.16,314.005
			c0-7.156-1.818-12.54-5.453-16.152c-3.636-3.612-8.974-5.419-16.016-5.419h-9.196v43.826h8.273
			C790.695,336.26,798.16,328.842,798.16,314.005z"/>
		<path fill="#FFFFFF" d="M812.107,291.853c0-2.188,0.718-3.281,2.153-3.281c0.707,0,1.26,0.285,1.658,0.854
			s0.599,1.379,0.599,2.427c0,1.025-0.2,1.835-0.599,2.428s-0.951,0.889-1.658,0.889
			C812.825,295.169,812.107,294.063,812.107,291.853z M815.971,339.337h-3.385v-37.16h3.385V339.337z"/>
		<path fill="#FFFFFF" d="M851.455,329.662c0,3.328-1.265,5.886-3.794,7.675c-2.53,1.789-6.119,2.684-10.769,2.684
			c-4.969,0-8.911-0.763-11.828-2.29v-3.658c3.737,1.869,7.68,2.804,11.828,2.804c3.669,0,6.455-0.61,8.358-1.829
			c1.902-1.219,2.854-2.843,2.854-4.872c0-1.868-0.758-3.44-2.273-4.718c-1.516-1.275-4.006-2.529-7.47-3.76
			c-3.715-1.345-6.324-2.501-7.828-3.47c-1.505-0.969-2.639-2.063-3.402-3.282c-0.764-1.219-1.145-2.706-1.145-4.461
			c0-2.78,1.167-4.979,3.504-6.599c2.336-1.617,5.601-2.427,9.794-2.427c4.011,0,7.817,0.752,11.418,2.256l-1.265,3.077
			c-3.646-1.504-7.031-2.256-10.153-2.256c-3.031,0-5.436,0.501-7.213,1.504s-2.667,2.393-2.667,4.171
			c0,1.937,0.689,3.486,2.068,4.648c1.379,1.163,4.073,2.462,8.085,3.897c3.351,1.208,5.789,2.297,7.316,3.265
			c1.526,0.969,2.672,2.068,3.436,3.299C851.073,326.552,851.455,327.999,851.455,329.662z"/>
		<path fill="#FFFFFF" d="M870.839,337.013c2.142,0,4.011-0.183,5.606-0.548v2.735c-1.641,0.547-3.533,0.82-5.675,0.82
			c-3.282,0-5.704-0.877-7.265-2.632c-1.562-1.755-2.342-4.513-2.342-8.273v-23.998h-5.504v-1.983l5.504-1.538l1.71-8.41h1.743
			v8.991h10.905v2.94h-10.905v23.52c0,2.85,0.501,4.957,1.504,6.324S868.696,337.013,870.839,337.013z"/>
		<path fill="#FFFFFF" d="M907.041,339.337l-0.854-5.88h-0.273c-1.869,2.393-3.789,4.085-5.76,5.076
			c-1.972,0.992-4.303,1.487-6.991,1.487c-3.646,0-6.484-0.935-8.513-2.803c-2.028-1.869-3.042-4.456-3.042-7.761
			c0-3.624,1.509-6.438,4.529-8.443c3.02-2.006,7.39-3.065,13.11-3.18l7.076-0.205v-2.461c0-3.533-0.718-6.199-2.153-8
			c-1.436-1.8-3.749-2.7-6.939-2.7c-3.442,0-7.009,0.957-10.7,2.871l-1.266-2.939c4.08-1.915,8.113-2.872,12.103-2.872
			c4.079,0,7.127,1.06,9.145,3.18c2.017,2.119,3.025,5.424,3.025,9.913v24.717H907.041z M893.367,336.944
			c3.966,0,7.094-1.134,9.384-3.402c2.29-2.267,3.436-5.418,3.436-9.452v-3.658l-6.495,0.274c-5.22,0.251-8.939,1.065-11.162,2.443
			c-2.222,1.38-3.333,3.527-3.333,6.444c0,2.325,0.712,4.131,2.137,5.419C888.757,336.3,890.769,336.944,893.367,336.944z
			 M886.838,296.365c1.412-1.526,2.911-3.305,4.495-5.333s2.843-3.806,3.777-5.333h3.351c1.55,2.735,4.308,6.29,8.272,10.666v0.547
			h-2.393c-2.781-2.302-5.299-4.66-7.556-7.076c-2.461,2.598-4.979,4.957-7.555,7.076h-2.393V296.365z"/>
		<path fill="#FFFFFF" d="M947.483,339.337v-24.101c0-3.738-0.786-6.456-2.358-8.153c-1.573-1.698-4.012-2.547-7.316-2.547
			c-4.444,0-7.697,1.122-9.76,3.367c-2.063,2.245-3.094,5.886-3.094,10.922v20.512h-3.385v-37.16h2.872l0.649,5.094h0.205
			c2.415-3.874,6.712-5.812,12.888-5.812c8.433,0,12.649,4.524,12.649,13.571v24.307H947.483z"/>
		<path fill="#FFFFFF" d="M977.704,340.021c-5.311,0-9.47-1.675-12.478-5.025c-3.009-3.35-4.513-8.021-4.513-14.016
			c0-6.154,1.561-10.945,4.684-14.376c3.122-3.43,7.395-5.145,12.819-5.145c3.214,0,6.29,0.559,9.23,1.675l-0.923,3.009
			c-3.214-1.071-6.006-1.606-8.376-1.606c-4.559,0-8.012,1.407-10.358,4.222c-2.348,2.814-3.521,6.866-3.521,12.153
			c0,5.014,1.174,8.939,3.521,11.776c2.347,2.838,5.629,4.257,9.846,4.257c3.372,0,6.507-0.604,9.401-1.813v3.146
			C984.666,339.439,981.556,340.021,977.704,340.021z"/>
		<path fill="#FFFFFF" d="M995.651,291.853c0-2.188,0.718-3.281,2.153-3.281c0.707,0,1.26,0.285,1.658,0.854
			s0.599,1.379,0.599,2.427c0,1.025-0.2,1.835-0.599,2.428s-0.951,0.889-1.658,0.889
			C996.369,295.169,995.651,294.063,995.651,291.853z M999.515,339.337h-3.385v-37.16h3.385V339.337z"/>
		<path fill="#FFFFFF" d="M1034.521,339.337l-0.854-5.88h-0.273c-1.869,2.393-3.789,4.085-5.76,5.076
			c-1.972,0.992-4.303,1.487-6.991,1.487c-3.646,0-6.484-0.935-8.513-2.803c-2.028-1.869-3.042-4.456-3.042-7.761
			c0-3.624,1.509-6.438,4.529-8.443c3.02-2.006,7.39-3.065,13.11-3.18l7.076-0.205v-2.461c0-3.533-0.718-6.199-2.153-8
			c-1.436-1.8-3.749-2.7-6.939-2.7c-3.442,0-7.009,0.957-10.7,2.871l-1.266-2.939c4.08-1.915,8.113-2.872,12.103-2.872
			c4.079,0,7.127,1.06,9.145,3.18c2.017,2.119,3.025,5.424,3.025,9.913v24.717H1034.521z M1020.847,336.944
			c3.966,0,7.094-1.134,9.384-3.402c2.29-2.267,3.436-5.418,3.436-9.452v-3.658l-6.495,0.274c-5.22,0.251-8.939,1.065-11.162,2.443
			c-2.222,1.38-3.333,3.527-3.333,6.444c0,2.325,0.712,4.131,2.137,5.419C1016.236,336.3,1018.248,336.944,1020.847,336.944z"/>
	</g>
	<g>
		<g>
			<path fill="#FFFFFF" d="M172.797,184.056v44.646c0,4.167-1.418,7.677-4.261,10.521c-2.843,2.843-6.449,4.268-10.807,4.268
				c-4.171,0-7.681-1.425-10.523-4.268c-2.847-2.844-4.264-6.354-4.264-10.521v-44.646c0-7.01-1.519-12.891-4.549-17.627
				c-5.121-8.341-13.557-12.513-25.306-12.513c-9.102,0-16.405,2.699-21.899,8.104c-5.499,5.407-8.245,12.751-8.245,22.035v44.646
				c0,4.167-1.421,7.677-4.269,10.521c-2.843,2.843-6.356,4.268-10.519,4.268c-4.171,0-7.727-1.467-10.667-4.409
				c-2.941-2.94-4.405-6.397-4.405-10.379v-89.573c0-4.167,1.464-7.723,4.405-10.664c2.94-2.936,6.496-4.408,10.667-4.408
				c5.873,0,10.234,2.66,13.077,7.96c4.171-2.27,9.004-4.167,14.507-5.687c5.491-1.515,11.271-2.274,17.347-2.274
				c19.9,0,35.35,6.92,46.348,20.758C168.346,156,172.797,169.081,172.797,184.056z"/>
			<path fill="#FFFFFF" d="M280.286,198.848h-71.66c2.843,5.872,7.489,10.048,13.935,12.509c4.167,1.706,8.524,2.559,13.082,2.559
				h40.438c4.358,0,7.965,1.422,10.808,4.265c2.843,2.848,4.264,6.352,4.264,10.522c0,4.167-1.421,7.677-4.264,10.521
				c-2.843,2.843-6.45,4.268-10.808,4.268h-40.438c-14.415,0-27.399-4.361-38.957-13.077c-14.037-11.189-21.046-26.64-21.046-46.357
				c0-19.904,6.92-35.35,20.766-46.353c11.559-9.102,24.636-13.646,39.237-13.646c14.597,0,27.483,4.455,38.676,13.366
				c14.02,11.186,21.038,26.729,21.038,46.633c0,4.176-1.421,7.681-4.264,10.523S284.644,198.848,280.286,198.848z M208.626,168.984
				h53.749c-2.656-5.873-7.209-10.044-13.65-12.51c-4.366-1.705-8.724-2.559-13.082-2.559c-4.558,0-8.915,0.756-13.082,2.279
				C216.307,158.844,211.661,163.111,208.626,168.984z"/>
			<path fill="#FFFFFF" d="M417.914,184.056v44.646c0,4.167-1.425,7.677-4.269,10.521c-2.843,2.843-6.45,4.268-10.808,4.268
				c-5.876,0-10.234-2.656-13.078-7.964c-4.366,2.465-9.148,4.408-14.359,5.834c-5.219,1.417-10.947,2.13-17.207,2.13
				c-19.9,0-35.358-6.823-46.348-20.474c-9.102-11.376-13.655-24.359-13.655-38.961c0-14.782,4.456-27.771,13.371-38.957
				c11.181-14.023,26.732-21.042,46.632-21.042c19.905,0,35.359,6.92,46.357,20.758C413.455,156,417.914,169.081,417.914,184.056z
				 M388.059,184.056c0-7.01-1.523-12.891-4.557-17.627c-5.118-8.341-13.549-12.513-25.307-12.513
				c-9.292,0-16.637,2.699-22.039,8.104c-5.401,5.407-8.101,12.649-8.101,21.751c0,7.022,1.511,12.899,4.545,17.636
				c5.122,8.346,13.65,12.508,25.595,12.508c11.559,0,19.905-4.073,25.022-12.225C386.442,196.191,388.059,190.311,388.059,184.056z
				"/>
			<path fill="#FFFFFF" d="M540.471,49.271v179.432c0,4.167-1.426,7.677-4.26,10.521c-2.844,2.843-6.459,4.268-10.813,4.268
				c-5.881,0-10.238-2.656-13.081-7.964c-4.366,2.465-9.145,4.408-14.359,5.834c-5.215,1.417-10.947,2.13-17.206,2.13
				c-19.901,0-35.354-6.823-46.349-20.474c-9.102-11.376-13.646-24.359-13.646-38.961c0-14.782,4.447-27.771,13.362-38.957
				c11.181-14.023,26.732-21.042,46.633-21.042c11.758,0,21.708,2.372,29.864,7.107V49.271c0-3.984,1.417-7.489,4.26-10.523
				c2.843-3.03,6.356-4.553,10.523-4.553c4.354,0,7.969,1.426,10.813,4.269C539.045,41.306,540.471,44.913,540.471,49.271z
				 M510.616,184.056c0-7.01-1.519-12.891-4.558-17.627c-5.112-8.341-13.547-12.513-25.306-12.513
				c-9.292,0-16.629,2.699-22.04,8.104c-5.401,5.407-8.1,12.649-8.1,21.751c0,7.022,1.511,12.899,4.553,17.636
				c5.113,8.346,13.65,12.508,25.587,12.508c9.102,0,16.353-2.698,21.759-8.104C507.908,200.41,510.616,193.153,510.616,184.056z"/>
		</g>
	</g>
</g>
</svg>
