<?xml version="1.0" encoding="utf-8"?>
<!-- Generator: Adobe Illustrator 20.1.0, SVG Export Plug-In . SVG Version: 6.00 Build 0)  -->
<svg version="1.1" id="Camada_1" xmlns="http://www.w3.org/2000/svg" xmlns:xlink="http://www.w3.org/1999/xlink" x="0px" y="0px"
	 viewBox="2.1 0.1 25 25" style="enable-background:new 2.1 0.1 25 25;" xml:space="preserve">
<style type="text/css">
	.st0{fill:none;}
	.st1{fill:#E26161;}
	.st2{opacity:0.2;}
	.st3{fill:#231F20;}
	.st4{fill:#FFFFFF;}
	.st5{fill:#4D4D4D;}
	.st6{fill:#00A087;}
	.st7{fill:#212930;}
	.st8{fill:#e4376e;}
</style>
<rect x="-171" y="99.7" class="st0" width="31.2" height="3.1"/>
<g>
	<g>
		<g>
			<path class="st1" d="M526.7,1685.2c0,11.8-9.7,21.9-21.5,21.9H125.7c-11.8,0-22.1-10.1-22.1-21.9v-42.9
				c0-11.8,10.2-21.2,22.1-21.2h379.4c11.8,0,21.5,9.4,21.5,21.2V1685.2z"/>
			<g>
				
					<text transform="matrix(1 0 0 1 211.2488 1677.167)" class="st4" style="font-family:'OpenSans-Semibold'; font-size:34.2965px;">Fórum</text>
			</g>
		</g>
	</g>
</g>
<g class="st2">
	<g>
		<g>
			<path class="st3" d="M151.2,1673c0,5.9,4.8,10.8,10.8,10.8h26.9c5.9,0,10.8-4.8,10.8-10.8v-16.4c0-5.9-4.8-10.8-10.8-10.8H162
				c-5.9,0-10.8,4.8-10.8,10.8V1673z"/>
		</g>
		<g>
			<path class="st3" d="M186.2,1645.8h2.7v2.7C188.9,1647,187.7,1645.8,186.2,1645.8z"/>
		</g>
		<g>
			<path class="st3" d="M180.8,1645.8c-1.5,0-2.7,1.2-2.7,2.7v-2.7H180.8z"/>
		</g>
		<g>
			<path class="st3" d="M180.8,1645.8h5.4c1.5,0,2.7,1.2,2.7,2.7v32.5v2.7v2.7v5.3c0,1.5-0.9,1.8-1.9,0.8l-3.5-3.4l-5.4-5.3v-2.7
				v-32.5C178.1,1647,179.4,1645.8,180.8,1645.8z"/>
		</g>
	</g>
	<g>
		<g>
			<path class="st3" d="M172.8,1667.5c0,5.9-4.8,10.8-10.8,10.8h-26.9c-5.9,0-10.8-4.8-10.8-10.8v-16.4c0-5.9,4.8-10.8,10.8-10.8
				H162c5.9,0,10.8,4.8,10.8,10.8V1667.5z"/>
		</g>
		<g>
			<path class="st3" d="M137.8,1640.4h-2.7v2.7C135.1,1641.6,136.3,1640.4,137.8,1640.4z"/>
		</g>
		<g>
			<path class="st3" d="M143.1,1640.4c1.5,0,2.7,1.2,2.7,2.7v-2.7H143.1z"/>
		</g>
		<g>
			<path class="st3" d="M143.1,1640.4h-5.4c-1.5,0-2.7,1.2-2.7,2.7v32.5v2.7v2.7v5.3c0,1.5,0.9,1.8,1.9,0.8l3.5-3.4l5.4-5.3v-2.7
				v-32.5C145.8,1641.6,144.6,1640.4,143.1,1640.4z"/>
		</g>
	</g>
	<g>
		<circle class="st3" cx="137.8" cy="1659.2" r="2.7"/>
		<circle class="st3" cx="148.5" cy="1659.2" r="2.7"/>
		<circle class="st3" cx="159.3" cy="1659.2" r="2.7"/>
	</g>
</g>
<g>
	<g>
		<g>
			<path class="st4" d="M149.2,1671c0,5.9,4.8,10.8,10.8,10.8h26.9c5.9,0,10.8-4.8,10.8-10.8v-16.4c0-5.9-4.8-10.8-10.8-10.8H160
				c-5.9,0-10.8,4.8-10.8,10.8V1671z"/>
		</g>
		<g>
			<path class="st4" d="M184.2,1643.8h2.7v2.7C186.9,1645,185.7,1643.8,184.2,1643.8z"/>
		</g>
		<g>
			<path class="st4" d="M178.8,1643.8c-1.5,0-2.7,1.2-2.7,2.7v-2.7H178.8z"/>
		</g>
		<g>
			<path class="st4" d="M178.8,1643.8h5.4c1.5,0,2.7,1.2,2.7,2.7v32.5v2.7v2.7v5.3c0,1.5-0.9,1.8-1.9,0.8l-3.5-3.4l-5.4-5.3v-2.7
				v-32.5C176.1,1645,177.4,1643.8,178.8,1643.8z"/>
		</g>
	</g>
	<g>
		<g>
			<path class="st5" d="M170.8,1665.5c0,5.9-4.8,10.8-10.8,10.8h-26.9c-5.9,0-10.8-4.8-10.8-10.8v-16.4c0-5.9,4.8-10.8,10.8-10.8
				H160c5.9,0,10.8,4.8,10.8,10.8V1665.5z"/>
		</g>
		<g>
			<path class="st5" d="M135.8,1638.4h-2.7v2.7C133.1,1639.6,134.3,1638.4,135.8,1638.4z"/>
		</g>
		<g>
			<path class="st5" d="M141.1,1638.4c1.5,0,2.7,1.2,2.7,2.7v-2.7H141.1z"/>
		</g>
		<g>
			<path class="st5" d="M141.1,1638.4h-5.4c-1.5,0-2.7,1.2-2.7,2.7v32.5v2.7v2.7v5.3c0,1.5,0.9,1.8,1.9,0.8l3.5-3.4l5.4-5.3v-2.7
				v-32.5C143.8,1639.6,142.6,1638.4,141.1,1638.4z"/>
		</g>
	</g>
	<g>
		<circle class="st4" cx="135.8" cy="1657.2" r="2.7"/>
		<circle class="st4" cx="146.5" cy="1657.2" r="2.7"/>
		<circle class="st4" cx="157.3" cy="1657.2" r="2.7"/>
	</g>
</g>
<g>
	<rect x="4.2" y="5.5" class="st6" width="20.9" height="14.6"/>
	<g>
		<g>
			<path class="st4" d="M13.2,4.6H5.6v14h7.6c0.8,0,1.5,0.7,1.5,1.5v-14C14.6,5.3,14,4.6,13.2,4.6z"/>
			<path class="st7" d="M15,20.1h-0.8c0-0.6-0.5-1.1-1.1-1.1h-8V4.2h8c1,0,1.9,0.8,1.9,1.9V20.1z M6,18.2h7.1c0.4,0,0.8,0.1,1.1,0.3
				V6.1c0-0.6-0.5-1.1-1.1-1.1H6V18.2z"/>
		</g>
		<g>
			<path class="st4" d="M16,4.6h7.6v14H16c-0.8,0-1.5,0.7-1.5,1.5v-14C14.5,5.3,15.2,4.6,16,4.6z"/>
			<path class="st7" d="M15,20.1h-0.8v-14c0-1,0.8-1.9,1.9-1.9h8v14.9h-8C15.4,19.1,15,19.5,15,20.1z M16,5C15.4,5,15,5.5,15,6.1
				v12.5c0.3-0.2,0.7-0.3,1.1-0.3h7.1V5H16z"/>
		</g>
	</g>
	<g>
		<g>
			<rect x="7.1" y="6.2" class="st7" width="3.5" height="0.8"/>
		</g>
		<g>
			<rect x="7.1" y="8.4" class="st7" width="5.9" height="0.8"/>
		</g>
		<g>
			<rect x="7.1" y="10.1" class="st7" width="5.9" height="0.8"/>
		</g>
		<g>
			<rect x="7.1" y="11.8" class="st7" width="4.2" height="0.8"/>
		</g>
	</g>
	<g>
		<g>
			<path class="st4" d="M19.1,19.1c-0.3,0-0.7,0.1-0.9,0.1l0.9,2.6l0.9-2.6C19.8,19.2,19.5,19.1,19.1,19.1z"/>
			<path class="st7" d="M19.1,23l-1.5-4l0.4-0.1c0.7-0.2,1.4-0.2,2.1,0l0.4,0.1L19.1,23z M18.7,19.6l0.4,1.1l0.4-1.1
				C19.3,19.5,19,19.5,18.7,19.6z"/>
		</g>
		<polyline class="st8" points="20.6,19 20.6,13.7 17.7,13.7 17.7,19 		"/>
		<g>
			<g>
				<path class="st8" d="M18.1,2.2l0,1h2.1v-1c0-0.1-0.1-0.2-0.2-0.2h-1.6C18.2,2.1,18.1,2.1,18.1,2.2z"/>
			</g>
			<g>
				<g>
					<rect x="18.1" y="3.2" class="st4" width="2.1" height="1.4"/>
					<path class="st7" d="M20.6,5.1h-2.9l0-2.3l2.9,0V5.1z M18.5,4.3h1.3V3.6h-1.3V4.3z"/>
				</g>
			</g>
		</g>
		<polyline class="st8" points="20.6,16 20.6,5.1 17.7,5.1 17.7,16.2 		"/>
	</g>
</g>
</svg>
