<?xml version="1.0" encoding="utf-8"?>
<!-- Generator: Adobe Illustrator 20.1.0, SVG Export Plug-In . SVG Version: 6.00 Build 0)  -->
<svg version="1.1" id="Camada_1" xmlns="http://www.w3.org/2000/svg" xmlns:xlink="http://www.w3.org/1999/xlink" x="0px" y="0px"
	 viewBox="2.1 0.1 25 25" style="enable-background:new 2.1 0.1 25 25;" xml:space="preserve">
<style type="text/css">
	.st0{fill:none;}
	.st1{fill:#E26161;}
	.st2{opacity:0.2;}
	.st3{fill:#231F20;}
	.st4{fill:#FFFFFF;}
	.st5{fill:#4D4D4D;}
	.st6{fill:#212930;}
	.st7{fill:#e4376e;}
</style>
<rect x="-171" y="99.7" class="st0" width="31.2" height="3.1"/>
<g>
	<g>
		<g>
			<path class="st1" d="M526.7,1685.2c0,11.8-9.7,21.9-21.5,21.9H125.7c-11.8,0-22.1-10.1-22.1-21.9v-42.9
				c0-11.8,10.2-21.2,22.1-21.2h379.4c11.8,0,21.5,9.4,21.5,21.2V1685.2z"/>
			<g>
				
					<text transform="matrix(1 0 0 1 211.2488 1677.167)" class="st4" style="font-family:'OpenSans-Semibold'; font-size:34.2965px;">Fórum</text>
			</g>
		</g>
	</g>
</g>
<g class="st2">
	<g>
		<g>
			<path class="st3" d="M151.2,1673c0,5.9,4.8,10.8,10.8,10.8h26.9c5.9,0,10.8-4.8,10.8-10.8v-16.4c0-5.9-4.8-10.8-10.8-10.8H162
				c-5.9,0-10.8,4.8-10.8,10.8V1673z"/>
		</g>
		<g>
			<path class="st3" d="M186.2,1645.8h2.7v2.7C188.9,1647,187.7,1645.8,186.2,1645.8z"/>
		</g>
		<g>
			<path class="st3" d="M180.8,1645.8c-1.5,0-2.7,1.2-2.7,2.7v-2.7H180.8z"/>
		</g>
		<g>
			<path class="st3" d="M180.8,1645.8h5.4c1.5,0,2.7,1.2,2.7,2.7v32.5v2.7v2.7v5.3c0,1.5-0.9,1.8-1.9,0.8l-3.5-3.4l-5.4-5.3v-2.7
				v-32.5C178.1,1647,179.4,1645.8,180.8,1645.8z"/>
		</g>
	</g>
	<g>
		<g>
			<path class="st3" d="M172.8,1667.5c0,5.9-4.8,10.8-10.8,10.8h-26.9c-5.9,0-10.8-4.8-10.8-10.8v-16.4c0-5.9,4.8-10.8,10.8-10.8
				H162c5.9,0,10.8,4.8,10.8,10.8V1667.5z"/>
		</g>
		<g>
			<path class="st3" d="M137.8,1640.4h-2.7v2.7C135.1,1641.6,136.3,1640.4,137.8,1640.4z"/>
		</g>
		<g>
			<path class="st3" d="M143.1,1640.4c1.5,0,2.7,1.2,2.7,2.7v-2.7H143.1z"/>
		</g>
		<g>
			<path class="st3" d="M143.1,1640.4h-5.4c-1.5,0-2.7,1.2-2.7,2.7v32.5v2.7v2.7v5.3c0,1.5,0.9,1.8,1.9,0.8l3.5-3.4l5.4-5.3v-2.7
				v-32.5C145.8,1641.6,144.6,1640.4,143.1,1640.4z"/>
		</g>
	</g>
	<g>
		<circle class="st3" cx="137.8" cy="1659.2" r="2.7"/>
		<circle class="st3" cx="148.5" cy="1659.2" r="2.7"/>
		<circle class="st3" cx="159.3" cy="1659.2" r="2.7"/>
	</g>
</g>
<g>
	<g>
		<g>
			<path class="st4" d="M149.2,1671c0,5.9,4.8,10.8,10.8,10.8h26.9c5.9,0,10.8-4.8,10.8-10.8v-16.4c0-5.9-4.8-10.8-10.8-10.8H160
				c-5.9,0-10.8,4.8-10.8,10.8V1671z"/>
		</g>
		<g>
			<path class="st4" d="M184.2,1643.8h2.7v2.7C186.9,1645,185.7,1643.8,184.2,1643.8z"/>
		</g>
		<g>
			<path class="st4" d="M178.8,1643.8c-1.5,0-2.7,1.2-2.7,2.7v-2.7H178.8z"/>
		</g>
		<g>
			<path class="st4" d="M178.8,1643.8h5.4c1.5,0,2.7,1.2,2.7,2.7v32.5v2.7v2.7v5.3c0,1.5-0.9,1.8-1.9,0.8l-3.5-3.4l-5.4-5.3v-2.7
				v-32.5C176.1,1645,177.4,1643.8,178.8,1643.8z"/>
		</g>
	</g>
	<g>
		<g>
			<path class="st5" d="M170.8,1665.5c0,5.9-4.8,10.8-10.8,10.8h-26.9c-5.9,0-10.8-4.8-10.8-10.8v-16.4c0-5.9,4.8-10.8,10.8-10.8
				H160c5.9,0,10.8,4.8,10.8,10.8V1665.5z"/>
		</g>
		<g>
			<path class="st5" d="M135.8,1638.4h-2.7v2.7C133.1,1639.6,134.3,1638.4,135.8,1638.4z"/>
		</g>
		<g>
			<path class="st5" d="M141.1,1638.4c1.5,0,2.7,1.2,2.7,2.7v-2.7H141.1z"/>
		</g>
		<g>
			<path class="st5" d="M141.1,1638.4h-5.4c-1.5,0-2.7,1.2-2.7,2.7v32.5v2.7v2.7v5.3c0,1.5,0.9,1.8,1.9,0.8l3.5-3.4l5.4-5.3v-2.7
				v-32.5C143.8,1639.6,142.6,1638.4,141.1,1638.4z"/>
		</g>
	</g>
	<g>
		<circle class="st4" cx="135.8" cy="1657.2" r="2.7"/>
		<circle class="st4" cx="146.5" cy="1657.2" r="2.7"/>
		<circle class="st4" cx="157.3" cy="1657.2" r="2.7"/>
	</g>
</g>
<g>
	<g>
		<g>
			<path class="st6" d="M15.1,13.2h-0.8V5.7c0-0.6-0.5-1.1-1.1-1.1H5.8v8.7H5V3.8h8.2c1.1,0,1.9,0.9,1.9,1.9V13.2z"/>
		</g>
		<g>
			<path class="st6" d="M24.5,19h-1.8v-0.8h1V4.6h-7.4c-0.6,0-1.1,0.5-1.1,1.1v7.5h-0.8V5.7c0-1.1,0.9-1.9,1.9-1.9h8.2V19z"/>
		</g>
	</g>
	<g>
		<g>
			<rect x="7" y="5.8" class="st6" width="3.6" height="0.8"/>
		</g>
		<g>
			<rect x="7" y="8.1" class="st6" width="6.1" height="0.8"/>
		</g>
		<g>
			<rect x="7" y="9.8" class="st6" width="6.1" height="0.8"/>
		</g>
		<g>
			<rect x="7" y="11.5" class="st6" width="4.3" height="0.8"/>
		</g>
	</g>
	<g>
		<g>
			<g>
				<path class="st4" d="M21.4,21c0,0.1-0.1,0.3-0.3,0.3H5.7c-0.1,0-0.3-0.1-0.3-0.3v-6.4c0-0.1,0.1-0.3,0.3-0.3h15.5
					c0.1,0,0.3,0.1,0.3,0.3V21z"/>
				<path class="st6" d="M21.2,21.6H5.7C5.3,21.6,5,21.3,5,21v-6.4c0-0.4,0.3-0.7,0.7-0.7h15.5c0.4,0,0.7,0.3,0.7,0.7V21
					C21.8,21.3,21.5,21.6,21.2,21.6z M5.8,20.8H21v-6.1H5.8V20.8z"/>
			</g>
			<g>
				<g>
					<g>
						<line class="st7" x1="6.7" y1="16.1" x2="7.9" y2="16.1"/>
						<rect x="6.7" y="15.7" class="st7" width="1.2" height="0.8"/>
					</g>
					<g>
						<line class="st7" x1="8.8" y1="16.1" x2="10" y2="16.1"/>
						<rect x="8.8" y="15.7" class="st7" width="1.2" height="0.8"/>
					</g>
					<g>
						<line class="st7" x1="10.8" y1="16.1" x2="12" y2="16.1"/>
						<rect x="10.8" y="15.7" class="st7" width="1.2" height="0.8"/>
					</g>
					<g>
						<line class="st7" x1="12.8" y1="16.1" x2="14" y2="16.1"/>
						<rect x="12.8" y="15.7" class="st7" width="1.2" height="0.8"/>
					</g>
					<g>
						<line class="st7" x1="14.9" y1="16.1" x2="16.1" y2="16.1"/>
						<rect x="14.9" y="15.7" class="st7" width="1.2" height="0.8"/>
					</g>
					<g>
						<line class="st7" x1="16.9" y1="16.1" x2="18.1" y2="16.1"/>
						<rect x="16.9" y="15.7" class="st7" width="1.2" height="0.8"/>
					</g>
					<g>
						<line class="st7" x1="18.9" y1="16.1" x2="20.1" y2="16.1"/>
						<rect x="18.9" y="15.7" class="st7" width="1.2" height="0.8"/>
					</g>
				</g>
				<g>
					<g>
						<line class="st7" x1="6.7" y1="17.8" x2="7.9" y2="17.8"/>
						<rect x="6.7" y="17.4" class="st7" width="1.2" height="0.8"/>
					</g>
					<g>
						<line class="st7" x1="8.8" y1="17.8" x2="10" y2="17.8"/>
						<rect x="8.8" y="17.4" class="st7" width="1.2" height="0.8"/>
					</g>
					<g>
						<line class="st7" x1="10.8" y1="17.8" x2="12" y2="17.8"/>
						<rect x="10.8" y="17.4" class="st7" width="1.2" height="0.8"/>
					</g>
					<g>
						<line class="st7" x1="12.8" y1="17.8" x2="14" y2="17.8"/>
						<rect x="12.8" y="17.4" class="st7" width="1.2" height="0.8"/>
					</g>
					<g>
						<line class="st7" x1="14.9" y1="17.8" x2="16.1" y2="17.8"/>
						<rect x="14.9" y="17.4" class="st7" width="1.2" height="0.8"/>
					</g>
					<g>
						<line class="st7" x1="16.9" y1="17.8" x2="18.1" y2="17.8"/>
						<rect x="16.9" y="17.4" class="st7" width="1.2" height="0.8"/>
					</g>
					<g>
						<line class="st7" x1="18.9" y1="17.8" x2="20.1" y2="17.8"/>
						<rect x="18.9" y="17.4" class="st7" width="1.2" height="0.8"/>
					</g>
				</g>
				<g>
					<g>
						<line class="st7" x1="6.7" y1="19.5" x2="7.9" y2="19.5"/>
						<rect x="6.7" y="19.1" class="st7" width="1.2" height="0.8"/>
					</g>
					<g>
						<line class="st7" x1="8.8" y1="19.5" x2="10" y2="19.5"/>
						<rect x="8.8" y="19.1" class="st7" width="1.2" height="0.8"/>
					</g>
					<g>
						<line class="st7" x1="10.8" y1="19.5" x2="18.1" y2="19.5"/>
						<rect x="10.8" y="19.1" class="st7" width="7.3" height="0.8"/>
					</g>
					<g>
						<line class="st7" x1="18.9" y1="19.5" x2="20.1" y2="19.5"/>
						<rect x="18.9" y="19.1" class="st7" width="1.2" height="0.8"/>
					</g>
				</g>
			</g>
		</g>
	</g>
	<g>
		<g>
			<g>
				<line class="st4" x1="19.4" y1="7" x2="19.4" y2="5.8"/>
				<rect x="19" y="5.8" class="st6" width="0.8" height="1.2"/>
			</g>
			<g>
				<line class="st4" x1="18.2" y1="7.8" x2="17.2" y2="7.2"/>
				
					<rect x="17.3" y="6.9" transform="matrix(0.4997 -0.8662 0.8662 0.4997 2.3827 19.0912)" class="st6" width="0.8" height="1.2"/>
			</g>
			<g>
				<line class="st4" x1="18.3" y1="9.1" x2="17.3" y2="9.7"/>
				<rect x="17.2" y="9" transform="matrix(0.8664 -0.4994 0.4994 0.8664 -2.3334 10.1447)" class="st6" width="1.2" height="0.8"/>
			</g>
			<g>
				<line class="st4" x1="19.5" y1="9.7" x2="19.5" y2="10.9"/>
				<rect x="19.1" y="9.7" class="st6" width="0.8" height="1.2"/>
			</g>
			<g>
				<line class="st4" x1="20.6" y1="9" x2="21.7" y2="9.6"/>
				
					<rect x="20.8" y="8.7" transform="matrix(0.4996 -0.8663 0.8663 0.4996 2.5272 22.9951)" class="st6" width="0.8" height="1.2"/>
			</g>
			<g>
				<line class="st4" x1="20.6" y1="7.7" x2="21.6" y2="7.1"/>
				<rect x="20.5" y="7" transform="matrix(0.8662 -0.4996 0.4996 0.8662 -0.8557 11.5249)" class="st6" width="1.2" height="0.8"/>
			</g>
		</g>
		<g>
			<g>
				<polygon class="st4" points="19.5,9.6 20.1,10.7 20.7,11.8 19.4,11.8 18.2,11.8 18.8,10.7 				"/>
				<path class="st6" d="M21.4,12.2l-3.9,0l2-3.3L21.4,12.2z M18.9,11.4l1.1,0l-0.5-1L18.9,11.4z"/>
			</g>
			<g>
				
					<rect x="18.7" y="12.1" transform="matrix(9.251076e-03 -1 1 9.251076e-03 6.7766 31.8013)" class="st6" width="1.5" height="0.8"/>
			</g>
		</g>
	</g>
</g>
</svg>
