<?xml version="1.0" encoding="utf-8"?>
<!-- Generator: Adobe Illustrator 20.1.0, SVG Export Plug-In . SVG Version: 6.00 Build 0)  -->
<svg version="1.1" id="Camada_1" xmlns="http://www.w3.org/2000/svg" xmlns:xlink="http://www.w3.org/1999/xlink" x="0px" y="0px"
	 viewBox="2.1 0.1 25 25" style="enable-background:new 2.1 0.1 25 25;" xml:space="preserve">
<style type="text/css">
	.st0{fill:none;}
	.st1{fill:#E26161;}
	.st2{opacity:0.2;}
	.st3{fill:#231F20;}
	.st4{fill:#FFFFFF;}
	.st5{fill:#4D4D4D;}
	.st6{fill:#212930;}
	.st7{fill:#B4BEBF;}
	.st8{fill:#e4376e;}
</style>
<rect x="-171" y="99.7" class="st0" width="31.2" height="3.1"/>
<g>
	<g>
		<g>
			<path class="st1" d="M526.7,1685.2c0,11.8-9.7,21.9-21.5,21.9H125.7c-11.8,0-22.1-10.1-22.1-21.9v-42.9
				c0-11.8,10.2-21.2,22.1-21.2h379.4c11.8,0,21.5,9.4,21.5,21.2V1685.2z"/>
			<g>
				
					<text transform="matrix(1 0 0 1 211.2488 1677.167)" class="st4" style="font-family:'OpenSans-Semibold'; font-size:34.2965px;">Fórum</text>
			</g>
		</g>
	</g>
</g>
<g class="st2">
	<g>
		<g>
			<path class="st3" d="M151.2,1673c0,5.9,4.8,10.8,10.8,10.8h26.9c5.9,0,10.8-4.8,10.8-10.8v-16.4c0-5.9-4.8-10.8-10.8-10.8H162
				c-5.9,0-10.8,4.8-10.8,10.8V1673z"/>
		</g>
		<g>
			<path class="st3" d="M186.2,1645.8h2.7v2.7C188.9,1647,187.7,1645.8,186.2,1645.8z"/>
		</g>
		<g>
			<path class="st3" d="M180.8,1645.8c-1.5,0-2.7,1.2-2.7,2.7v-2.7H180.8z"/>
		</g>
		<g>
			<path class="st3" d="M180.8,1645.8h5.4c1.5,0,2.7,1.2,2.7,2.7v32.5v2.7v2.7v5.3c0,1.5-0.9,1.8-1.9,0.8l-3.5-3.4l-5.4-5.3v-2.7
				v-32.5C178.1,1647,179.4,1645.8,180.8,1645.8z"/>
		</g>
	</g>
	<g>
		<g>
			<path class="st3" d="M172.8,1667.5c0,5.9-4.8,10.8-10.8,10.8h-26.9c-5.9,0-10.8-4.8-10.8-10.8v-16.4c0-5.9,4.8-10.8,10.8-10.8
				H162c5.9,0,10.8,4.8,10.8,10.8V1667.5z"/>
		</g>
		<g>
			<path class="st3" d="M137.8,1640.4h-2.7v2.7C135.1,1641.6,136.3,1640.4,137.8,1640.4z"/>
		</g>
		<g>
			<path class="st3" d="M143.1,1640.4c1.5,0,2.7,1.2,2.7,2.7v-2.7H143.1z"/>
		</g>
		<g>
			<path class="st3" d="M143.1,1640.4h-5.4c-1.5,0-2.7,1.2-2.7,2.7v32.5v2.7v2.7v5.3c0,1.5,0.9,1.8,1.9,0.8l3.5-3.4l5.4-5.3v-2.7
				v-32.5C145.8,1641.6,144.6,1640.4,143.1,1640.4z"/>
		</g>
	</g>
	<g>
		<circle class="st3" cx="137.8" cy="1659.2" r="2.7"/>
		<circle class="st3" cx="148.5" cy="1659.2" r="2.7"/>
		<circle class="st3" cx="159.3" cy="1659.2" r="2.7"/>
	</g>
</g>
<g>
	<g>
		<g>
			<path class="st4" d="M149.2,1671c0,5.9,4.8,10.8,10.8,10.8h26.9c5.9,0,10.8-4.8,10.8-10.8v-16.4c0-5.9-4.8-10.8-10.8-10.8H160
				c-5.9,0-10.8,4.8-10.8,10.8V1671z"/>
		</g>
		<g>
			<path class="st4" d="M184.2,1643.8h2.7v2.7C186.9,1645,185.7,1643.8,184.2,1643.8z"/>
		</g>
		<g>
			<path class="st4" d="M178.8,1643.8c-1.5,0-2.7,1.2-2.7,2.7v-2.7H178.8z"/>
		</g>
		<g>
			<path class="st4" d="M178.8,1643.8h5.4c1.5,0,2.7,1.2,2.7,2.7v32.5v2.7v2.7v5.3c0,1.5-0.9,1.8-1.9,0.8l-3.5-3.4l-5.4-5.3v-2.7
				v-32.5C176.1,1645,177.4,1643.8,178.8,1643.8z"/>
		</g>
	</g>
	<g>
		<g>
			<path class="st5" d="M170.8,1665.5c0,5.9-4.8,10.8-10.8,10.8h-26.9c-5.9,0-10.8-4.8-10.8-10.8v-16.4c0-5.9,4.8-10.8,10.8-10.8
				H160c5.9,0,10.8,4.8,10.8,10.8V1665.5z"/>
		</g>
		<g>
			<path class="st5" d="M135.8,1638.4h-2.7v2.7C133.1,1639.6,134.3,1638.4,135.8,1638.4z"/>
		</g>
		<g>
			<path class="st5" d="M141.1,1638.4c1.5,0,2.7,1.2,2.7,2.7v-2.7H141.1z"/>
		</g>
		<g>
			<path class="st5" d="M141.1,1638.4h-5.4c-1.5,0-2.7,1.2-2.7,2.7v32.5v2.7v2.7v5.3c0,1.5,0.9,1.8,1.9,0.8l3.5-3.4l5.4-5.3v-2.7
				v-32.5C143.8,1639.6,142.6,1638.4,141.1,1638.4z"/>
		</g>
	</g>
	<g>
		<circle class="st4" cx="135.8" cy="1657.2" r="2.7"/>
		<circle class="st4" cx="146.5" cy="1657.2" r="2.7"/>
		<circle class="st4" cx="157.3" cy="1657.2" r="2.7"/>
	</g>
</g>
<g>
	<g>
		<g>
			<path class="st6" d="M22.3,14h-1.7v-0.7l1.4,0c0,0,0.1,0,0.1,0l0,0c0.6,0,1.1-0.5,1.1-1.1c0-0.6-0.5-1.1-1.1-1.1l-0.4,0l0-0.4
				c0-0.1,0-0.2,0-0.3c0-1.6-1.3-2.9-2.9-2.9c-0.3,0-0.5,0-0.8,0.1l-0.4,0.1l-0.1-0.4c-0.3-2.2-2.2-3.8-4.4-3.8
				c-2.4,0-4.4,2-4.4,4.4l0,0.4l-0.3,0c-1.3,0.1-2.3,1.2-2.3,2.5c0,1.4,1.1,2.6,2.6,2.6V14c-1.8,0-3.3-1.5-3.3-3.3
				c0-1.6,1.1-2.9,2.6-3.2c0.1-2.7,2.4-4.9,5.1-4.9c2.4,0,4.5,1.7,5,4.1c0.2,0,0.4,0,0.6,0c2,0,3.6,1.6,3.6,3.6c0,0,0,0,0,0.1
				c0.8,0.2,1.4,0.9,1.4,1.8C24,13.1,23.3,13.9,22.3,14L22.3,14z"/>
		</g>
	</g>
	<g>
		<g>
			<path class="st4" d="M12.7,9.2h-1.4c-0.8,0-1.4,0.6-1.5,1.4l0,0.2V20l0-0.4c0,0,0,0.3,0,0.3c0-0.8,0.7-1.5,1.5-1.5h8.4V9.2h-5"/>
			<path class="st6" d="M9.8,20.3L9.8,20.3l-0.4,0l0-9.6c0-1,0.8-1.8,1.8-1.8h1.4v0.7h-1.4c-0.6,0-1.1,0.5-1.1,1.1l0,0.2v7.6
				c0.3-0.2,0.7-0.4,1.1-0.4h8.1V9.6h-4.6V8.9h5.4v10h-8.8c-0.6,0-1.1,0.5-1.1,1l0,0.1l0,0C10.1,20.3,9.9,20.3,9.8,20.3z"/>
		</g>
		<rect x="12.1" y="10.2" class="st7" width="6.7" height="7.3"/>
		<g>
			<g>
				<path class="st4" d="M19.7,18.5h-2.4h-6c-0.8,0-1.5,0.7-1.5,1.5s0.7,1.5,1.5,1.5h6h2.4V18.5z"/>
				<path class="st6" d="M20.1,21.7h-8.8c-1,0-1.8-0.8-1.8-1.8s0.8-1.8,1.8-1.8h8.8V21.7z M11.3,18.8c-0.6,0-1.1,0.5-1.1,1.1
					s0.5,1.1,1.1,1.1h8.1v-2.2H11.3z"/>
			</g>
		</g>
		<polygon class="st8" points="14.1,22.6 13.1,21.9 12,22.6 12,20.1 13.1,20.1 14.1,20.1 		"/>
		<g>
			<line class="st4" x1="11.2" y1="20" x2="19.7" y2="20"/>
			<rect x="11.2" y="19.6" class="st6" width="8.5" height="0.7"/>
		</g>
		<g>
			<line class="st4" x1="11.2" y1="18.4" x2="11.2" y2="9.4"/>
			<rect x="10.8" y="9.4" class="st6" width="0.7" height="9"/>
		</g>
	</g>
	<g>
		<g>
			<g>
				<polygon class="st6" points="15,7.6 13.7,6.3 12.4,7.6 11.9,7.1 13.7,5.2 15.6,7.1 				"/>
			</g>
		</g>
		<g>
			<rect x="13.4" y="6.2" class="st6" width="0.7" height="4.9"/>
		</g>
	</g>
	<g>
		<g>
			<g>
				<polygon class="st6" points="15.8,16.1 14,14.3 14.5,13.8 15.8,15.1 17.1,13.8 17.6,14.3 				"/>
			</g>
		</g>
		<g>
			<rect x="15.4" y="10.2" class="st6" width="0.7" height="4.9"/>
		</g>
	</g>
</g>
</svg>
