<?xml version="1.0" encoding="utf-8"?>
<!-- Generator: Adobe Illustrator 16.0.0, SVG Export Plug-In . SVG Version: 6.00 Build 0)  -->
<!DOCTYPE svg PUBLIC "-//W3C//DTD SVG 1.1//EN" "http://www.w3.org/Graphics/SVG/1.1/DTD/svg11.dtd">
<svg version="1.1" id="Camada_1" xmlns="http://www.w3.org/2000/svg" xmlns:xlink="http://www.w3.org/1999/xlink" x="0px" y="0px"
	 width="204px" height="61px" viewBox="0 0 204 61" enable-background="new 0 0 204 61" xml:space="preserve">
<g>
	<g>
		<path fill="#252224" d="M42.916,21.807c0,6.08-2.172,10.225-6.511,12.44c-2.998,1.521-7.816,2.28-14.458,2.28v17.448h-11.33V7.026
			h17.389c4.382,0,7.966,1.369,10.743,4.101C41.526,13.862,42.916,17.424,42.916,21.807z M31.715,21.807
			c0-1.386-0.434-2.528-1.311-3.418c-0.873-0.89-2.011-1.333-3.405-1.333h-5.052v9.438h5.052
			C30.143,26.494,31.715,24.933,31.715,21.807z"/>
		<path fill="#252224" d="M79.633,53.976H67.268L56.395,36.59v17.386H45.063V7.026h17.386c4.386,0,7.969,1.369,10.746,4.105
			s4.167,6.298,4.167,10.684c0,3.216-0.827,6.081-2.481,8.604c-1.654,2.516-3.983,4.275-6.986,5.273L79.633,53.976z M66.165,21.807
			c0-1.386-0.439-2.528-1.314-3.418c-0.876-0.89-2.011-1.333-3.408-1.333h-5.049v9.438h5.049
			C64.588,26.494,66.165,24.933,66.165,21.807z"/>
		<path fill="#252224" d="M157.064,17.056h-13.673v8.4h12.957v10.028h-12.957v18.491H132.06V7.026h25.004L157.064,17.056
			L157.064,17.056z"/>
		<path fill="#252224" d="M175.8,54.28c-2.597,0-4.922-0.278-6.988-0.815c-2.065-0.551-3.884-1.228-5.45-2.04
			c-1.568-0.815-2.917-1.737-4.014-2.758c-1.119-1.031-2.042-2.012-2.772-2.971l9.006-6.745c1.13,1.411,2.45,2.592,3.953,3.578
			c1.482,0.979,3.403,1.466,5.714,1.466c1.859,0,3.307-0.287,4.333-0.855c1.026-0.563,1.526-1.508,1.526-2.828
			c0-1.003-0.373-1.78-1.124-2.346c-0.747-0.572-1.891-1.118-3.438-1.607l-5.449-1.845c-1.685-0.543-3.232-1.22-4.632-2.043
			c-1.407-0.816-2.626-1.791-3.646-2.923c-1.028-1.132-1.82-2.44-2.398-3.916c-0.559-1.488-0.852-3.171-0.852-5.078
			c0-2.266,0.443-4.279,1.302-6c0.872-1.728,2.043-3.167,3.507-4.328c1.474-1.162,3.167-2.033,5.075-2.623
			c1.912-0.596,3.887-0.88,5.937-0.88c2.04,0,3.863,0.161,5.483,0.508c1.599,0.338,3.022,0.793,4.261,1.358
			c1.218,0.565,2.297,1.222,3.242,1.946c0.926,0.728,1.736,1.492,2.418,2.324l-7.095,7.418c-0.951-0.998-2.002-1.798-3.131-2.415
			c-1.138-0.625-2.64-0.919-4.496-0.919c-1.499,0-2.632,0.294-3.375,0.919c-0.754,0.617-1.131,1.375-1.131,2.286
			c0,0.902,0.273,1.607,0.78,2.102c0.532,0.5,1.369,0.934,2.491,1.301l6.133,2.047c2.321,0.767,4.279,1.618,5.866,2.552
			c1.589,0.926,2.863,1.987,3.813,3.133c0.962,1.166,1.654,2.431,2.077,3.82c0.438,1.387,0.656,2.896,0.656,4.533
			c0,2.141-0.348,4.1-1.026,5.889c-0.676,1.789-1.73,3.35-3.168,4.633c-1.436,1.296-3.27,2.308-5.489,3.028
			C181.477,53.914,178.835,54.28,175.8,54.28z"/>
	</g>
	<path fill="#FF3470" d="M115.298,21.986V9.388c-3.225-1.744-6.917-2.74-10.849-2.74c-13.048,0-23.335,10.92-23.335,23.853
		c0,12.876,10.343,23.853,23.335,23.853s23.336-10.977,23.336-23.853c0-2.983-0.551-5.859-1.551-8.514H115.298z M104.45,42.628
		c-6.732,0-12.125-5.4-12.125-12.128c0-6.779,5.341-12.124,12.125-12.124c6.78,0,12.126,5.345,12.126,12.124
		C116.576,37.228,111.175,42.628,104.45,42.628z"/>
</g>
</svg>
