<?xml version="1.0" encoding="utf-8"?>
<!-- Generator: Adobe Illustrator 16.0.0, SVG Export Plug-In . SVG Version: 6.00 Build 0)  -->
<!DOCTYPE svg PUBLIC "-//W3C//DTD SVG 1.1//EN" "http://www.w3.org/Graphics/SVG/1.1/DTD/svg11.dtd">
<svg version="1.1" id="Camada_1" xmlns="http://www.w3.org/2000/svg" xmlns:xlink="http://www.w3.org/1999/xlink" x="0px" y="0px"
	 width="512px" height="292px" viewBox="0 0 512 292" enable-background="new 0 0 512 292" xml:space="preserve">
<g>
	<g enable-background="new    ">
		<path fill="#252224" d="M92.135,132.432c0,1.106-0.376,1.955-1.127,2.543c-0.75,0.59-1.815,0.885-3.192,0.885h-1.768v4.726h-0.798
			v-11.44h2.801C90.773,129.146,92.135,130.241,92.135,132.432z M86.046,135.171h1.572c1.288,0,2.22-0.213,2.793-0.638
			c0.573-0.425,0.861-1.115,0.861-2.07c0-0.881-0.271-1.535-0.813-1.96c-0.543-0.425-1.383-0.637-2.52-0.637h-1.894V135.171z"/>
		<path fill="#252224" d="M95.421,135.601v4.985h-0.798v-11.44h2.723c1.418,0,2.466,0.262,3.146,0.787
			c0.678,0.524,1.017,1.313,1.017,2.367c0,0.767-0.203,1.413-0.607,1.94c-0.405,0.527-1.019,0.906-1.842,1.135l3.106,5.211h-0.955
			l-2.949-4.985H95.421z M95.421,134.912h2.183c0.966,0,1.714-0.215,2.245-0.645c0.533-0.431,0.799-1.066,0.799-1.906
			c0-0.871-0.261-1.505-0.783-1.901c-0.522-0.396-1.372-0.594-2.551-0.594h-1.894V134.912z"/>
		<path fill="#252224" d="M113.763,134.85c0,1.815-0.454,3.251-1.362,4.308c-0.907,1.056-2.16,1.584-3.755,1.584
			c-1.592,0-2.841-0.528-3.749-1.584c-0.907-1.057-1.362-2.499-1.362-4.324c0-1.821,0.458-3.253,1.374-4.299
			s2.166-1.569,3.751-1.569c1.596,0,2.846,0.525,3.749,1.576C113.312,131.594,113.763,133.03,113.763,134.85z M104.403,134.85
			c0,1.638,0.366,2.905,1.096,3.799c0.731,0.895,1.779,1.342,3.146,1.342c1.377,0,2.429-0.443,3.157-1.33
			c0.728-0.887,1.092-2.157,1.092-3.811c0-1.649-0.364-2.913-1.092-3.791c-0.728-0.879-1.774-1.319-3.142-1.319
			c-1.361,0-2.412,0.442-3.149,1.33C104.773,131.957,104.403,133.217,104.403,134.85z"/>
		<path fill="#252224" d="M120.891,134.819h4.219v5.22c-1.106,0.469-2.351,0.704-3.732,0.704c-1.806,0-3.188-0.51-4.151-1.53
			c-0.962-1.019-1.444-2.463-1.444-4.331c0-1.163,0.239-2.195,0.716-3.094c0.477-0.901,1.161-1.596,2.049-2.086
			c0.89-0.49,1.911-0.735,3.063-0.735c1.248,0,2.366,0.229,3.358,0.688l-0.32,0.72c-0.992-0.459-2.02-0.688-3.083-0.688
			c-1.508,0-2.703,0.465-3.588,1.396c-0.883,0.931-1.326,2.188-1.326,3.769c0,1.722,0.42,3.017,1.26,3.885
			c0.84,0.869,2.074,1.303,3.701,1.303c1.054,0,1.948-0.148,2.685-0.445v-4.022h-3.404v-0.752H120.891z"/>
		<path fill="#252224" d="M128.779,135.601v4.985h-0.798v-11.44h2.723c1.418,0,2.466,0.262,3.145,0.787
			c0.679,0.524,1.018,1.313,1.018,2.367c0,0.767-0.203,1.413-0.606,1.94c-0.405,0.527-1.02,0.906-1.843,1.135l3.106,5.211h-0.955
			l-2.95-4.985H128.779z M128.779,134.912h2.183c0.966,0,1.714-0.215,2.246-0.645c0.532-0.431,0.798-1.066,0.798-1.906
			c0-0.871-0.261-1.505-0.783-1.901c-0.522-0.396-1.372-0.594-2.55-0.594h-1.894V134.912L128.779,134.912z"/>
		<path fill="#252224" d="M143.014,136.548h-4.648l-1.597,4.038h-0.884l4.601-11.488h0.509l4.507,11.488h-0.9L143.014,136.548z
			 M138.655,135.829h4.093l-1.558-4.124c-0.13-0.324-0.286-0.773-0.469-1.347c-0.141,0.501-0.294,0.956-0.461,1.362L138.655,135.829
			z"/>
		<path fill="#252224" d="M152.152,140.586l-4.264-10.565h-0.063c0.042,0.647,0.063,1.31,0.063,1.988v8.577h-0.767v-11.44h1.237
			l4.053,10.063h0.046l4.054-10.063h1.205v11.44h-0.806v-8.67c0-0.605,0.031-1.231,0.094-1.878h-0.063l-4.28,10.548H152.152z"/>
		<path fill="#252224" d="M166.457,136.548h-4.648l-1.596,4.038h-0.885l4.601-11.488h0.508l4.507,11.488h-0.899L166.457,136.548z
			 M162.099,135.829h4.093l-1.557-4.124c-0.13-0.324-0.287-0.773-0.47-1.347c-0.141,0.501-0.295,0.956-0.462,1.362L162.099,135.829z
			"/>
		<path fill="#252224" d="M183.414,134.756c0,1.92-0.504,3.371-1.51,4.354c-1.007,0.983-2.486,1.475-4.437,1.475h-2.739v-11.44
			h3.091c1.826,0,3.215,0.477,4.167,1.433C182.938,131.532,183.414,132.926,183.414,134.756z M182.546,134.787
			c0-1.638-0.417-2.871-1.248-3.697c-0.833-0.827-2.054-1.241-3.666-1.241h-2.105v10.032h1.894
			C180.837,139.881,182.546,138.184,182.546,134.787z"/>
		<path fill="#252224" d="M192.296,140.586h-6.251v-11.44h6.251v0.735h-5.453v4.328h5.148v0.735h-5.148v4.907h5.453V140.586
			L192.296,140.586z"/>
		<path fill="#252224" d="M199.848,140.586h-0.798v-11.44h6.268v0.735h-5.47v4.852h5.165v0.744h-5.165V140.586L199.848,140.586z"/>
		<path fill="#252224" d="M216.711,134.85c0,1.815-0.454,3.251-1.361,4.308c-0.908,1.056-2.16,1.584-3.756,1.584
			c-1.591,0-2.84-0.528-3.748-1.584c-0.907-1.057-1.361-2.499-1.361-4.324c0-1.821,0.457-3.253,1.373-4.299
			c0.916-1.046,2.166-1.569,3.752-1.569c1.596,0,2.845,0.525,3.748,1.576C216.26,131.594,216.711,133.03,216.711,134.85z
			 M207.352,134.85c0,1.638,0.366,2.905,1.096,3.799c0.73,0.895,1.779,1.342,3.145,1.342c1.377,0,2.43-0.443,3.157-1.33
			c0.728-0.887,1.092-2.157,1.092-3.811c0-1.649-0.364-2.913-1.092-3.791c-0.727-0.879-1.774-1.319-3.141-1.319
			c-1.362,0-2.412,0.442-3.149,1.33C207.72,131.957,207.352,133.217,207.352,134.85z"/>
		<path fill="#252224" d="M220.138,135.601v4.985h-0.798v-11.44h2.723c1.419,0,2.467,0.262,3.146,0.787
			c0.679,0.524,1.017,1.313,1.017,2.367c0,0.767-0.202,1.413-0.606,1.94c-0.405,0.527-1.02,0.906-1.843,1.135l3.106,5.211h-0.954
			l-2.95-4.985H220.138z M220.138,134.912h2.183c0.965,0,1.713-0.215,2.246-0.645c0.532-0.431,0.798-1.066,0.798-1.906
			c0-0.871-0.261-1.505-0.782-1.901c-0.522-0.396-1.373-0.594-2.551-0.594h-1.894V134.912L220.138,134.912z"/>
		<path fill="#252224" d="M233.895,140.586l-4.265-10.565h-0.063c0.042,0.647,0.063,1.31,0.063,1.988v8.577h-0.767v-11.44h1.236
			l4.054,10.063h0.047l4.054-10.063h1.206v11.44h-0.807v-8.67c0-0.605,0.032-1.231,0.094-1.878h-0.063l-4.28,10.548H233.895z"/>
		<path fill="#252224" d="M248.199,136.548h-4.648l-1.596,4.038h-0.884l4.601-11.488h0.509l4.507,11.488h-0.9L248.199,136.548z
			 M243.84,135.829h4.093l-1.557-4.124c-0.13-0.324-0.287-0.773-0.47-1.347c-0.141,0.501-0.294,0.956-0.461,1.362L243.84,135.829z"
			/>
		<path fill="#252224" d="M257.189,129.701c-1.434,0-2.563,0.459-3.389,1.376c-0.823,0.917-1.236,2.176-1.236,3.771
			c0,1.632,0.388,2.901,1.166,3.803c0.776,0.903,1.889,1.354,3.333,1.354c0.959,0,1.842-0.123,2.646-0.367v0.704
			c-0.757,0.266-1.701,0.399-2.832,0.399c-1.608,0-2.873-0.52-3.796-1.557c-0.923-1.039-1.386-2.489-1.386-4.351
			c0-1.163,0.22-2.189,0.662-3.076c0.44-0.887,1.075-1.57,1.901-2.055c0.828-0.482,1.788-0.723,2.883-0.723
			c1.117,0,2.116,0.208,2.996,0.626l-0.321,0.719C258.983,129.91,258.106,129.701,257.189,129.701z M257.816,142.863
			c0,0.521-0.177,0.914-0.529,1.177c-0.351,0.264-0.842,0.396-1.475,0.396c-0.355,0-0.6-0.028-0.735-0.086v-0.688
			c0.157,0.052,0.396,0.078,0.72,0.078c0.407,0,0.717-0.073,0.931-0.22s0.321-0.354,0.321-0.626c0-0.491-0.504-0.806-1.51-0.948
			l0.728-1.361h0.75l-0.517,0.917C257.377,141.695,257.816,142.148,257.816,142.863z"/>
		<path fill="#252224" d="M267.77,136.548h-4.648l-1.597,4.038h-0.885l4.602-11.488h0.509l4.508,11.488h-0.899L267.77,136.548z
			 M266.775,128.215c-0.187,0-0.384-0.049-0.586-0.145c-0.205-0.097-0.468-0.283-0.791-0.56c-0.168-0.136-0.331-0.255-0.489-0.36
			c-0.158-0.104-0.322-0.156-0.488-0.156c-0.236,0-0.431,0.09-0.588,0.269c-0.157,0.181-0.282,0.497-0.376,0.952h-0.572
			c0.054-0.58,0.218-1.035,0.494-1.365c0.275-0.332,0.632-0.497,1.07-0.497c0.252,0,0.481,0.064,0.69,0.196
			c0.208,0.13,0.423,0.283,0.642,0.461c0.177,0.146,0.349,0.276,0.515,0.391c0.168,0.114,0.327,0.172,0.478,0.172
			c0.24,0,0.441-0.096,0.602-0.286c0.163-0.189,0.288-0.503,0.377-0.935h0.594c-0.084,0.604-0.264,1.067-0.539,1.385
			C267.532,128.056,267.188,128.215,266.775,128.215z M263.409,135.829h4.095l-1.558-4.124c-0.132-0.324-0.287-0.773-0.47-1.347
			c-0.142,0.501-0.294,0.956-0.462,1.362L263.409,135.829z"/>
		<path fill="#252224" d="M281.495,134.85c0,1.815-0.453,3.251-1.363,4.308c-0.906,1.056-2.158,1.584-3.755,1.584
			c-1.592,0-2.841-0.528-3.748-1.584c-0.908-1.057-1.361-2.499-1.361-4.324c0-1.821,0.457-3.253,1.372-4.299
			c0.914-1.046,2.167-1.569,3.752-1.569c1.598,0,2.847,0.525,3.747,1.576C281.044,131.594,281.495,133.03,281.495,134.85z
			 M272.137,134.85c0,1.638,0.364,2.905,1.094,3.799c0.73,0.895,1.778,1.342,3.146,1.342c1.378,0,2.431-0.443,3.157-1.33
			c0.729-0.887,1.092-2.157,1.092-3.811c0-1.649-0.363-2.913-1.092-3.791c-0.727-0.879-1.773-1.319-3.142-1.319
			c-1.361,0-2.411,0.442-3.149,1.33C272.505,131.957,272.137,133.217,272.137,134.85z"/>
		<path fill="#252224" d="M294.602,137.636c0,0.956-0.351,1.711-1.053,2.27c-0.701,0.559-1.633,0.837-2.797,0.837
			c-1.398,0-2.47-0.153-3.217-0.462v-0.797c0.826,0.349,1.875,0.524,3.155,0.524c0.938,0,1.684-0.216,2.233-0.645
			c0.551-0.431,0.825-0.996,0.825-1.694c0-0.432-0.091-0.792-0.273-1.076c-0.183-0.285-0.479-0.544-0.892-0.778
			c-0.412-0.235-1.016-0.488-1.814-0.76c-1.17-0.401-1.975-0.835-2.422-1.303c-0.445-0.467-0.671-1.088-0.671-1.866
			c0-0.856,0.336-1.554,1.006-2.094c0.671-0.54,1.532-0.809,2.587-0.809c1.076,0,2.083,0.204,3.028,0.61l-0.289,0.688
			c-0.95-0.396-1.857-0.593-2.724-0.593c-0.844,0-1.52,0.195-2.019,0.587c-0.501,0.391-0.751,0.922-0.751,1.597
			c0,0.422,0.076,0.769,0.23,1.04c0.152,0.271,0.404,0.516,0.753,0.732c0.349,0.217,0.95,0.476,1.802,0.778
			c0.892,0.308,1.563,0.606,2.01,0.896c0.449,0.29,0.777,0.62,0.982,0.988C294.498,136.669,294.602,137.113,294.602,137.636z"/>
		<path fill="#252224" d="M306.637,134.85c0,1.815-0.453,3.251-1.361,4.308c-0.908,1.056-2.16,1.584-3.757,1.584
			c-1.592,0-2.84-0.528-3.748-1.584c-0.907-1.057-1.362-2.499-1.362-4.324c0-1.821,0.459-3.253,1.373-4.299
			c0.916-1.046,2.166-1.569,3.753-1.569c1.596,0,2.845,0.525,3.747,1.576C306.185,131.594,306.637,133.03,306.637,134.85z
			 M297.278,134.85c0,1.638,0.364,2.905,1.095,3.799c0.731,0.895,1.779,1.342,3.146,1.342c1.377,0,2.429-0.443,3.157-1.33
			s1.093-2.157,1.093-3.811c0-1.649-0.364-2.913-1.093-3.791c-0.728-0.879-1.773-1.319-3.141-1.319c-1.361,0-2.412,0.442-3.149,1.33
			C297.646,131.957,297.278,133.217,297.278,134.85z"/>
		<path fill="#252224" d="M314.297,140.586l-4.263-10.565h-0.063c0.042,0.647,0.063,1.31,0.063,1.988v8.577h-0.767v-11.44h1.236
			l4.054,10.063h0.047l4.053-10.063h1.206v11.44h-0.806v-8.67c0-0.605,0.03-1.231,0.094-1.878h-0.063l-4.279,10.548H314.297z"/>
		<path fill="#252224" d="M332.71,134.85c0,1.815-0.453,3.251-1.361,4.308c-0.909,1.056-2.159,1.584-3.757,1.584
			c-1.59,0-2.84-0.528-3.748-1.584c-0.907-1.057-1.362-2.499-1.362-4.324c0-1.821,0.458-3.253,1.373-4.299s2.166-1.569,3.752-1.569
			c1.598,0,2.847,0.525,3.748,1.576C332.26,131.594,332.71,133.03,332.71,134.85z M323.352,134.85c0,1.638,0.365,2.905,1.095,3.799
			c0.73,0.895,1.779,1.342,3.146,1.342c1.377,0,2.43-0.443,3.158-1.33c0.728-0.887,1.091-2.157,1.091-3.811
			c0-1.649-0.363-2.913-1.091-3.791c-0.728-0.879-1.773-1.319-3.143-1.319c-1.36,0-2.41,0.442-3.149,1.33
			C323.721,131.957,323.352,133.217,323.352,134.85z"/>
		<path fill="#252224" d="M341.654,137.636c0,0.956-0.352,1.711-1.053,2.27c-0.702,0.559-1.634,0.837-2.797,0.837
			c-1.398,0-2.47-0.153-3.217-0.462v-0.797c0.824,0.349,1.876,0.524,3.155,0.524c0.938,0,1.683-0.216,2.232-0.645
			c0.551-0.431,0.826-0.996,0.826-1.694c0-0.432-0.092-0.792-0.273-1.076c-0.185-0.285-0.479-0.544-0.893-0.778
			c-0.412-0.235-1.018-0.488-1.813-0.76c-1.169-0.401-1.978-0.835-2.424-1.303c-0.446-0.467-0.668-1.088-0.668-1.866
			c0-0.856,0.334-1.554,1.003-2.094c0.673-0.54,1.533-0.809,2.589-0.809c1.074,0,2.084,0.204,3.027,0.61l-0.289,0.688
			c-0.95-0.396-1.857-0.593-2.724-0.593c-0.844,0-1.519,0.195-2.018,0.587c-0.503,0.391-0.753,0.922-0.753,1.597
			c0,0.422,0.076,0.769,0.232,1.04c0.152,0.271,0.404,0.516,0.753,0.732c0.35,0.217,0.95,0.476,1.8,0.778
			c0.892,0.308,1.563,0.606,2.013,0.896c0.448,0.29,0.775,0.62,0.981,0.988C341.552,136.67,341.654,137.113,341.654,137.636z"/>
		<path fill="#252224" d="M354.487,140.586h-6.253v-11.44h6.253v0.735h-5.453v4.328h5.148v0.735h-5.148v4.907h5.453V140.586z"/>
		<path fill="#252224" d="M365.764,134.756c0,1.92-0.504,3.371-1.51,4.354c-1.008,0.983-2.486,1.475-4.438,1.475h-2.737v-11.44
			h3.091c1.825,0,3.215,0.477,4.167,1.433C365.287,131.532,365.764,132.926,365.764,134.756z M364.895,134.787
			c0-1.638-0.416-2.871-1.247-3.697c-0.833-0.827-2.056-1.241-3.666-1.241h-2.104v10.032h1.894
			C363.187,139.881,364.895,138.184,364.895,134.787z"/>
		<path fill="#252224" d="M376.804,129.146v7.402c0,1.314-0.38,2.342-1.143,3.083c-0.762,0.74-1.822,1.11-3.184,1.11
			c-1.326,0-2.359-0.371-3.103-1.115c-0.744-0.744-1.117-1.779-1.117-3.11v-7.371h0.807v7.402c0,1.101,0.307,1.958,0.916,2.57
			c0.611,0.613,1.476,0.919,2.59,0.919c1.09,0,1.936-0.303,2.535-0.905c0.6-0.602,0.9-1.438,0.9-2.507v-7.48L376.804,129.146
			L376.804,129.146z"/>
		<path fill="#252224" d="M384.803,129.701c-1.436,0-2.564,0.459-3.389,1.376s-1.236,2.176-1.236,3.771
			c0,1.632,0.387,2.901,1.165,3.803c0.778,0.903,1.89,1.354,3.333,1.354c0.96,0,1.841-0.123,2.646-0.367v0.704
			c-0.756,0.266-1.702,0.399-2.832,0.399c-1.607,0-2.872-0.52-3.796-1.557c-0.923-1.039-1.385-2.489-1.385-4.351
			c0-1.163,0.222-2.189,0.66-3.076c0.441-0.887,1.076-1.57,1.903-2.055c0.825-0.482,1.787-0.723,2.882-0.723
			c1.118,0,2.114,0.208,2.997,0.626l-0.321,0.719C386.597,129.91,385.72,129.701,384.803,129.701z"/>
		<path fill="#252224" d="M395.382,136.548h-4.648l-1.596,4.038h-0.885l4.602-11.488h0.508l4.509,11.488h-0.901L395.382,136.548z
			 M391.022,135.829h4.094l-1.557-4.124c-0.132-0.324-0.289-0.773-0.47-1.347c-0.142,0.501-0.296,0.956-0.462,1.362L391.022,135.829
			z"/>
		<path fill="#252224" d="M404.372,129.701c-1.436,0-2.563,0.459-3.389,1.376c-0.824,0.917-1.237,2.176-1.237,3.771
			c0,1.632,0.39,2.901,1.167,3.803c0.777,0.903,1.887,1.354,3.333,1.354c0.959,0,1.842-0.123,2.644-0.367v0.704
			c-0.756,0.266-1.699,0.399-2.832,0.399c-1.607,0-2.872-0.52-3.793-1.557c-0.926-1.039-1.386-2.489-1.386-4.351
			c0-1.163,0.22-2.189,0.661-3.076c0.441-0.887,1.073-1.57,1.9-2.055c0.827-0.482,1.787-0.723,2.884-0.723
			c1.116,0,2.114,0.208,2.997,0.626l-0.32,0.719C406.168,129.91,405.291,129.701,404.372,129.701z M404.998,142.863
			c0,0.521-0.176,0.914-0.529,1.177c-0.352,0.264-0.842,0.396-1.475,0.396c-0.354,0-0.6-0.028-0.734-0.086v-0.688
			c0.156,0.052,0.396,0.078,0.718,0.078c0.408,0,0.719-0.073,0.933-0.22c0.212-0.146,0.321-0.354,0.321-0.626
			c0-0.491-0.504-0.806-1.512-0.948l0.729-1.361h0.75l-0.515,0.917C404.561,141.695,404.998,142.148,404.998,142.863z"/>
		<path fill="#252224" d="M414.951,136.548h-4.647l-1.596,4.038h-0.885l4.601-11.488h0.51l4.506,11.488h-0.899L414.951,136.548z
			 M413.958,128.215c-0.188,0-0.385-0.049-0.588-0.145c-0.204-0.097-0.466-0.283-0.79-0.56c-0.166-0.136-0.329-0.255-0.49-0.36
			c-0.158-0.104-0.32-0.156-0.488-0.156c-0.234,0-0.43,0.09-0.586,0.269c-0.158,0.181-0.281,0.497-0.378,0.952h-0.571
			c0.055-0.58,0.219-1.035,0.493-1.365c0.277-0.332,0.635-0.497,1.074-0.497c0.251,0,0.479,0.064,0.688,0.196
			c0.207,0.13,0.422,0.283,0.64,0.461c0.179,0.146,0.35,0.276,0.517,0.391c0.168,0.114,0.326,0.172,0.478,0.172
			c0.24,0,0.441-0.096,0.604-0.286c0.159-0.189,0.286-0.503,0.374-0.935h0.596c-0.084,0.604-0.264,1.067-0.541,1.385
			C414.711,128.057,414.37,128.215,413.958,128.215z M410.593,135.829h4.094l-1.558-4.124c-0.13-0.324-0.286-0.773-0.469-1.347
			c-0.142,0.501-0.295,0.956-0.461,1.362L410.593,135.829z"/>
		<path fill="#252224" d="M428.677,134.85c0,1.815-0.453,3.251-1.359,4.308c-0.909,1.056-2.161,1.584-3.758,1.584
			c-1.591,0-2.839-0.528-3.75-1.584c-0.906-1.057-1.359-2.499-1.359-4.324c0-1.821,0.457-3.253,1.373-4.299
			c0.915-1.046,2.166-1.569,3.752-1.569c1.595,0,2.845,0.525,3.748,1.576C428.226,131.594,428.677,133.03,428.677,134.85z
			 M419.318,134.85c0,1.638,0.365,2.905,1.096,3.799c0.73,0.895,1.779,1.342,3.146,1.342c1.376,0,2.429-0.443,3.157-1.33
			c0.728-0.887,1.093-2.157,1.093-3.811c0-1.649-0.365-2.913-1.093-3.791c-0.728-0.879-1.774-1.319-3.141-1.319
			c-1.362,0-2.412,0.442-3.151,1.33C419.689,131.957,419.318,133.217,419.318,134.85z"/>
	</g>
	<g>
		<path fill="#252224" d="M144.916,55.45c0,11.454-4.093,19.264-12.266,23.438c-5.649,2.863-14.726,4.294-27.241,4.294v32.875
			H84.063V27.602h32.761c8.256,0,15.008,2.58,20.24,7.727C142.298,40.483,144.916,47.193,144.916,55.45z M123.812,55.45
			c0-2.612-0.816-4.764-2.468-6.438c-1.646-1.679-3.789-2.513-6.417-2.513h-9.518v17.782h9.518
			C120.849,64.281,123.812,61.339,123.812,55.45z"/>
		<path fill="#252224" d="M214.093,116.057h-23.298l-20.486-32.755v32.755h-21.348V27.602h32.756c8.263,0,15.013,2.58,20.247,7.736
			c5.234,5.155,7.85,11.865,7.85,20.129c0,6.057-1.557,11.457-4.673,16.209c-3.117,4.739-7.506,8.055-13.164,9.936L214.093,116.057z
			 M188.718,55.45c0-2.612-0.829-4.764-2.477-6.438c-1.649-1.679-3.789-2.513-6.422-2.513h-9.511v17.782h9.511
			C185.746,64.281,188.718,61.339,188.718,55.45z"/>
		<path fill="#252224" d="M359.979,46.499H334.22v15.828h24.412V81.22H334.22v34.837h-21.351V27.602h47.106L359.979,46.499
			L359.979,46.499z"/>
		<path fill="#252224" d="M395.277,116.631c-4.893,0-9.271-0.525-13.165-1.535c-3.893-1.037-7.318-2.314-10.271-3.844
			c-2.956-1.537-5.495-3.273-7.563-5.195c-2.109-1.945-3.851-3.792-5.227-5.6l16.972-12.705c2.126,2.657,4.613,4.884,7.443,6.74
			c2.795,1.845,6.414,2.761,10.769,2.761c3.505,0,6.229-0.541,8.163-1.612c1.935-1.061,2.878-2.839,2.878-5.327
			c0-1.888-0.704-3.356-2.119-4.42c-1.407-1.078-3.563-2.106-6.477-3.028l-10.271-3.476c-3.173-1.023-6.088-2.299-8.728-3.85
			c-2.65-1.537-4.944-3.374-6.865-5.507c-1.938-2.131-3.434-4.596-4.521-7.377c-1.052-2.803-1.604-5.974-1.604-9.567
			c0-4.269,0.835-8.063,2.452-11.305c1.644-3.255,3.848-5.967,6.606-8.154c2.774-2.189,5.964-3.83,9.562-4.94
			c3.604-1.124,7.321-1.659,11.187-1.659c3.842,0,7.277,0.303,10.331,0.956c3.012,0.637,5.692,1.494,8.026,2.559
			c2.294,1.066,4.329,2.302,6.107,3.667c1.744,1.372,3.271,2.813,4.558,4.38L410.159,52.57c-1.789-1.882-3.771-3.388-5.898-4.551
			c-2.141-1.179-4.973-1.731-8.469-1.731c-2.824,0-4.959,0.553-6.359,1.731c-1.422,1.163-2.13,2.589-2.13,4.305
			c0,1.702,0.516,3.029,1.473,3.961c1.002,0.942,2.576,1.758,4.689,2.45l11.555,3.857c4.372,1.443,8.063,3.048,11.055,4.809
			c2.992,1.742,5.396,3.743,7.182,5.899c1.813,2.198,3.117,4.583,3.916,7.199c0.823,2.614,1.236,5.455,1.236,8.543
			c0,4.032-0.655,7.723-1.937,11.091c-1.271,3.374-3.262,6.312-5.968,8.731c-2.705,2.441-6.16,4.348-10.345,5.705
			C405.972,115.943,400.995,116.631,395.277,116.631z"/>
	</g>
	<path fill="#FF3470" d="M281.288,55.787V32.052c-6.076-3.286-13.033-5.163-20.438-5.163c-24.583,0-43.967,20.574-43.967,44.938
		c0,24.261,19.487,44.94,43.967,44.94c24.479,0,43.969-20.682,43.969-44.94c0-5.618-1.038-11.037-2.924-16.04H281.288z
		 M260.852,94.678c-12.685,0-22.846-10.175-22.846-22.851c0-12.77,10.063-22.842,22.846-22.842
		c12.773,0,22.844,10.072,22.844,22.842C283.695,84.503,273.52,94.678,260.852,94.678z"/>
</g>
<path fill="none" stroke="#FF3470" stroke-width="1.4" stroke-miterlimit="22.9256" d="M442.966,196.822c-8.596,0-16.798,0-27.732,0
	c-1.404,0-2.559,1.146-2.559,2.555v16.785c0,1.406,1.151,2.557,2.559,2.557h27.732c1.405,0,2.559-1.146,2.559-2.557v-16.785
	C445.521,197.971,444.371,196.822,442.966,196.822L442.966,196.822z M429.1,201.498c-3.465,0-6.271,2.809-6.271,6.273
	c0,3.463,2.807,6.27,6.271,6.27c3.466,0,6.271-2.807,6.271-6.27C435.369,204.307,432.563,201.498,429.1,201.498L429.1,201.498z
	 M435.893,193.882c3.125-4.754,9.156-7.133,15.683-7.133c8.965,0,16.998,4.487,17.84,13.463c0.438,4.687-0.612,15.771-2.942,19.965
	c-2.033,3.671-6.775,7.195-12.031,8.4c-2.548,0.375-3.183,0.375-5.728,0c-4.582-1.052-8.771-3.864-11.121-6.999 M413.426,197.572
	c-2.979,1.592-5.729,4.035-6.001,6.697l-4.75,43.285c-0.229,2.282,2.415,5.43,4.587,5.881l18.818,3.902
	c1.146,0.43,1.313,1.865,1.276,2.236l-0.351,19.398 M478.363,278.977l-0.351-19.397 M493.154,278.977l-3.306-34.625
	c-0.702-7.291-19.516-10.992-38.319-11.064c-12.652,0.051-18.811,1.146-30.896,2.063l-1.302-1.063l0.401-16.079"/>
<path fill="none" stroke="#FF3470" stroke-width="1.4" stroke-linejoin="bevel" stroke-miterlimit="22.9256" d="M105.586,253.788
	c0.191,2.185-0.27,7.358-1.292,9.317c-0.894,1.713-2.975,3.356-5.282,3.92c-1.021,0.16-1.495,0.16-2.515,0
	c-2.308-0.563-4.389-2.207-5.282-3.92c-1.023-1.959-1.483-7.133-1.292-9.317C90.667,245.386,104.842,245.386,105.586,253.788
	L105.586,253.788z M92.03,264.875l-8.06,2.934c-0.558,0.285-1.673,1.188-1.824,1.924l-1.617,10.354l-1.617-10.354
	c-0.15-0.733-1.266-1.639-1.824-1.924l-8.059-2.934 M114.98,280.087l-1.617-10.354c-0.15-0.733-1.267-1.639-1.823-1.924l-8.06-2.934
	 M71.135,253.788c0.192,2.185-0.269,7.358-1.292,9.317c-0.893,1.713-2.975,3.356-5.281,3.92c-1.021,0.16-1.495,0.16-2.516,0
	c-2.307-0.563-4.388-2.207-5.281-3.92c-1.023-1.959-1.484-7.133-1.292-9.317C56.218,245.386,70.392,245.386,71.135,253.788
	L71.135,253.788z M57.579,264.875l-8.059,2.934c-0.558,0.285-1.674,1.188-1.825,1.924l-1.616,10.354l-1.617-10.354
	c-0.15-0.733-1.267-1.639-1.824-1.924l-8.059-2.934 M36.685,253.788c0.191,2.185-0.269,7.358-1.292,9.317
	c-0.893,1.713-2.974,3.356-5.282,3.92c-1.02,0.16-1.495,0.16-2.515,0c-2.307-0.563-4.389-2.207-5.282-3.92
	c-1.022-1.959-1.483-7.133-1.292-9.317C21.767,245.386,35.941,245.386,36.685,253.788L36.685,253.788z M23.128,264.875l-8.06,2.934
	c-0.557,0.285-1.673,1.188-1.823,1.924l-1.618,10.354 M33.467,196.268c-0.672-4.482-4.709-6.729-9.063-6.729
	c-4.356,0-8.128,2.246-8.275,6.729c-0.076,2.344,0.76,7.883,2.015,9.979c1.097,1.837,3.505,3.599,6.095,4.201
	c1.247,0.187,1.555,0.187,2.781,0c2.52-0.603,4.721-2.364,5.602-4.201C33.631,204.15,33.817,198.609,33.467,196.268L33.467,196.268z
	 M11.977,254.251l-1.122-29.574c-0.196-5.739,2.752-12.637,8.575-13.936c4.061-0.903,13.926,0.565,16.239,3.118
	c3.139,3.471,4.594,8.613,6.684,12.548l13.087-1.744c3.359-0.448,3.87,7.131,0.418,7.874l-18.583,3.684l-6.721-10.748
	 M58.431,225.662l29.022-10.916 M37.007,191.834h72.153v49.654H42.067"/>
<path fill="none" stroke="#FF3470" stroke-width="1.4" stroke-miterlimit="22.9256" d="M181.021,228.76l-16.938,5.081
	c-1.172,0.498-3.517,2.062-3.833,3.336l-5.06,23.11c-0.461,1.859-1.141,4.933-0.69,7.445c0.46,2.596,5.559,6.896,8.493,9.521
	c0.675,0.696,2.35,1.05,3.586,1.094l6.478-0.013c1.398,0,2.44-0.665,2.44-2.202c0-2.475,0-4.947,0-7.427
	c0-0.854-0.581-1.813-1.288-2.136l-5.907-2.684l-1.094-20.109c-0.217-2.053,1.485-3.674,3.463-3.715l22.384,4.599l22.382-4.599
	c1.978,0.041,3.682,1.662,3.463,3.715l-1.096,20.109l-5.904,2.684c-0.708,0.318-1.289,1.279-1.289,2.136c0,2.479,0,4.952,0,7.427
	c0,1.537,1.042,2.202,2.44,2.202l6.479,0.013c1.236-0.044,2.912-0.396,3.586-1.094c2.934-2.628,8.032-6.929,8.494-9.521
	c0.448-2.516-0.229-5.586-0.692-7.445l-5.06-23.11c-0.316-1.274-2.663-2.838-3.833-3.336l-16.938-5.081 M193.429,193.218
	c7.181,0.13,13.543,4.034,14.222,11.71c0.358,4.076-0.5,13.719-2.406,17.369c-1.665,3.193-5.545,6.26-9.846,7.305
	c-1.901,0.305-2.786,0.305-4.688,0c-4.3-1.045-8.18-4.108-9.845-7.305c-1.907-3.65-2.766-13.293-2.408-17.369
	c0.682-7.681,7.052-11.583,14.237-11.71C192.94,193.215,193.183,193.215,193.429,193.218L193.429,193.218z M193.056,244.664v35.744"
	/>
<path fill="none" stroke="#FF3470" stroke-width="1.4" stroke-miterlimit="22.9256" d="M315.977,278.609
	c-0.438-4.34-0.854-6.887-2.348-9.279l-4.984-9.447c-0.832-1.578-0.775-1.484-1.141-3.416l-2.355-11.962
	c-0.434-2.301,1.085-4.519,3.387-4.948c2.302-0.431,4.517,1.088,4.948,3.391l2.215,7.525 M315.695,251.412v-15.258v-15.271
	c0-2.348,1.899-4.252,4.25-4.252c2.348,0,4.251,1.904,4.251,4.252v14.886c0,1.578,1.226,3.11,2.729,3.539l9.904,2.776
	c5.344,1.5,7.262,4.505,6.16,10.149l-1.826,11.195c-0.609,2.891-0.813,5.026-0.674,8.668l0.104,6.508 M315.695,227.732l-7.359,4.166
	c-0.918,0.5-1.99,0.645-2.934,0.104c-0.671-0.377-1.207-1.099-1.207-1.892v-29.09c0-0.793,0.536-1.515,1.207-1.895
	c0.938-0.533,2.035-0.391,2.953,0.116l25.107,14.221c1.858,1.054,1.858,3.147,0,4.199l-4.327,2.451l-1.684,0.95 M305.644,248.126
	h-25.427v-65.112h76.351v65.112H343.25"/>
<line fill="none" stroke="#FF3470" stroke-width="1.4" stroke-miterlimit="22.9256" x1="11.627" y1="280.087" x2="505" y2="280.087"/>
</svg>
