<?xml version="1.0" encoding="utf-8"?>
<!-- Generator: Adobe Illustrator 20.1.0, SVG Export Plug-In . SVG Version: 6.00 Build 0)  -->
<svg version="1.1" id="Camada_1" xmlns="http://www.w3.org/2000/svg" xmlns:xlink="http://www.w3.org/1999/xlink" x="0px" y="0px"
	 viewBox="2.1 0.1 25 25" style="enable-background:new 2.1 0.1 25 25;" xml:space="preserve">
<style type="text/css">
	.st0{fill:none;}
	.st1{fill:#E26161;}
	.st2{opacity:0.2;}
	.st3{fill:#231F20;}
	.st4{fill:#FFFFFF;}
	.st5{fill:#4D4D4D;}
	.st6{fill:#212930;}
	.st7{fill:#e4376e;}
	.st8{fill:#B4BEBF;}
</style>
<rect x="-171" y="99.7" class="st0" width="31.2" height="3.1"/>
<g>
	<g>
		<g>
			<path class="st1" d="M526.7,1685.2c0,11.8-9.7,21.9-21.5,21.9H125.7c-11.8,0-22.1-10.1-22.1-21.9v-42.9
				c0-11.8,10.2-21.2,22.1-21.2h379.4c11.8,0,21.5,9.4,21.5,21.2V1685.2z"/>
			<g>
				
					<text transform="matrix(1 0 0 1 211.2488 1677.167)" class="st4" style="font-family:'OpenSans-Semibold'; font-size:34.2965px;">Fórum</text>
			</g>
		</g>
	</g>
</g>
<g class="st2">
	<g>
		<g>
			<path class="st3" d="M151.2,1673c0,5.9,4.8,10.8,10.8,10.8h26.9c5.9,0,10.8-4.8,10.8-10.8v-16.4c0-5.9-4.8-10.8-10.8-10.8H162
				c-5.9,0-10.8,4.8-10.8,10.8V1673z"/>
		</g>
		<g>
			<path class="st3" d="M186.2,1645.8h2.7v2.7C188.9,1647,187.7,1645.8,186.2,1645.8z"/>
		</g>
		<g>
			<path class="st3" d="M180.8,1645.8c-1.5,0-2.7,1.2-2.7,2.7v-2.7H180.8z"/>
		</g>
		<g>
			<path class="st3" d="M180.8,1645.8h5.4c1.5,0,2.7,1.2,2.7,2.7v32.5v2.7v2.7v5.3c0,1.5-0.9,1.8-1.9,0.8l-3.5-3.4l-5.4-5.3v-2.7
				v-32.5C178.1,1647,179.4,1645.8,180.8,1645.8z"/>
		</g>
	</g>
	<g>
		<g>
			<path class="st3" d="M172.8,1667.5c0,5.9-4.8,10.8-10.8,10.8h-26.9c-5.9,0-10.8-4.8-10.8-10.8v-16.4c0-5.9,4.8-10.8,10.8-10.8
				H162c5.9,0,10.8,4.8,10.8,10.8V1667.5z"/>
		</g>
		<g>
			<path class="st3" d="M137.8,1640.4h-2.7v2.7C135.1,1641.6,136.3,1640.4,137.8,1640.4z"/>
		</g>
		<g>
			<path class="st3" d="M143.1,1640.4c1.5,0,2.7,1.2,2.7,2.7v-2.7H143.1z"/>
		</g>
		<g>
			<path class="st3" d="M143.1,1640.4h-5.4c-1.5,0-2.7,1.2-2.7,2.7v32.5v2.7v2.7v5.3c0,1.5,0.9,1.8,1.9,0.8l3.5-3.4l5.4-5.3v-2.7
				v-32.5C145.8,1641.6,144.6,1640.4,143.1,1640.4z"/>
		</g>
	</g>
	<g>
		<circle class="st3" cx="137.8" cy="1659.2" r="2.7"/>
		<circle class="st3" cx="148.5" cy="1659.2" r="2.7"/>
		<circle class="st3" cx="159.3" cy="1659.2" r="2.7"/>
	</g>
</g>
<g>
	<g>
		<g>
			<path class="st4" d="M149.2,1671c0,5.9,4.8,10.8,10.8,10.8h26.9c5.9,0,10.8-4.8,10.8-10.8v-16.4c0-5.9-4.8-10.8-10.8-10.8H160
				c-5.9,0-10.8,4.8-10.8,10.8V1671z"/>
		</g>
		<g>
			<path class="st4" d="M184.2,1643.8h2.7v2.7C186.9,1645,185.7,1643.8,184.2,1643.8z"/>
		</g>
		<g>
			<path class="st4" d="M178.8,1643.8c-1.5,0-2.7,1.2-2.7,2.7v-2.7H178.8z"/>
		</g>
		<g>
			<path class="st4" d="M178.8,1643.8h5.4c1.5,0,2.7,1.2,2.7,2.7v32.5v2.7v2.7v5.3c0,1.5-0.9,1.8-1.9,0.8l-3.5-3.4l-5.4-5.3v-2.7
				v-32.5C176.1,1645,177.4,1643.8,178.8,1643.8z"/>
		</g>
	</g>
	<g>
		<g>
			<path class="st5" d="M170.8,1665.5c0,5.9-4.8,10.8-10.8,10.8h-26.9c-5.9,0-10.8-4.8-10.8-10.8v-16.4c0-5.9,4.8-10.8,10.8-10.8
				H160c5.9,0,10.8,4.8,10.8,10.8V1665.5z"/>
		</g>
		<g>
			<path class="st5" d="M135.8,1638.4h-2.7v2.7C133.1,1639.6,134.3,1638.4,135.8,1638.4z"/>
		</g>
		<g>
			<path class="st5" d="M141.1,1638.4c1.5,0,2.7,1.2,2.7,2.7v-2.7H141.1z"/>
		</g>
		<g>
			<path class="st5" d="M141.1,1638.4h-5.4c-1.5,0-2.7,1.2-2.7,2.7v32.5v2.7v2.7v5.3c0,1.5,0.9,1.8,1.9,0.8l3.5-3.4l5.4-5.3v-2.7
				v-32.5C143.8,1639.6,142.6,1638.4,141.1,1638.4z"/>
		</g>
	</g>
	<g>
		<circle class="st4" cx="135.8" cy="1657.2" r="2.7"/>
		<circle class="st4" cx="146.5" cy="1657.2" r="2.7"/>
		<circle class="st4" cx="157.3" cy="1657.2" r="2.7"/>
	</g>
</g>
<g>
	<g>
		<path class="st4" d="M5.5,17.6v1.6c0,0.3,0.3,0.6,0.6,0.6h17.5c0.3,0,0.5-0.3,0.5-0.6v-1.6H5.5z"/>
		<path class="st6" d="M23.6,20.2H6.1c-0.5,0-1-0.5-1-1v-2h19.4v2C24.4,19.6,24.1,20.2,23.6,20.2z M5.9,18v1.2
			c0,0.1,0.1,0.2,0.2,0.2h17.5c0,0,0.1-0.1,0.1-0.2V18H5.9z"/>
	</g>
	<g>
		<path class="st4" d="M12.7,19.8c0,0.4,0,1.3,0,1.7c-0.1,0.4-0.1,0.4-0.3,0.5c-0.1,0.1-0.3,0.2-0.5,0.2l0,0"/>
		<path class="st6" d="M12,22.6l-0.3-0.7c0.2-0.1,0.4-0.2,0.4-0.2l0,0c0,0,0,0,0.1,0c0,0,0-0.1,0-0.2c0-0.2,0-0.6,0-1
			c0-0.3,0-0.5,0-0.7l0.8,0.1c0,0.1,0,0.4,0,0.6c0,0.4,0,0.8,0,1.1c-0.1,0.5-0.2,0.6-0.5,0.8l0,0C12.4,22.4,12.1,22.5,12,22.6z"/>
	</g>
	<g>
		<path class="st4" d="M17.7,22.2c-0.2-0.1-0.4-0.2-0.5-0.2c-0.2-0.1-0.2-0.1-0.3-0.5c-0.1-0.4,0-1.3,0-1.7"/>
		<path class="st6" d="M17.5,22.6c-0.2-0.1-0.4-0.2-0.5-0.2l0,0c-0.3-0.2-0.4-0.3-0.5-0.8c-0.1-0.3-0.1-0.7,0-1.1c0-0.2,0-0.4,0-0.6
			l0.8-0.1c0,0.2,0,0.4,0,0.7c0,0.3,0,0.7,0,1c0,0.1,0,0.2,0,0.2c0,0,0,0,0.1,0c0.1,0.1,0.3,0.1,0.5,0.2L17.5,22.6z"/>
	</g>
	<g>
		<line class="st4" x1="11.3" y1="22.2" x2="18.2" y2="22.2"/>
		<rect x="11.3" y="21.8" class="st6" width="6.9" height="0.8"/>
	</g>
	<g>
		<path class="st4" d="M7.8,6.2H6c-0.3,0-0.5,0.2-0.5,0.5v10.9H24V6.7c0-0.3-0.2-0.5-0.5-0.5h-1.8"/>
		<path class="st6" d="M24.4,18H5.1V6.7c0-0.5,0.4-0.9,0.9-0.9h1.8v0.8H6c-0.1,0-0.1,0.1-0.1,0.1v10.5h17.8V6.7
			c0-0.1-0.1-0.1-0.1-0.1h-1.8V5.8h1.8c0.5,0,0.9,0.4,0.9,0.9V18z"/>
	</g>
	<g>
		<rect x="6.9" y="7.7" class="st7" width="2.3" height="8.4"/>
		<rect x="20.3" y="7.7" class="st7" width="2.3" height="8.4"/>
	</g>
	<g>
		<g>
			<rect x="20.1" y="5.9" class="st6" width="0.8" height="10.2"/>
		</g>
		<g>
			<polygon class="st6" points="9.4,16.1 8.6,16.1 8.6,2.1 17.3,2.1 17.3,2.9 9.4,2.9 			"/>
		</g>
		<g>
			<polygon class="st8" points="17.9,5.1 20.9,5.1 17.9,2.1 			"/>
		</g>
		<g>
			<rect x="10.9" y="5.8" class="st6" width="4.3" height="0.8"/>
		</g>
		<g>
			<rect x="10.9" y="7.5" class="st6" width="7.4" height="0.8"/>
		</g>
		<g>
			<rect x="10.9" y="9.2" class="st6" width="7.4" height="0.8"/>
		</g>
		<g>
			<rect x="10.9" y="11" class="st6" width="7.4" height="0.8"/>
		</g>
		<g>
			<rect x="10.9" y="12.7" class="st6" width="7.4" height="0.8"/>
		</g>
		<g>
			<rect x="10.9" y="14.4" class="st6" width="7.4" height="0.8"/>
		</g>
	</g>
</g>
</svg>
