<?xml version="1.0" encoding="utf-8"?>
<!-- Generator: Adobe Illustrator 20.1.0, SVG Export Plug-In . SVG Version: 6.00 Build 0)  -->
<svg version="1.1" id="Camada_1" xmlns="http://www.w3.org/2000/svg" xmlns:xlink="http://www.w3.org/1999/xlink" x="0px" y="0px"
	 viewBox="2.1 0.1 25 25" style="enable-background:new 2.1 0.1 25 25;" xml:space="preserve">
<style type="text/css">
	.st0{fill:none;}
	.st1{fill:#E26161;}
	.st2{opacity:0.2;}
	.st3{fill:#231F20;}
	.st4{fill:#FFFFFF;}
	.st5{fill:#4D4D4D;}
	.st6{fill:#212930;}
	.st7{fill:#e4376e;}
	.st8{fill:#AAB4B5;}
</style>
<rect x="-171" y="99.7" class="st0" width="31.2" height="3.1"/>
<g>
	<g>
		<g>
			<path class="st1" d="M526.7,1685.2c0,11.8-9.7,21.9-21.5,21.9H125.7c-11.8,0-22.1-10.1-22.1-21.9v-42.9
				c0-11.8,10.2-21.2,22.1-21.2h379.4c11.8,0,21.5,9.4,21.5,21.2V1685.2z"/>
			<g>
				
					<text transform="matrix(1 0 0 1 211.2488 1677.167)" class="st4" style="font-family:'OpenSans-Semibold'; font-size:34.2965px;">Fórum</text>
			</g>
		</g>
	</g>
</g>
<g class="st2">
	<g>
		<g>
			<path class="st3" d="M151.2,1673c0,5.9,4.8,10.8,10.8,10.8h26.9c5.9,0,10.8-4.8,10.8-10.8v-16.4c0-5.9-4.8-10.8-10.8-10.8H162
				c-5.9,0-10.8,4.8-10.8,10.8V1673z"/>
		</g>
		<g>
			<path class="st3" d="M186.2,1645.8h2.7v2.7C188.9,1647,187.7,1645.8,186.2,1645.8z"/>
		</g>
		<g>
			<path class="st3" d="M180.8,1645.8c-1.5,0-2.7,1.2-2.7,2.7v-2.7H180.8z"/>
		</g>
		<g>
			<path class="st3" d="M180.8,1645.8h5.4c1.5,0,2.7,1.2,2.7,2.7v32.5v2.7v2.7v5.3c0,1.5-0.9,1.8-1.9,0.8l-3.5-3.4l-5.4-5.3v-2.7
				v-32.5C178.1,1647,179.4,1645.8,180.8,1645.8z"/>
		</g>
	</g>
	<g>
		<g>
			<path class="st3" d="M172.8,1667.5c0,5.9-4.8,10.8-10.8,10.8h-26.9c-5.9,0-10.8-4.8-10.8-10.8v-16.4c0-5.9,4.8-10.8,10.8-10.8
				H162c5.9,0,10.8,4.8,10.8,10.8V1667.5z"/>
		</g>
		<g>
			<path class="st3" d="M137.8,1640.4h-2.7v2.7C135.1,1641.6,136.3,1640.4,137.8,1640.4z"/>
		</g>
		<g>
			<path class="st3" d="M143.1,1640.4c1.5,0,2.7,1.2,2.7,2.7v-2.7H143.1z"/>
		</g>
		<g>
			<path class="st3" d="M143.1,1640.4h-5.4c-1.5,0-2.7,1.2-2.7,2.7v32.5v2.7v2.7v5.3c0,1.5,0.9,1.8,1.9,0.8l3.5-3.4l5.4-5.3v-2.7
				v-32.5C145.8,1641.6,144.6,1640.4,143.1,1640.4z"/>
		</g>
	</g>
	<g>
		<circle class="st3" cx="137.8" cy="1659.2" r="2.7"/>
		<circle class="st3" cx="148.5" cy="1659.2" r="2.7"/>
		<circle class="st3" cx="159.3" cy="1659.2" r="2.7"/>
	</g>
</g>
<g>
	<g>
		<g>
			<path class="st4" d="M149.2,1671c0,5.9,4.8,10.8,10.8,10.8h26.9c5.9,0,10.8-4.8,10.8-10.8v-16.4c0-5.9-4.8-10.8-10.8-10.8H160
				c-5.9,0-10.8,4.8-10.8,10.8V1671z"/>
		</g>
		<g>
			<path class="st4" d="M184.2,1643.8h2.7v2.7C186.9,1645,185.7,1643.8,184.2,1643.8z"/>
		</g>
		<g>
			<path class="st4" d="M178.8,1643.8c-1.5,0-2.7,1.2-2.7,2.7v-2.7H178.8z"/>
		</g>
		<g>
			<path class="st4" d="M178.8,1643.8h5.4c1.5,0,2.7,1.2,2.7,2.7v32.5v2.7v2.7v5.3c0,1.5-0.9,1.8-1.9,0.8l-3.5-3.4l-5.4-5.3v-2.7
				v-32.5C176.1,1645,177.4,1643.8,178.8,1643.8z"/>
		</g>
	</g>
	<g>
		<g>
			<path class="st5" d="M170.8,1665.5c0,5.9-4.8,10.8-10.8,10.8h-26.9c-5.9,0-10.8-4.8-10.8-10.8v-16.4c0-5.9,4.8-10.8,10.8-10.8
				H160c5.9,0,10.8,4.8,10.8,10.8V1665.5z"/>
		</g>
		<g>
			<path class="st5" d="M135.8,1638.4h-2.7v2.7C133.1,1639.6,134.3,1638.4,135.8,1638.4z"/>
		</g>
		<g>
			<path class="st5" d="M141.1,1638.4c1.5,0,2.7,1.2,2.7,2.7v-2.7H141.1z"/>
		</g>
		<g>
			<path class="st5" d="M141.1,1638.4h-5.4c-1.5,0-2.7,1.2-2.7,2.7v32.5v2.7v2.7v5.3c0,1.5,0.9,1.8,1.9,0.8l3.5-3.4l5.4-5.3v-2.7
				v-32.5C143.8,1639.6,142.6,1638.4,141.1,1638.4z"/>
		</g>
	</g>
	<g>
		<circle class="st4" cx="135.8" cy="1657.2" r="2.7"/>
		<circle class="st4" cx="146.5" cy="1657.2" r="2.7"/>
		<circle class="st4" cx="157.3" cy="1657.2" r="2.7"/>
	</g>
</g>
<g>
	<g>
		<g>
			<path class="st4" d="M15.6,20H9c-0.4,0-0.7-0.3-0.7-0.7V3.8c0-0.4,0.3-0.7,0.7-0.7H20c0.4,0,0.7,0.3,0.7,0.7V13"/>
			<path class="st6" d="M15.6,20.3H9c-0.6,0-1-0.5-1-1V3.8c0-0.6,0.5-1,1-1H20c0.6,0,1,0.5,1,1V13h-0.8V3.8c0-0.1-0.1-0.3-0.3-0.3H9
				c-0.1,0-0.3,0.1-0.3,0.3v15.5c0,0.1,0.1,0.3,0.3,0.3h6.6V20.3z"/>
		</g>
		<rect x="9.3" y="5" class="st7" width="10.4" height="13.5"/>
		<g>
			<line class="st4" x1="15" y1="4.2" x2="14" y2="4.2"/>
			<rect x="14" y="3.8" class="st6" width="1" height="0.8"/>
		</g>
	</g>
	<g>
		<path class="st4" d="M22.6,22.4v-1c0.5-0.4,0.8-1,0.8-1.7v-3.6l0-0.8c0-0.4-0.3-0.8-0.8-0.8s-0.8,0.2-0.8,0.6V15
			c0-0.4-0.3-0.8-0.8-0.8c-0.4,0-0.8,0.3-0.8,0.8v-0.4c0-0.4-0.3-0.8-0.8-0.8c-0.4,0-0.8,0.3-0.8,0.8V15c0-1,0-4.4,0-4.4
			c0-0.4-0.4-0.8-0.8-0.8c-0.4,0-0.8,0.4-0.8,0.8l0,7.8l0-0.4v-1.6c0-0.7-0.5-1.2-1.2-1.2h-0.4c0,0,0,0,0,0v1.5c0,0,0,0,0,0v2
			l2.2,2.7c0,0,0.6,0.4,0.9,0.5v0.6"/>
		<path class="st6" d="M23,22.4h-0.8v-1.2l0.2-0.1c0.4-0.3,0.7-0.8,0.7-1.3v-3.6l0-0.8c0-0.2-0.2-0.4-0.4-0.4
			c-0.4,0-0.4,0.1-0.4,0.2l0,0h-0.8V15c0-0.2-0.2-0.4-0.4-0.4c-0.2,0-0.4,0.2-0.4,0.4H20v-0.4c0-0.2-0.2-0.4-0.4-0.4
			s-0.4,0.2-0.4,0.4V15c0,0,0,0,0,0h-0.8c0-1,0-4.4,0-4.4c0-0.2-0.2-0.4-0.4-0.4c-0.2,0-0.4,0.2-0.4,0.4l0,7.8l-0.8,0l0-0.4l0-1.6
			c0-0.4-0.3-0.8-0.8-0.8v1l0,0.3l0,0v1.5l2.1,2.5c0.2,0.1,0.6,0.3,0.8,0.4l0.3,0.1v1h-0.8v-0.4c-0.3-0.1-0.7-0.4-0.8-0.4l-0.1,0
			l-2.4-2.8v-2.1l0-0.3l0,0v-0.8l0,0l0-0.5v-0.3l0,0l0,0H16c0.3,0,0.6,0.1,0.8,0.2l0-4.5c0-0.7,0.5-1.2,1.2-1.2
			c0.7,0,1.2,0.5,1.2,1.2l0,0c0,0,0,1.6,0,2.9c0.1,0,0.2-0.1,0.4-0.1c0.4,0,0.8,0.2,1,0.5c0.2-0.1,0.4-0.1,0.6-0.1
			c0.4,0,0.7,0.2,0.9,0.5c0.2-0.1,0.4-0.1,0.6-0.1c0.6,0,1.2,0.5,1.2,1.2l0,0.8l0,3.6c0,0.7-0.3,1.4-0.8,1.8V22.4z"/>
	</g>
	<g>
		<g>
			<path class="st4" d="M7.8,12.1L7.8,12.1l2.6,0c0,0,0,0,0,0.1l0,0.4c0,0.7-0.6,1.3-1.3,1.3l-0.3,0l-0.4,1.2
				c0.8,0.6,1.4,1.8,1.4,3.1c0,1-0.3,1.9-0.9,2.6H6.6v-6.1L7.8,12.1z"/>
			<path class="st6" d="M9.1,21.2H6.2v-6.5l1.3-3l3.2,0l0,0.4c0,0,0,0.1,0,0.1l0,0.4c0,0.9-0.8,1.7-1.7,1.7l0,0L8.8,15
				c0.8,0.7,1.3,1.9,1.3,3.2c0,1.1-0.3,2.1-0.9,2.8L9.1,21.2z M7,20.4h1.7c0.4-0.6,0.7-1.4,0.7-2.2c0-1.2-0.5-2.2-1.2-2.8l-0.2-0.2
				l0.6-1.8l0.6,0c0.5,0,0.9-0.4,0.9-0.9l0-0.1l-2,0l-1,2.3V20.4z"/>
		</g>
	</g>
	<polyline class="st8" points="11.7,22.4 11.7,20.4 5.6,20.4 5.6,22.4 	"/>
	<g>
		<path class="st6" d="M14,9.4h-3.9V5.8H14V9.4z M10.8,8.6h2.4v-2h-2.4V8.6z"/>
	</g>
	<g>
		<rect x="10" y="10.1" class="st6" width="6" height="0.8"/>
	</g>
	<g>
		<rect x="11.4" y="11.7" class="st6" width="4.6" height="0.8"/>
	</g>
	<g>
		<rect x="11.4" y="13.3" class="st6" width="4.6" height="0.8"/>
	</g>
	<g>
		<rect x="10" y="14.9" class="st6" width="4.5" height="0.8"/>
	</g>
</g>
</svg>
