<?xml version="1.0" encoding="utf-8"?>
<!-- Generator: Adobe Illustrator 20.1.0, SVG Export Plug-In . SVG Version: 6.00 Build 0)  -->
<svg version="1.1" id="Camada_1" xmlns="http://www.w3.org/2000/svg" xmlns:xlink="http://www.w3.org/1999/xlink" x="0px" y="0px"
	 viewBox="2.1 0.1 25 25" style="enable-background:new 2.1 0.1 25 25;" xml:space="preserve">
<style type="text/css">
	.st0{fill:none;}
	.st1{fill:#E26161;}
	.st2{opacity:0.2;}
	.st3{fill:#231F20;}
	.st4{fill:#FFFFFF;}
	.st5{fill:#4D4D4D;}
	.st6{fill:#212930;}
	.st7{fill:#e4376e;}
	.st8{fill:#AAB4B5;}
</style>
<rect x="-171" y="99.7" class="st0" width="31.2" height="3.1"/>
<g>
	<g>
		<g>
			<path class="st1" d="M526.7,1685.2c0,11.8-9.7,21.9-21.5,21.9H125.7c-11.8,0-22.1-10.1-22.1-21.9v-42.9
				c0-11.8,10.2-21.2,22.1-21.2h379.4c11.8,0,21.5,9.4,21.5,21.2V1685.2z"/>
			<g>
				
					<text transform="matrix(1 0 0 1 211.2488 1677.167)" class="st4" style="font-family:'OpenSans-Semibold'; font-size:34.2965px;">Fórum</text>
			</g>
		</g>
	</g>
</g>
<g class="st2">
	<g>
		<g>
			<path class="st3" d="M151.2,1673c0,5.9,4.8,10.8,10.8,10.8h26.9c5.9,0,10.8-4.8,10.8-10.8v-16.4c0-5.9-4.8-10.8-10.8-10.8H162
				c-5.9,0-10.8,4.8-10.8,10.8V1673z"/>
		</g>
		<g>
			<path class="st3" d="M186.2,1645.8h2.7v2.7C188.9,1647,187.7,1645.8,186.2,1645.8z"/>
		</g>
		<g>
			<path class="st3" d="M180.8,1645.8c-1.5,0-2.7,1.2-2.7,2.7v-2.7H180.8z"/>
		</g>
		<g>
			<path class="st3" d="M180.8,1645.8h5.4c1.5,0,2.7,1.2,2.7,2.7v32.5v2.7v2.7v5.3c0,1.5-0.9,1.8-1.9,0.8l-3.5-3.4l-5.4-5.3v-2.7
				v-32.5C178.1,1647,179.4,1645.8,180.8,1645.8z"/>
		</g>
	</g>
	<g>
		<g>
			<path class="st3" d="M172.8,1667.5c0,5.9-4.8,10.8-10.8,10.8h-26.9c-5.9,0-10.8-4.8-10.8-10.8v-16.4c0-5.9,4.8-10.8,10.8-10.8
				H162c5.9,0,10.8,4.8,10.8,10.8V1667.5z"/>
		</g>
		<g>
			<path class="st3" d="M137.8,1640.4h-2.7v2.7C135.1,1641.6,136.3,1640.4,137.8,1640.4z"/>
		</g>
		<g>
			<path class="st3" d="M143.1,1640.4c1.5,0,2.7,1.2,2.7,2.7v-2.7H143.1z"/>
		</g>
		<g>
			<path class="st3" d="M143.1,1640.4h-5.4c-1.5,0-2.7,1.2-2.7,2.7v32.5v2.7v2.7v5.3c0,1.5,0.9,1.8,1.9,0.8l3.5-3.4l5.4-5.3v-2.7
				v-32.5C145.8,1641.6,144.6,1640.4,143.1,1640.4z"/>
		</g>
	</g>
	<g>
		<circle class="st3" cx="137.8" cy="1659.2" r="2.7"/>
		<circle class="st3" cx="148.5" cy="1659.2" r="2.7"/>
		<circle class="st3" cx="159.3" cy="1659.2" r="2.7"/>
	</g>
</g>
<g>
	<g>
		<g>
			<path class="st4" d="M149.2,1671c0,5.9,4.8,10.8,10.8,10.8h26.9c5.9,0,10.8-4.8,10.8-10.8v-16.4c0-5.9-4.8-10.8-10.8-10.8H160
				c-5.9,0-10.8,4.8-10.8,10.8V1671z"/>
		</g>
		<g>
			<path class="st4" d="M184.2,1643.8h2.7v2.7C186.9,1645,185.7,1643.8,184.2,1643.8z"/>
		</g>
		<g>
			<path class="st4" d="M178.8,1643.8c-1.5,0-2.7,1.2-2.7,2.7v-2.7H178.8z"/>
		</g>
		<g>
			<path class="st4" d="M178.8,1643.8h5.4c1.5,0,2.7,1.2,2.7,2.7v32.5v2.7v2.7v5.3c0,1.5-0.9,1.8-1.9,0.8l-3.5-3.4l-5.4-5.3v-2.7
				v-32.5C176.1,1645,177.4,1643.8,178.8,1643.8z"/>
		</g>
	</g>
	<g>
		<g>
			<path class="st5" d="M170.8,1665.5c0,5.9-4.8,10.8-10.8,10.8h-26.9c-5.9,0-10.8-4.8-10.8-10.8v-16.4c0-5.9,4.8-10.8,10.8-10.8
				H160c5.9,0,10.8,4.8,10.8,10.8V1665.5z"/>
		</g>
		<g>
			<path class="st5" d="M135.8,1638.4h-2.7v2.7C133.1,1639.6,134.3,1638.4,135.8,1638.4z"/>
		</g>
		<g>
			<path class="st5" d="M141.1,1638.4c1.5,0,2.7,1.2,2.7,2.7v-2.7H141.1z"/>
		</g>
		<g>
			<path class="st5" d="M141.1,1638.4h-5.4c-1.5,0-2.7,1.2-2.7,2.7v32.5v2.7v2.7v5.3c0,1.5,0.9,1.8,1.9,0.8l3.5-3.4l5.4-5.3v-2.7
				v-32.5C143.8,1639.6,142.6,1638.4,141.1,1638.4z"/>
		</g>
	</g>
	<g>
		<circle class="st4" cx="135.8" cy="1657.2" r="2.7"/>
		<circle class="st4" cx="146.5" cy="1657.2" r="2.7"/>
		<circle class="st4" cx="157.3" cy="1657.2" r="2.7"/>
	</g>
</g>
<g>
	<g>
		<g>
			<g>
				<polygon class="st6" points="5.9,21.4 6.9,18.2 7.3,17.8 7.8,18.3 7.5,18.5 7,20.3 8.8,19.8 9,19.6 9.5,20.1 9.2,20.4 				"/>
			</g>
			<g>
				<rect x="6" y="11.8" transform="matrix(0.7071 -0.7071 0.7071 0.7071 -5.007 13.936)" class="st4" width="16.7" height="2.5"/>
				<path class="st6" d="M19.3,6.7L20.6,8L9.3,19.3L8,18L19.3,6.7 M19.3,5.7L7,18l2.3,2.3L21.6,8L19.3,5.7L19.3,5.7z"/>
			</g>
			<g>
				
					<rect x="6.2" y="12.5" transform="matrix(0.7071 -0.7071 0.7071 0.7071 -4.8483 14.0015)" class="st6" width="16.5" height="0.7"/>
			</g>
			<g>
				<path class="st4" d="M22.4,6.6l0.7-0.7c0.1-0.1,0.1-0.2,0-0.4l-1.4-1.4c-0.1-0.1-0.3-0.1-0.4,0l-0.7,0.7"/>
				<path class="st6" d="M22.7,6.9l-0.5-0.5l0.6-0.6l-1.2-1.2l-0.6,0.6l-0.5-0.5l0.7-0.7c0.1-0.1,0.2-0.2,0.4-0.2h0
					c0.2,0,0.3,0.1,0.5,0.2l1.4,1.4c0.2,0.2,0.3,0.6,0,0.9L22.7,6.9z"/>
			</g>
			<rect x="19.6" y="5.2" transform="matrix(0.7069 -0.7073 0.7073 0.7069 1.2324 16.5243)" class="st7" width="1.9" height="3.2"/>
		</g>
	</g>
	<g>
		<polygon class="st7" points="13.8,4.2 7,4.2 7,10 8.1,10 9.6,11.6 9.6,10 13.8,10 		"/>
	</g>
	<g>
		<polygon class="st8" points="16,21.3 22.7,21.3 22.7,15.5 21.7,15.5 20.1,14 20.1,15.5 16,15.5 		"/>
	</g>
	<g>
		<g>
			<path class="st6" d="M10.6,8.9C9.5,8.9,8.7,8,8.7,6.9S9.5,5,10.6,5s1.9,0.9,1.9,1.9S11.7,8.9,10.6,8.9z M10.6,5.7
				c-0.7,0-1.2,0.5-1.2,1.2c0,0.7,0.5,1.2,1.2,1.2c0.7,0,1.2-0.5,1.2-1.2C11.8,6.2,11.3,5.7,10.6,5.7z"/>
		</g>
		<g>
			<rect x="11.3" y="7.4" transform="matrix(0.707 -0.7072 0.7072 0.707 -2.2774 10.6234)" class="st6" width="0.7" height="1.4"/>
		</g>
	</g>
	<g>
		<path class="st6" d="M17.9,20.2l-0.6-0.4l1.9-3.2c0.1-0.1,0.2-0.2,0.3-0.2c0.1,0,0.2,0.1,0.3,0.2l1.9,3.2L21,20.2l-1.6-2.7
			L17.9,20.2z"/>
	</g>
	<g>
		<rect x="18.1" y="18.8" class="st6" width="2.6" height="0.7"/>
	</g>
</g>
</svg>
