<?xml version="1.0" encoding="utf-8"?>
<!-- Generator: Adobe Illustrator 20.1.0, SVG Export Plug-In . SVG Version: 6.00 Build 0)  -->
<svg version="1.1" id="Camada_1" xmlns="http://www.w3.org/2000/svg" xmlns:xlink="http://www.w3.org/1999/xlink" x="0px" y="0px"
	 viewBox="2.1 0.1 25 25" style="enable-background:new 2.1 0.1 25 25;" xml:space="preserve">
<style type="text/css">
	.st0{fill:none;}
	.st1{fill:#E26161;}
	.st2{opacity:0.2;}
	.st3{fill:#231F20;}
	.st4{fill:#FFFFFF;}
	.st5{fill:#4D4D4D;}
	.st6{fill:#212930;}
	.st7{fill:#00A087;}
	.st8{fill:#e4376e;}
</style>
<rect x="-171" y="99.7" class="st0" width="31.2" height="3.1"/>
<g>
	<g>
		<g>
			<path class="st1" d="M526.7,1685.2c0,11.8-9.7,21.9-21.5,21.9H125.7c-11.8,0-22.1-10.1-22.1-21.9v-42.9
				c0-11.8,10.2-21.2,22.1-21.2h379.4c11.8,0,21.5,9.4,21.5,21.2V1685.2z"/>
			<g>
				
					<text transform="matrix(1 0 0 1 211.2488 1677.167)" class="st4" style="font-family:'OpenSans-Semibold'; font-size:34.2965px;">Fórum</text>
			</g>
		</g>
	</g>
</g>
<g class="st2">
	<g>
		<g>
			<path class="st3" d="M151.2,1673c0,5.9,4.8,10.8,10.8,10.8h26.9c5.9,0,10.8-4.8,10.8-10.8v-16.4c0-5.9-4.8-10.8-10.8-10.8H162
				c-5.9,0-10.8,4.8-10.8,10.8V1673z"/>
		</g>
		<g>
			<path class="st3" d="M186.2,1645.8h2.7v2.7C188.9,1647,187.7,1645.8,186.2,1645.8z"/>
		</g>
		<g>
			<path class="st3" d="M180.8,1645.8c-1.5,0-2.7,1.2-2.7,2.7v-2.7H180.8z"/>
		</g>
		<g>
			<path class="st3" d="M180.8,1645.8h5.4c1.5,0,2.7,1.2,2.7,2.7v32.5v2.7v2.7v5.3c0,1.5-0.9,1.8-1.9,0.8l-3.5-3.4l-5.4-5.3v-2.7
				v-32.5C178.1,1647,179.4,1645.8,180.8,1645.8z"/>
		</g>
	</g>
	<g>
		<g>
			<path class="st3" d="M172.8,1667.5c0,5.9-4.8,10.8-10.8,10.8h-26.9c-5.9,0-10.8-4.8-10.8-10.8v-16.4c0-5.9,4.8-10.8,10.8-10.8
				H162c5.9,0,10.8,4.8,10.8,10.8V1667.5z"/>
		</g>
		<g>
			<path class="st3" d="M137.8,1640.4h-2.7v2.7C135.1,1641.6,136.3,1640.4,137.8,1640.4z"/>
		</g>
		<g>
			<path class="st3" d="M143.1,1640.4c1.5,0,2.7,1.2,2.7,2.7v-2.7H143.1z"/>
		</g>
		<g>
			<path class="st3" d="M143.1,1640.4h-5.4c-1.5,0-2.7,1.2-2.7,2.7v32.5v2.7v2.7v5.3c0,1.5,0.9,1.8,1.9,0.8l3.5-3.4l5.4-5.3v-2.7
				v-32.5C145.8,1641.6,144.6,1640.4,143.1,1640.4z"/>
		</g>
	</g>
	<g>
		<circle class="st3" cx="137.8" cy="1659.2" r="2.7"/>
		<circle class="st3" cx="148.5" cy="1659.2" r="2.7"/>
		<circle class="st3" cx="159.3" cy="1659.2" r="2.7"/>
	</g>
</g>
<g>
	<g>
		<g>
			<path class="st4" d="M149.2,1671c0,5.9,4.8,10.8,10.8,10.8h26.9c5.9,0,10.8-4.8,10.8-10.8v-16.4c0-5.9-4.8-10.8-10.8-10.8H160
				c-5.9,0-10.8,4.8-10.8,10.8V1671z"/>
		</g>
		<g>
			<path class="st4" d="M184.2,1643.8h2.7v2.7C186.9,1645,185.7,1643.8,184.2,1643.8z"/>
		</g>
		<g>
			<path class="st4" d="M178.8,1643.8c-1.5,0-2.7,1.2-2.7,2.7v-2.7H178.8z"/>
		</g>
		<g>
			<path class="st4" d="M178.8,1643.8h5.4c1.5,0,2.7,1.2,2.7,2.7v32.5v2.7v2.7v5.3c0,1.5-0.9,1.8-1.9,0.8l-3.5-3.4l-5.4-5.3v-2.7
				v-32.5C176.1,1645,177.4,1643.8,178.8,1643.8z"/>
		</g>
	</g>
	<g>
		<g>
			<path class="st5" d="M170.8,1665.5c0,5.9-4.8,10.8-10.8,10.8h-26.9c-5.9,0-10.8-4.8-10.8-10.8v-16.4c0-5.9,4.8-10.8,10.8-10.8
				H160c5.9,0,10.8,4.8,10.8,10.8V1665.5z"/>
		</g>
		<g>
			<path class="st5" d="M135.8,1638.4h-2.7v2.7C133.1,1639.6,134.3,1638.4,135.8,1638.4z"/>
		</g>
		<g>
			<path class="st5" d="M141.1,1638.4c1.5,0,2.7,1.2,2.7,2.7v-2.7H141.1z"/>
		</g>
		<g>
			<path class="st5" d="M141.1,1638.4h-5.4c-1.5,0-2.7,1.2-2.7,2.7v32.5v2.7v2.7v5.3c0,1.5,0.9,1.8,1.9,0.8l3.5-3.4l5.4-5.3v-2.7
				v-32.5C143.8,1639.6,142.6,1638.4,141.1,1638.4z"/>
		</g>
	</g>
	<g>
		<circle class="st4" cx="135.8" cy="1657.2" r="2.7"/>
		<circle class="st4" cx="146.5" cy="1657.2" r="2.7"/>
		<circle class="st4" cx="157.3" cy="1657.2" r="2.7"/>
	</g>
</g>
<g>
	<g>
		<path class="st6" d="M15.7,20.3v-0.9c2.5,0,4.5-2,4.5-4.5c0-2.5-2-4.5-4.5-4.5V9.5c3,0,5.4,2.4,5.4,5.4
			C21.1,17.8,18.7,20.3,15.7,20.3z"/>
	</g>
	<g>
		<polyline class="st4" points="16,20.7 16,18.6 17.7,18.6 17.7,20.7 		"/>
		<polygon class="st6" points="18.1,20.7 17.2,20.7 17.2,19 16.5,19 16.5,20.7 15.6,20.7 15.6,18.2 18.1,18.2 		"/>
	</g>
	<g>
		<path class="st6" d="M15.4,16.1H12V1.8h3.4V16.1z M12.9,15.2h1.7V2.7h-1.7V15.2z"/>
	</g>
	<rect x="11.5" y="5.2" class="st7" width="4.3" height="9.1"/>
	<g>
		<rect x="11.5" y="4.7" class="st6" width="4.3" height="0.9"/>
	</g>
	<g>
		<rect x="11.5" y="3.4" class="st6" width="4.3" height="0.9"/>
	</g>
	<g>
		<rect x="9.7" y="18.2" class="st6" width="8" height="0.9"/>
	</g>
	<g>
		<path class="st6" d="M20.6,23.4H6.9v-1.8c0-0.6,0.5-1.1,1.1-1.1h11.6c0.6,0,1.1,0.5,1.1,1.1V23.4z M7.7,22.5h12v-1
			c0-0.1-0.1-0.2-0.2-0.2H8c-0.1,0-0.2,0.1-0.2,0.2V22.5z"/>
	</g>
	<g>
		<circle class="st4" cx="15.7" cy="10" r="2"/>
		<path class="st6" d="M15.7,12.4c-1.4,0-2.4-1.1-2.4-2.4c0-1.4,1.1-2.4,2.4-2.4c1.4,0,2.4,1.1,2.4,2.4
			C18.2,11.3,17.1,12.4,15.7,12.4z M15.7,8.4c-0.9,0-1.6,0.7-1.6,1.6c0,0.9,0.7,1.6,1.6,1.6c0.9,0,1.6-0.7,1.6-1.6
			C17.3,9.1,16.6,8.4,15.7,8.4z"/>
	</g>
	<circle class="st8" cx="15.7" cy="10" r="0.8"/>
</g>
</svg>
