<?xml version="1.0" encoding="utf-8"?>
<!-- Generator: Adobe Illustrator 16.0.0, SVG Export Plug-In . SVG Version: 6.00 Build 0)  -->
<!DOCTYPE svg PUBLIC "-//W3C//DTD SVG 1.1//EN" "http://www.w3.org/Graphics/SVG/1.1/DTD/svg11.dtd">
<svg version="1.1" id="Camada_1" xmlns="http://www.w3.org/2000/svg" xmlns:xlink="http://www.w3.org/1999/xlink" x="0px" y="0px"
	 width="181px" height="48px" viewBox="0 0 181 48" enable-background="new 0 0 181 48" xml:space="preserve">
<rect x="53.012" y="5.604" fill="#FF3470" width="121.587" height="26.462"/>
<g enable-background="new    ">
	<path fill="#FFFDFE" d="M57.604,27.973V10.489h2.898c1.07,0,1.904,0.076,2.5,0.228c0.596,0.152,1.115,0.403,1.558,0.755
		c0.515,0.415,0.916,0.966,1.202,1.652s0.429,1.449,0.429,2.287c0,1.597-0.469,2.811-1.407,3.641
		c-0.938,0.83-2.309,1.245-4.112,1.245c-0.193,0-0.338-0.002-0.435-0.006s-0.181-0.01-0.253-0.019v7.7H57.604z M59.982,18.165h0.881
		c1.063,0,1.819-0.219,2.27-0.658s0.676-1.17,0.676-2.191c0-0.982-0.24-1.688-0.718-2.12c-0.479-0.431-1.278-0.646-2.397-0.646
		h-0.712V18.165z"/>
	<path fill="#FFFDFE" d="M70.913,19.435v8.538h-2.379V10.489h2.874c1.908,0,3.267,0.352,4.076,1.054
		c0.809,0.703,1.213,1.872,1.213,3.509c0,1.293-0.277,2.302-0.833,3.023c-0.556,0.723-1.385,1.152-2.487,1.288l4.19,8.609h-2.548
		l-4.033-8.538H70.913z M70.913,18.094h0.736c0.966,0,1.648-0.224,2.047-0.671s0.598-1.237,0.598-2.371
		c0-0.941-0.191-1.595-0.574-1.958s-1.097-0.545-2.143-0.545h-0.664V18.094z"/>
	<path fill="#FFFDFE" d="M78.873,19.243c0-3.201,0.392-5.498,1.176-6.892c0.784-1.393,2.065-2.09,3.842-2.09
		c1.769,0,3.043,0.693,3.823,2.078c0.78,1.385,1.17,3.687,1.17,6.903c0,3.201-0.39,5.492-1.17,6.873
		c-0.78,1.382-2.055,2.072-3.823,2.072c-1.777,0-3.058-0.69-3.842-2.072C79.265,24.735,78.873,22.444,78.873,19.243z M81.276,19.195
		c0,2.475,0.203,4.221,0.608,5.239c0.406,1.018,1.083,1.526,2.03,1.526c0.94,0,1.602-0.483,1.988-1.449
		c0.385-0.966,0.578-2.738,0.578-5.316c0-2.515-0.197-4.268-0.59-5.257c-0.394-0.99-1.06-1.485-2-1.485
		c-0.948,0-1.621,0.499-2.018,1.497C81.474,14.948,81.276,16.696,81.276,19.195z"/>
	<path fill="#FFFDFE" d="M91.639,27.973V10.489h7.221v2.107h-4.842v5.222h4.443v2.083h-4.443v8.071H91.639z"/>
	<path fill="#FFFDFE" d="M101.156,27.973V10.489h7.052v2.107h-4.673v5.197h4.275v2.084h-4.275v5.915h4.673v2.18H101.156z"/>
	<path fill="#FFFDFE" d="M110.373,24.907c0.563,0.343,1.083,0.597,1.558,0.761c0.475,0.163,0.921,0.245,1.34,0.245
		c0.725,0,1.3-0.21,1.727-0.629s0.64-0.979,0.64-1.683c0-1.029-0.817-2.207-2.451-3.532c-0.193-0.159-0.338-0.279-0.435-0.359
		c-1.047-0.854-1.779-1.646-2.198-2.377c-0.419-0.73-0.628-1.551-0.628-2.461c0-1.317,0.422-2.415,1.268-3.293
		s1.892-1.317,3.14-1.317c0.547,0,1.075,0.064,1.582,0.191c0.507,0.128,1.01,0.328,1.509,0.6v2.347
		c-0.459-0.319-0.908-0.557-1.346-0.713c-0.439-0.155-0.872-0.233-1.298-0.233c-0.749,0-1.348,0.218-1.799,0.653
		c-0.451,0.435-0.676,1.016-0.676,1.742c0,1.006,0.865,2.195,2.596,3.568c0.161,0.128,0.286,0.224,0.374,0.287
		c1.006,0.807,1.719,1.581,2.137,2.323c0.419,0.742,0.628,1.593,0.628,2.551c0,1.341-0.431,2.444-1.292,3.311s-1.964,1.3-3.309,1.3
		c-0.491,0-0.99-0.072-1.497-0.216c-0.507-0.144-1.031-0.363-1.57-0.658V24.907z"/>
	<path fill="#FFFDFE" d="M119.987,24.907c0.563,0.343,1.083,0.597,1.558,0.761c0.475,0.163,0.921,0.245,1.34,0.245
		c0.725,0,1.3-0.21,1.727-0.629s0.64-0.979,0.64-1.683c0-1.029-0.817-2.207-2.451-3.532c-0.193-0.159-0.338-0.279-0.435-0.359
		c-1.047-0.854-1.779-1.646-2.198-2.377c-0.419-0.73-0.628-1.551-0.628-2.461c0-1.317,0.422-2.415,1.268-3.293
		s1.892-1.317,3.14-1.317c0.547,0,1.075,0.064,1.582,0.191c0.507,0.128,1.01,0.328,1.509,0.6v2.347
		c-0.459-0.319-0.908-0.557-1.346-0.713c-0.439-0.155-0.872-0.233-1.298-0.233c-0.749,0-1.348,0.218-1.799,0.653
		c-0.451,0.435-0.676,1.016-0.676,1.742c0,1.006,0.865,2.195,2.596,3.568c0.161,0.128,0.286,0.224,0.374,0.287
		c1.006,0.807,1.719,1.581,2.137,2.323c0.419,0.742,0.628,1.593,0.628,2.551c0,1.341-0.431,2.444-1.292,3.311s-1.964,1.3-3.309,1.3
		c-0.491,0-0.99-0.072-1.497-0.216c-0.507-0.144-1.031-0.363-1.57-0.658V24.907z"/>
	<path fill="#FFFDFE" d="M129.528,19.243c0-3.201,0.392-5.498,1.176-6.892c0.784-1.393,2.065-2.09,3.842-2.09
		c1.769,0,3.043,0.693,3.823,2.078c0.78,1.385,1.17,3.687,1.17,6.903c0,3.201-0.39,5.492-1.17,6.873
		c-0.78,1.382-2.055,2.072-3.823,2.072c-1.777,0-3.058-0.69-3.842-2.072C129.92,24.735,129.528,22.444,129.528,19.243z
		 M131.932,19.195c0,2.475,0.203,4.221,0.608,5.239c0.406,1.018,1.083,1.526,2.03,1.526c0.94,0,1.602-0.483,1.988-1.449
		c0.385-0.966,0.578-2.738,0.578-5.316c0-2.515-0.197-4.268-0.59-5.257c-0.394-0.99-1.06-1.485-2-1.485
		c-0.948,0-1.621,0.499-2.018,1.497C132.13,14.948,131.932,16.696,131.932,19.195z"/>
	<path fill="#FFFDFE" d="M144.673,19.435v8.538h-2.379V10.489h2.874c1.908,0,3.267,0.352,4.076,1.054
		c0.809,0.703,1.213,1.872,1.213,3.509c0,1.293-0.277,2.302-0.833,3.023c-0.556,0.723-1.385,1.152-2.487,1.288l4.19,8.609h-2.548
		l-4.033-8.538H144.673z M144.673,18.094h0.736c0.966,0,1.648-0.224,2.047-0.671s0.598-1.237,0.598-2.371
		c0-0.941-0.191-1.595-0.574-1.958s-1.097-0.545-2.143-0.545h-0.664V18.094z"/>
	<path fill="#FFFDFE" d="M153.08,27.973V10.489h7.052v2.107h-4.673v5.197h4.275v2.084h-4.275v5.915h4.673v2.18H153.08z"/>
	<path fill="#FFFDFE" d="M162.296,24.907c0.563,0.343,1.083,0.597,1.558,0.761c0.475,0.163,0.921,0.245,1.34,0.245
		c0.725,0,1.3-0.21,1.727-0.629s0.64-0.979,0.64-1.683c0-1.029-0.817-2.207-2.451-3.532c-0.193-0.159-0.338-0.279-0.435-0.359
		c-1.047-0.854-1.779-1.646-2.198-2.377c-0.419-0.73-0.628-1.551-0.628-2.461c0-1.317,0.422-2.415,1.268-3.293
		s1.892-1.317,3.14-1.317c0.547,0,1.075,0.064,1.582,0.191c0.507,0.128,1.01,0.328,1.509,0.6v2.347
		c-0.459-0.319-0.908-0.557-1.346-0.713c-0.439-0.155-0.872-0.233-1.298-0.233c-0.749,0-1.348,0.218-1.799,0.653
		c-0.451,0.435-0.676,1.016-0.676,1.742c0,1.006,0.865,2.195,2.596,3.568c0.161,0.128,0.286,0.224,0.374,0.287
		c1.006,0.807,1.719,1.581,2.137,2.323c0.419,0.742,0.628,1.593,0.628,2.551c0,1.341-0.431,2.444-1.292,3.311s-1.964,1.3-3.309,1.3
		c-0.491,0-0.99-0.072-1.497-0.216c-0.507-0.144-1.031-0.363-1.57-0.658V24.907z"/>
</g>
<g>
</g>
<g>
	<g>
		<path fill="#FF3470" d="M6.772,16.06c0.356-0.479,0.73-0.876,1.122-1.189c0.391-0.314,0.783-0.565,1.174-0.754
			s0.771-0.322,1.14-0.402c0.368-0.079,0.719-0.119,1.053-0.119c0.829,0,1.565,0.162,2.209,0.487s1.186,0.788,1.623,1.387
			c0.437,0.6,0.771,1.321,1.001,2.166c0.23,0.845,0.345,1.78,0.345,2.808c0,1.085-0.138,2.063-0.415,2.937
			c-0.276,0.873-0.653,1.617-1.131,2.234c-0.478,0.616-1.042,1.093-1.692,1.429c-0.65,0.337-1.35,0.506-2.098,0.506
			c-0.656,0-1.37-0.129-2.141-0.386s-1.502-0.704-2.192-1.344v1.387H5.391V8.458h1.381V16.06z M6.772,24.038
			c0.622,0.65,1.269,1.17,1.942,1.558c0.673,0.389,1.418,0.582,2.236,0.582c1.243,0,2.238-0.485,2.987-1.455
			c0.748-0.97,1.122-2.396,1.122-4.28c0-1.803-0.351-3.167-1.053-4.092s-1.68-1.387-2.935-1.387c-0.829,0-1.591,0.246-2.288,0.736
			c-0.697,0.491-1.367,1.182-2.011,2.071V24.038z"/>
		<path fill="#FF3470" d="M20.562,27.205h-1.381V8.458h1.381V27.205z"/>
		<path fill="#FF3470" d="M29.241,13.595c0.909,0,1.732,0.156,2.469,0.471c0.736,0.313,1.364,0.771,1.882,1.369
			c0.518,0.6,0.915,1.33,1.191,2.191c0.276,0.862,0.415,1.835,0.415,2.919c0,1.107-0.141,2.095-0.423,2.962
			c-0.282,0.868-0.682,1.601-1.2,2.2c-0.518,0.6-1.145,1.056-1.881,1.37c-0.737,0.313-1.554,0.471-2.452,0.471
			c-0.898,0-1.712-0.154-2.443-0.463c-0.731-0.308-1.355-0.762-1.873-1.36c-0.518-0.6-0.921-1.333-1.208-2.2
			c-0.288-0.867-0.432-1.86-0.432-2.979c0-1.096,0.141-2.074,0.423-2.936c0.282-0.862,0.682-1.59,1.2-2.184
			c0.518-0.593,1.145-1.047,1.882-1.36C27.526,13.751,28.343,13.595,29.241,13.595z M29.241,26.178c0.679,0,1.297-0.117,1.856-0.351
			c0.558-0.234,1.039-0.588,1.441-1.062s0.716-1.062,0.941-1.764s0.336-1.521,0.336-2.457c0-0.924-0.112-1.737-0.336-2.439
			s-0.538-1.284-0.941-1.746s-0.883-0.811-1.441-1.045c-0.559-0.233-1.177-0.351-1.856-0.351c-0.69,0-1.315,0.117-1.873,0.351
			c-0.559,0.234-1.039,0.583-1.442,1.045s-0.714,1.044-0.932,1.746c-0.219,0.702-0.328,1.516-0.328,2.439
			c0,0.937,0.109,1.755,0.328,2.457c0.218,0.702,0.529,1.29,0.932,1.764s0.883,0.827,1.442,1.062
			C27.926,26.061,28.551,26.178,29.241,26.178z"/>
		<path fill="#FF3470" d="M48.072,26.418c0,1.062-0.115,1.966-0.345,2.713c-0.23,0.748-0.573,1.355-1.027,1.823
			c-0.455,0.468-1.027,0.811-1.718,1.027s-1.491,0.325-2.4,0.325c-0.759,0-1.444-0.083-2.054-0.248
			c-0.61-0.165-1.134-0.402-1.571-0.71c-0.438-0.309-0.78-0.691-1.027-1.147c-0.248-0.457-0.388-0.976-0.423-1.558h1.381
			c0.057,0.787,0.385,1.366,0.984,1.737c0.598,0.371,1.485,0.557,2.659,0.557c0.69,0,1.295-0.083,1.813-0.248
			c0.518-0.166,0.949-0.437,1.294-0.813c0.346-0.377,0.607-0.873,0.786-1.489c0.178-0.616,0.268-1.376,0.268-2.277v-0.839
			c-0.449,0.525-0.872,0.938-1.269,1.241c-0.397,0.303-0.78,0.53-1.148,0.685s-0.722,0.251-1.062,0.291
			c-0.34,0.04-0.671,0.061-0.993,0.061c-0.84,0-1.583-0.166-2.227-0.497c-0.645-0.331-1.186-0.796-1.623-1.396
			c-0.438-0.599-0.768-1.32-0.993-2.165s-0.336-1.786-0.336-2.825c0-1.096,0.135-2.08,0.405-2.953s0.645-1.615,1.123-2.226
			c0.478-0.61,1.042-1.079,1.692-1.404c0.65-0.325,1.349-0.487,2.098-0.487c0.322,0,0.656,0.022,1.001,0.068s0.702,0.128,1.07,0.248
			c0.369,0.12,0.743,0.282,1.123,0.488c0.38,0.205,0.759,0.468,1.139,0.787v-1.25h1.381V26.418z M46.691,16.882
			c-0.622-0.64-1.269-1.119-1.942-1.438c-0.673-0.319-1.419-0.479-2.236-0.479c-0.622,0-1.183,0.117-1.684,0.351
			c-0.5,0.234-0.929,0.589-1.286,1.062c-0.357,0.475-0.633,1.067-0.829,1.781c-0.196,0.713-0.293,1.549-0.293,2.508
			c0,1.804,0.351,3.173,1.053,4.109c0.702,0.936,1.68,1.403,2.935,1.403c0.829,0,1.588-0.226,2.279-0.676
			c0.69-0.451,1.358-1.122,2.002-2.012V16.882z"/>
	</g>
</g>
<polygon fill="#FF3470" points="70.33,43.592 64.366,37.627 58.401,31.662 70.33,31.662 "/>
<g>
	<path d="M72.887,37.606h-0.841v-0.43l0.841-0.051v-1.352c0-1.2,0.548-1.819,1.516-1.819c0.281,0,0.612,0.075,0.892,0.202
		l-0.153,0.454c-0.255-0.126-0.51-0.177-0.739-0.177c-0.649,0-0.956,0.493-0.956,1.378v1.313h1.415v0.48h-1.415v5.584h-0.561V37.606
		z"/>
	<path d="M75.129,41.674c0-1.339,1.223-1.983,3.95-2.286c0.013-0.923-0.242-1.921-1.452-1.921c-0.815,0-1.529,0.404-1.95,0.708
		l-0.254-0.417c0.433-0.304,1.287-0.783,2.28-0.783c1.44,0,1.937,1.036,1.937,2.337v3.879h-0.484l-0.051-0.783h-0.039
		c-0.624,0.492-1.363,0.935-2.166,0.935C75.932,43.342,75.129,42.824,75.129,41.674z M79.079,41.877v-2.06
		c-2.522,0.29-3.376,0.871-3.376,1.832c0,0.871,0.599,1.213,1.299,1.213S78.315,42.521,79.079,41.877z"/>
	<path d="M81.488,42.382v-8.275h0.561v8.352c0,0.265,0.115,0.392,0.268,0.392c0.051,0,0.102,0,0.229-0.025l0.102,0.455
		c-0.115,0.037-0.229,0.063-0.408,0.063C81.743,43.342,81.488,43.039,81.488,42.382z"/>
	<path d="M83.744,41.674c0-1.339,1.223-1.983,3.95-2.286c0.013-0.923-0.242-1.921-1.452-1.921c-0.815,0-1.529,0.404-1.95,0.708
		l-0.254-0.417c0.433-0.304,1.287-0.783,2.28-0.783c1.44,0,1.937,1.036,1.937,2.337v3.879H87.77l-0.051-0.783h-0.039
		c-0.624,0.492-1.363,0.935-2.166,0.935C84.546,43.342,83.744,42.824,83.744,41.674z M87.693,41.877v-2.06
		c-2.522,0.29-3.376,0.871-3.376,1.832c0,0.871,0.599,1.213,1.299,1.213S86.929,42.521,87.693,41.877z"/>
	<path d="M90.103,37.126h0.484l0.051,0.935h0.038c0.624-0.619,1.261-1.086,2.102-1.086c1.262,0,1.848,0.758,1.848,2.324v3.892
		h-0.561v-3.815c0-1.289-0.408-1.896-1.402-1.896c-0.726,0-1.249,0.379-2,1.138v4.573h-0.561V37.126z"/>
	<path d="M96.041,40.171c0-1.958,1.261-3.196,2.714-3.196c0.739,0,1.236,0.277,1.847,0.745l-0.025-1.111v-2.502h0.561v9.084h-0.484
		l-0.051-0.783h-0.038c-0.497,0.492-1.172,0.935-1.987,0.935C97.035,43.342,96.041,42.218,96.041,40.171z M100.577,41.852V38.25
		c-0.65-0.568-1.185-0.783-1.784-0.783c-1.223,0-2.153,1.176-2.153,2.704c0,1.604,0.714,2.679,2.013,2.679
		C99.328,42.85,99.927,42.495,100.577,41.852z"/>
	<path d="M102.642,40.171c0-2.034,1.274-3.196,2.739-3.196c1.478,0,2.752,1.162,2.752,3.196c0,2.009-1.274,3.171-2.752,3.171
		C103.916,43.342,102.642,42.18,102.642,40.171z M107.547,40.171c0-1.604-0.93-2.704-2.166-2.704s-2.153,1.1-2.153,2.704
		c0,1.592,0.917,2.679,2.153,2.679S107.547,41.763,107.547,40.171z"/>
	<path d="M111.345,40.171c0-1.958,1.261-3.196,2.714-3.196c0.739,0,1.236,0.277,1.847,0.745l-0.025-1.111v-2.502h0.561v9.084h-0.484
		l-0.051-0.783h-0.038c-0.497,0.492-1.172,0.935-1.987,0.935C112.338,43.342,111.345,42.218,111.345,40.171z M115.88,41.852V38.25
		c-0.65-0.568-1.185-0.783-1.784-0.783c-1.223,0-2.153,1.176-2.153,2.704c0,1.604,0.714,2.679,2.013,2.679
		C114.632,42.85,115.23,42.495,115.88,41.852z"/>
	<path d="M117.946,40.171c0-1.983,1.299-3.196,2.663-3.196c1.453,0,2.345,1.023,2.345,2.805c0,0.151,0,0.303-0.025,0.455h-4.409
		c0.025,1.528,0.93,2.628,2.306,2.628c0.663,0,1.185-0.215,1.644-0.544l0.229,0.43c-0.484,0.291-1.032,0.594-1.924,0.594
		C119.207,43.342,117.946,42.154,117.946,40.171z M122.418,39.779c0-1.554-0.701-2.325-1.796-2.325
		c-1.045,0-1.975,0.872-2.103,2.325H122.418z"/>
	<path d="M125.986,40.171c0-1.983,1.299-3.196,2.663-3.196c1.453,0,2.345,1.023,2.345,2.805c0,0.151,0,0.303-0.025,0.455h-4.409
		c0.025,1.528,0.93,2.628,2.306,2.628c0.663,0,1.185-0.215,1.644-0.544l0.229,0.43c-0.484,0.291-1.032,0.594-1.924,0.594
		C127.248,43.342,125.986,42.154,125.986,40.171z M130.458,39.779c0-1.554-0.701-2.325-1.796-2.325
		c-1.045,0-1.975,0.872-2.103,2.325H130.458z"/>
	<path d="M131.81,40.171c0-1.958,1.261-3.196,2.714-3.196c0.739,0,1.236,0.277,1.847,0.745l-0.025-1.111v-2.502h0.561v9.084h-0.484
		l-0.051-0.783h-0.038c-0.497,0.492-1.172,0.935-1.987,0.935C132.803,43.342,131.81,42.218,131.81,40.171z M136.345,41.852V38.25
		c-0.65-0.568-1.185-0.783-1.784-0.783c-1.223,0-2.153,1.176-2.153,2.704c0,1.604,0.714,2.679,2.013,2.679
		C135.097,42.85,135.695,42.495,136.345,41.852z"/>
	<path d="M138.831,41.018v-3.892h0.561v3.815c0,1.289,0.408,1.896,1.389,1.896c0.727,0,1.262-0.379,1.975-1.238v-4.473h0.561v6.064
		h-0.471l-0.064-1.011h-0.025c-0.599,0.695-1.236,1.162-2.077,1.162C139.417,43.342,138.831,42.584,138.831,41.018z"/>
	<path d="M144.82,40.171c0-2.034,1.299-3.196,2.79-3.196c0.841,0,1.376,0.366,1.797,0.745l-0.332,0.392
		c-0.395-0.366-0.854-0.645-1.453-0.645c-1.249,0-2.217,1.1-2.217,2.704c0,1.592,0.879,2.679,2.217,2.679
		c0.65,0,1.21-0.316,1.631-0.695l0.293,0.392c-0.522,0.455-1.172,0.796-1.95,0.796C146.018,43.342,144.82,42.18,144.82,40.171z"/>
	<path d="M150.159,41.674c0-1.339,1.223-1.983,3.95-2.286c0.013-0.923-0.242-1.921-1.453-1.921c-0.815,0-1.529,0.404-1.95,0.708
		l-0.254-0.417c0.433-0.304,1.287-0.783,2.28-0.783c1.44,0,1.937,1.036,1.937,2.337v3.879h-0.484l-0.051-0.783h-0.039
		c-0.624,0.492-1.363,0.935-2.166,0.935C150.962,43.342,150.159,42.824,150.159,41.674z M154.109,41.877v-2.06
		c-2.523,0.29-3.376,0.871-3.376,1.832c0,0.871,0.599,1.213,1.299,1.213S153.345,42.521,154.109,41.877z"/>
	<path d="M157.652,45.578c1.108-0.075,1.44-0.29,1.44-0.67c0-0.366-0.293-0.543-0.994-0.644l0.446-0.936
		c-1.465-0.113-2.536-1.251-2.536-3.158c0-2.034,1.299-3.196,2.79-3.196c0.841,0,1.376,0.366,1.797,0.745l-0.332,0.392
		c-0.395-0.366-0.854-0.645-1.452-0.645c-1.249,0-2.217,1.1-2.217,2.704c0,1.592,0.879,2.679,2.217,2.679
		c0.649,0,1.21-0.316,1.631-0.695l0.293,0.392c-0.472,0.417-1.058,0.733-1.746,0.783l-0.306,0.683
		c0.548,0.139,0.904,0.366,0.904,0.872c0,0.656-0.65,0.998-1.847,1.073L157.652,45.578z"/>
	<path d="M161.347,41.674c0-1.339,1.223-1.983,3.95-2.286c0.013-0.923-0.242-1.921-1.452-1.921c-0.815,0-1.529,0.404-1.95,0.708
		l-0.254-0.417c0.433-0.304,1.287-0.783,2.28-0.783c1.44,0,1.937,1.036,1.937,2.337v3.879h-0.484l-0.051-0.783h-0.039
		c-0.624,0.492-1.363,0.935-2.166,0.935C162.15,43.342,161.347,42.824,161.347,41.674z M162.889,34.662
		c-0.459,0-0.65,0.519-0.688,1.175l-0.433-0.024c0.051-0.797,0.306-1.593,1.134-1.593c0.956,0,1.223,1.213,1.937,1.213
		c0.446,0,0.637-0.543,0.675-1.175l0.433,0.025c-0.051,0.783-0.306,1.592-1.121,1.592C163.857,35.875,163.59,34.662,162.889,34.662z
		 M165.297,41.877v-2.06c-2.522,0.29-3.376,0.871-3.376,1.832c0,0.871,0.599,1.213,1.299,1.213S164.533,42.521,165.297,41.877z"/>
	<path d="M167.197,40.171c0-2.034,1.274-3.196,2.739-3.196c1.478,0,2.752,1.162,2.752,3.196c0,2.009-1.274,3.171-2.752,3.171
		C168.471,43.342,167.197,42.18,167.197,40.171z M172.102,40.171c0-1.604-0.93-2.704-2.166-2.704s-2.153,1.1-2.153,2.704
		c0,1.592,0.917,2.679,2.153,2.679S172.102,41.763,172.102,40.171z"/>
</g>
<g>
</g>
<g>
</g>
<g>
</g>
<g>
</g>
<g>
</g>
<g>
</g>
<g>
</g>
<g>
</g>
<g>
</g>
<g>
</g>
<g>
</g>
<g>
</g>
<g>
</g>
<g>
</g>
<g>
</g>
</svg>
