<?xml version="1.0" encoding="utf-8"?>
<!-- Generator: Adobe Illustrator 20.1.0, SVG Export Plug-In . SVG Version: 6.00 Build 0)  -->
<svg version="1.1" id="Camada_1" xmlns="http://www.w3.org/2000/svg" xmlns:xlink="http://www.w3.org/1999/xlink" x="0px" y="0px"
	 viewBox="2.1 0.1 25 25" style="enable-background:new 2.1 0.1 25 25;" xml:space="preserve">
<style type="text/css">
	.st0{fill:none;}
	.st1{fill:#E26161;}
	.st2{opacity:0.2;}
	.st3{fill:#231F20;}
	.st4{fill:#FFFFFF;}
	.st5{fill:#4D4D4D;}
	.st6{fill:#FFFFFF;stroke:#212930;stroke-width:4;}
	.st7{fill:#212930;}
	.st8{fill:#e4376e;}
	.st9{fill:#B4BEBF;}
</style>
<rect x="-171" y="99.7" class="st0" width="31.2" height="3.1"/>
<g>
	<g>
		<g>
			<path class="st1" d="M526.7,1685.2c0,11.8-9.7,21.9-21.5,21.9H125.7c-11.8,0-22.1-10.1-22.1-21.9v-42.9
				c0-11.8,10.2-21.2,22.1-21.2h379.4c11.8,0,21.5,9.4,21.5,21.2V1685.2z"/>
			<g>
				
					<text transform="matrix(1 0 0 1 211.2488 1677.167)" class="st4" style="font-family:'OpenSans-Semibold'; font-size:34.2965px;">Fórum</text>
			</g>
		</g>
	</g>
</g>
<g class="st2">
	<g>
		<g>
			<path class="st3" d="M151.2,1673c0,5.9,4.8,10.8,10.8,10.8h26.9c5.9,0,10.8-4.8,10.8-10.8v-16.4c0-5.9-4.8-10.8-10.8-10.8H162
				c-5.9,0-10.8,4.8-10.8,10.8V1673z"/>
		</g>
		<g>
			<path class="st3" d="M186.2,1645.8h2.7v2.7C188.9,1647,187.7,1645.8,186.2,1645.8z"/>
		</g>
		<g>
			<path class="st3" d="M180.8,1645.8c-1.5,0-2.7,1.2-2.7,2.7v-2.7H180.8z"/>
		</g>
		<g>
			<path class="st3" d="M180.8,1645.8h5.4c1.5,0,2.7,1.2,2.7,2.7v32.5v2.7v2.7v5.3c0,1.5-0.9,1.8-1.9,0.8l-3.5-3.4l-5.4-5.3v-2.7
				v-32.5C178.1,1647,179.4,1645.8,180.8,1645.8z"/>
		</g>
	</g>
	<g>
		<g>
			<path class="st3" d="M172.8,1667.5c0,5.9-4.8,10.8-10.8,10.8h-26.9c-5.9,0-10.8-4.8-10.8-10.8v-16.4c0-5.9,4.8-10.8,10.8-10.8
				H162c5.9,0,10.8,4.8,10.8,10.8V1667.5z"/>
		</g>
		<g>
			<path class="st3" d="M137.8,1640.4h-2.7v2.7C135.1,1641.6,136.3,1640.4,137.8,1640.4z"/>
		</g>
		<g>
			<path class="st3" d="M143.1,1640.4c1.5,0,2.7,1.2,2.7,2.7v-2.7H143.1z"/>
		</g>
		<g>
			<path class="st3" d="M143.1,1640.4h-5.4c-1.5,0-2.7,1.2-2.7,2.7v32.5v2.7v2.7v5.3c0,1.5,0.9,1.8,1.9,0.8l3.5-3.4l5.4-5.3v-2.7
				v-32.5C145.8,1641.6,144.6,1640.4,143.1,1640.4z"/>
		</g>
	</g>
	<g>
		<circle class="st3" cx="137.8" cy="1659.2" r="2.7"/>
		<circle class="st3" cx="148.5" cy="1659.2" r="2.7"/>
		<circle class="st3" cx="159.3" cy="1659.2" r="2.7"/>
	</g>
</g>
<g>
	<g>
		<g>
			<path class="st4" d="M149.2,1671c0,5.9,4.8,10.8,10.8,10.8h26.9c5.9,0,10.8-4.8,10.8-10.8v-16.4c0-5.9-4.8-10.8-10.8-10.8H160
				c-5.9,0-10.8,4.8-10.8,10.8V1671z"/>
		</g>
		<g>
			<path class="st4" d="M184.2,1643.8h2.7v2.7C186.9,1645,185.7,1643.8,184.2,1643.8z"/>
		</g>
		<g>
			<path class="st4" d="M178.8,1643.8c-1.5,0-2.7,1.2-2.7,2.7v-2.7H178.8z"/>
		</g>
		<g>
			<path class="st4" d="M178.8,1643.8h5.4c1.5,0,2.7,1.2,2.7,2.7v32.5v2.7v2.7v5.3c0,1.5-0.9,1.8-1.9,0.8l-3.5-3.4l-5.4-5.3v-2.7
				v-32.5C176.1,1645,177.4,1643.8,178.8,1643.8z"/>
		</g>
	</g>
	<g>
		<g>
			<path class="st5" d="M170.8,1665.5c0,5.9-4.8,10.8-10.8,10.8h-26.9c-5.9,0-10.8-4.8-10.8-10.8v-16.4c0-5.9,4.8-10.8,10.8-10.8
				H160c5.9,0,10.8,4.8,10.8,10.8V1665.5z"/>
		</g>
		<g>
			<path class="st5" d="M135.8,1638.4h-2.7v2.7C133.1,1639.6,134.3,1638.4,135.8,1638.4z"/>
		</g>
		<g>
			<path class="st5" d="M141.1,1638.4c1.5,0,2.7,1.2,2.7,2.7v-2.7H141.1z"/>
		</g>
		<g>
			<path class="st5" d="M141.1,1638.4h-5.4c-1.5,0-2.7,1.2-2.7,2.7v32.5v2.7v2.7v5.3c0,1.5,0.9,1.8,1.9,0.8l3.5-3.4l5.4-5.3v-2.7
				v-32.5C143.8,1639.6,142.6,1638.4,141.1,1638.4z"/>
		</g>
	</g>
	<g>
		<circle class="st4" cx="135.8" cy="1657.2" r="2.7"/>
		<circle class="st4" cx="146.5" cy="1657.2" r="2.7"/>
		<circle class="st4" cx="157.3" cy="1657.2" r="2.7"/>
	</g>
</g>
<g>
	<g>
		<g>
			<g>
				<path class="st6" d="M16.9,15.2"/>
			</g>
		</g>
	</g>
	<g>
		<path class="st4" d="M17.2,5.4C15.8,4,14,3.3,12,3.3c-2,0-3.8,0.8-5.2,2.2c-1.4,1.4-2.2,3.2-2.2,5.2c0,4.1,3.3,7.4,7.4,7.4
			c2,0,3.8-0.8,5.2-2.2c1.4-1.4,2.2-3.2,2.2-5.2C19.4,8.7,18.6,6.8,17.2,5.4z"/>
		<path class="st7" d="M12,18.4c-4.3,0-7.8-3.5-7.8-7.8c0-2.1,0.8-4,2.3-5.5C8,3.7,9.9,2.8,12,2.8c2.1,0,4,0.8,5.5,2.3
			c1.5,1.5,2.3,3.4,2.3,5.5c0,2.1-0.8,4-2.3,5.5C16.1,17.6,14.1,18.4,12,18.4L12,18.4V18l0-0.4c1.9,0,3.6-0.7,4.9-2.1
			c1.3-1.3,2-3.1,2-4.9c0-1.9-0.7-3.6-2-4.9c-1.3-1.3-3.1-2-4.9-2c-1.9,0-3.6,0.7-4.9,2C5.8,7,5,8.8,5,10.6c0,3.8,3.1,7,7,7V18.4z"
			/>
	</g>
	<path class="st8" d="M16.1,14.8c-1.1,1.1-2.6,1.7-4.1,1.7c-3.2,0-5.8-2.6-5.8-5.8c0-1.6,0.6-3,1.7-4.1C9,5.4,10.4,4.8,12,4.8
		c1.6,0,3,0.6,4.1,1.7c1.1,1.1,1.7,2.6,1.7,4.1C17.9,12.2,17.2,13.6,16.1,14.8z"/>
	<rect x="19.2" y="16.2" transform="matrix(0.7072 -0.707 0.707 0.7072 -7.477 20.4358)" class="st9" width="3.5" height="6.2"/>
	<g>
		<line class="st4" x1="22.8" y1="20.2" x2="20.8" y2="18.3"/>
		<rect x="21.4" y="17.9" transform="matrix(0.7073 -0.707 0.707 0.7073 -7.2117 21.0499)" class="st4" width="0.8" height="2.7"/>
	</g>
	<g>
		<rect x="17.9" y="16.9" transform="matrix(0.707 -0.7072 0.7072 0.707 -6.768 18.7297)" class="st4" width="2.7" height="1.3"/>
		<path class="st7" d="M18.7,19.6L17.2,18l2.5-2.5l1.5,1.5L18.7,19.6z M18.4,18l0.4,0.4l1.3-1.3l-0.4-0.4L18.4,18z"/>
	</g>
	<g>
		<path class="st4" d="M24.5,20.9c0,1.1-0.9,1.9-1.9,1.9c-0.2-0.2-0.3-0.3-0.5-0.5c0.6-0.6,1.3-1.3,1.9-1.9
			C24.2,20.6,24.4,20.8,24.5,20.9z"/>
		<path class="st7" d="M22.4,23.3l-0.9-0.9l2.5-2.5l0.9,0.9v0.2c0,1.3-1.1,2.4-2.4,2.4H22.4z M22.7,22.4L22.7,22.4
			c0.7,0,1.3-0.6,1.4-1.3l0,0L22.7,22.4z"/>
	</g>
	<g>
		<g>
			
				<rect x="17.5" y="16.6" transform="matrix(0.7067 -0.7075 0.7075 0.7067 -6.9224 17.6972)" class="st7" width="0.8" height="1.1"/>
		</g>
		<g>
			
				<rect x="18.1" y="15.1" transform="matrix(0.7075 -0.7067 0.7067 0.7075 -5.7551 17.6799)" class="st7" width="0.8" height="1.5"/>
		</g>
	</g>
	<g>
		<g>
			<g>
				<path class="st4" d="M12,17.5c-3.8,0-6.8-3.1-6.8-6.8c0-3.8,3.1-6.8,6.8-6.8c3.8,0,6.8,3.1,6.8,6.8C18.9,14.4,15.8,17.5,12,17.5
					z M12,4.7c-3.3,0-6,2.7-6,6c0,3.3,2.7,6,6,6c3.3,0,6-2.7,6-6C18,7.4,15.3,4.7,12,4.7z"/>
			</g>
			<g>
				<path class="st4" d="M12,17.5c-2.3,0-4.1-3-4.1-6.8c0-3.8,1.8-6.8,4.1-6.8c2.3,0,4.1,3,4.1,6.8C16.1,14.5,14.3,17.5,12,17.5z
					 M12,4.7c-1.8,0-3.3,2.7-3.3,6c0,3.2,1.5,6,3.3,6c1.8,0,3.3-2.7,3.3-6C15.3,7.4,13.8,4.7,12,4.7z"/>
			</g>
			<g>
				<path class="st4" d="M12,17.5h-0.4V3.8H12c3.8,0,6.8,3.1,6.8,6.8C18.9,14.4,15.8,17.5,12,17.5z M12.4,4.7v12
					c3.1-0.2,5.6-2.8,5.6-6C18,7.5,15.5,4.9,12.4,4.7z"/>
			</g>
			<g>
				<path class="st4" d="M18.3,13.3H5.7l-0.1-0.3c-0.3-0.8-0.4-1.6-0.4-2.4c0-0.8,0.1-1.6,0.4-2.4L5.7,8h12.6l0.1,0.3
					c0.3,0.8,0.4,1.6,0.4,2.4c0,0.8-0.1,1.6-0.4,2.4L18.3,13.3z M6.3,12.5h11.4c0.2-0.6,0.3-1.2,0.3-1.8c0-0.6-0.1-1.2-0.3-1.8H6.3
					C6.1,9.4,6,10,6,10.7C6,11.3,6.1,11.9,6.3,12.5z"/>
			</g>
		</g>
	</g>
</g>
</svg>
