<?xml version="1.0" encoding="utf-8"?>
<!-- Generator: Adobe Illustrator 16.0.0, SVG Export Plug-In . SVG Version: 6.00 Build 0)  -->
<!DOCTYPE svg PUBLIC "-//W3C//DTD SVG 1.1//EN" "http://www.w3.org/Graphics/SVG/1.1/DTD/svg11.dtd">
<svg version="1.1" id="Camada_1" xmlns="http://www.w3.org/2000/svg" xmlns:xlink="http://www.w3.org/1999/xlink" x="0px" y="0px"
	 width="24px" height="24px" viewBox="0 0 24 24" enable-background="new 0 0 24 24" xml:space="preserve">
<g>
	<path fill="#414141" d="M12,1.31c5.904,0,10.691,4.786,10.691,10.69c0,5.904-4.787,10.69-10.691,10.69
		C6.097,22.69,1.31,17.904,1.31,12C1.31,6.095,6.097,1.31,12,1.31L12,1.31z M12,0.653C5.743,0.653,0.653,5.743,0.653,12
		S5.743,23.347,12,23.347S23.347,18.257,23.347,12S18.257,0.653,12,0.653L12,0.653z"/>
	<path fill="#414141" d="M12,20.71c-4.803,0-8.711-3.905-8.711-8.71c0-4.803,3.908-8.711,8.711-8.711c4.804,0,8.71,3.908,8.71,8.711
		C20.71,16.805,16.804,20.71,12,20.71z M12,3.616c-4.621,0-8.383,3.761-8.383,8.384c0,4.622,3.762,8.383,8.383,8.383
		c4.623,0,8.382-3.761,8.382-8.383C20.382,7.377,16.623,3.616,12,3.616z"/>
	<path fill="#414141" d="M8.392,18.028c-0.504,0-0.827-0.398-0.827-1.018V6.987c0-0.618,0.323-1.016,0.827-1.016
		c0.196,0,0.403,0.064,0.615,0.185l8.68,5.012c0.372,0.215,0.577,0.511,0.577,0.833c0,0.323-0.205,0.618-0.577,0.83l-8.68,5.014
		C8.795,17.968,8.588,18.028,8.392,18.028z M8.392,6.298c-0.312,0-0.5,0.258-0.5,0.689v10.024c0,0.434,0.188,0.691,0.5,0.691
		c0.135,0,0.292-0.049,0.449-0.141l8.684-5.014c0.264-0.153,0.408-0.347,0.408-0.548s-0.145-0.395-0.408-0.549L8.841,6.438
		C8.684,6.348,8.527,6.298,8.392,6.298z"/>
</g>
</svg>
