<?xml version="1.0" encoding="utf-8"?>
<!-- Generator: Adobe Illustrator 20.1.0, SVG Export Plug-In . SVG Version: 6.00 Build 0)  -->
<svg version="1.1" id="Camada_1" xmlns="http://www.w3.org/2000/svg" xmlns:xlink="http://www.w3.org/1999/xlink" x="0px" y="0px"
	 viewBox="2.1 0.1 25 25" style="enable-background:new 2.1 0.1 25 25;" xml:space="preserve">
<style type="text/css">
	.st0{fill:none;}
	.st1{fill:#E26161;}
	.st2{opacity:0.2;}
	.st3{fill:#231F20;}
	.st4{fill:#FFFFFF;}
	.st5{fill:#4D4D4D;}
	.st6{fill:#212930;}
	.st7{fill:#B4BEBF;}
	.st8{fill:#e4376e;}
</style>
<rect x="-171" y="99.7" class="st0" width="31.2" height="3.1"/>
<g>
	<g>
		<g>
			<path class="st1" d="M526.7,1685.2c0,11.8-9.7,21.9-21.5,21.9H125.7c-11.8,0-22.1-10.1-22.1-21.9v-42.9
				c0-11.8,10.2-21.2,22.1-21.2h379.4c11.8,0,21.5,9.4,21.5,21.2V1685.2z"/>
			<g>
				
					<text transform="matrix(1 0 0 1 211.2488 1677.167)" class="st4" style="font-family:'OpenSans-Semibold'; font-size:34.2965px;">Fórum</text>
			</g>
		</g>
	</g>
</g>
<g class="st2">
	<g>
		<g>
			<path class="st3" d="M151.2,1673c0,5.9,4.8,10.8,10.8,10.8h26.9c5.9,0,10.8-4.8,10.8-10.8v-16.4c0-5.9-4.8-10.8-10.8-10.8H162
				c-5.9,0-10.8,4.8-10.8,10.8V1673z"/>
		</g>
		<g>
			<path class="st3" d="M186.2,1645.8h2.7v2.7C188.9,1647,187.7,1645.8,186.2,1645.8z"/>
		</g>
		<g>
			<path class="st3" d="M180.8,1645.8c-1.5,0-2.7,1.2-2.7,2.7v-2.7H180.8z"/>
		</g>
		<g>
			<path class="st3" d="M180.8,1645.8h5.4c1.5,0,2.7,1.2,2.7,2.7v32.5v2.7v2.7v5.3c0,1.5-0.9,1.8-1.9,0.8l-3.5-3.4l-5.4-5.3v-2.7
				v-32.5C178.1,1647,179.4,1645.8,180.8,1645.8z"/>
		</g>
	</g>
	<g>
		<g>
			<path class="st3" d="M172.8,1667.5c0,5.9-4.8,10.8-10.8,10.8h-26.9c-5.9,0-10.8-4.8-10.8-10.8v-16.4c0-5.9,4.8-10.8,10.8-10.8
				H162c5.9,0,10.8,4.8,10.8,10.8V1667.5z"/>
		</g>
		<g>
			<path class="st3" d="M137.8,1640.4h-2.7v2.7C135.1,1641.6,136.3,1640.4,137.8,1640.4z"/>
		</g>
		<g>
			<path class="st3" d="M143.1,1640.4c1.5,0,2.7,1.2,2.7,2.7v-2.7H143.1z"/>
		</g>
		<g>
			<path class="st3" d="M143.1,1640.4h-5.4c-1.5,0-2.7,1.2-2.7,2.7v32.5v2.7v2.7v5.3c0,1.5,0.9,1.8,1.9,0.8l3.5-3.4l5.4-5.3v-2.7
				v-32.5C145.8,1641.6,144.6,1640.4,143.1,1640.4z"/>
		</g>
	</g>
	<g>
		<circle class="st3" cx="137.8" cy="1659.2" r="2.7"/>
		<circle class="st3" cx="148.5" cy="1659.2" r="2.7"/>
		<circle class="st3" cx="159.3" cy="1659.2" r="2.7"/>
	</g>
</g>
<g>
	<g>
		<g>
			<path class="st4" d="M149.2,1671c0,5.9,4.8,10.8,10.8,10.8h26.9c5.9,0,10.8-4.8,10.8-10.8v-16.4c0-5.9-4.8-10.8-10.8-10.8H160
				c-5.9,0-10.8,4.8-10.8,10.8V1671z"/>
		</g>
		<g>
			<path class="st4" d="M184.2,1643.8h2.7v2.7C186.9,1645,185.7,1643.8,184.2,1643.8z"/>
		</g>
		<g>
			<path class="st4" d="M178.8,1643.8c-1.5,0-2.7,1.2-2.7,2.7v-2.7H178.8z"/>
		</g>
		<g>
			<path class="st4" d="M178.8,1643.8h5.4c1.5,0,2.7,1.2,2.7,2.7v32.5v2.7v2.7v5.3c0,1.5-0.9,1.8-1.9,0.8l-3.5-3.4l-5.4-5.3v-2.7
				v-32.5C176.1,1645,177.4,1643.8,178.8,1643.8z"/>
		</g>
	</g>
	<g>
		<g>
			<path class="st5" d="M170.8,1665.5c0,5.9-4.8,10.8-10.8,10.8h-26.9c-5.9,0-10.8-4.8-10.8-10.8v-16.4c0-5.9,4.8-10.8,10.8-10.8
				H160c5.9,0,10.8,4.8,10.8,10.8V1665.5z"/>
		</g>
		<g>
			<path class="st5" d="M135.8,1638.4h-2.7v2.7C133.1,1639.6,134.3,1638.4,135.8,1638.4z"/>
		</g>
		<g>
			<path class="st5" d="M141.1,1638.4c1.5,0,2.7,1.2,2.7,2.7v-2.7H141.1z"/>
		</g>
		<g>
			<path class="st5" d="M141.1,1638.4h-5.4c-1.5,0-2.7,1.2-2.7,2.7v32.5v2.7v2.7v5.3c0,1.5,0.9,1.8,1.9,0.8l3.5-3.4l5.4-5.3v-2.7
				v-32.5C143.8,1639.6,142.6,1638.4,141.1,1638.4z"/>
		</g>
	</g>
	<g>
		<circle class="st4" cx="135.8" cy="1657.2" r="2.7"/>
		<circle class="st4" cx="146.5" cy="1657.2" r="2.7"/>
		<circle class="st4" cx="157.3" cy="1657.2" r="2.7"/>
	</g>
</g>
<g>
	<g>
		<path class="st6" d="M13.1,14.2h-0.8v-0.3c-0.4-0.1-0.7-0.4-1-0.6l0,0L8.4,10l0-2.5l0-0.3l0,0V6l0,0l0-0.5V5.2l0,0l0,0l0.9,0
			c1,0,1.9,0.8,1.9,1.9v2.4h-0.8V7.1c0-0.6-0.5-1-1-1H9.2v1.3l0.1,0.3l-0.1,0v1.9l2.6,3c0.3,0.2,0.6,0.4,0.9,0.5l0.3,0.1V14.2z"/>
	</g>
	<g>
		<path class="st4" d="M5,7.3H4.3c-0.1,0-0.2,0.1-0.2,0.2v1.2c0,0.1,0.1,0.2,0.2,0.2H5"/>
		<path class="st6" d="M5,9.3H4.3C3.9,9.3,3.7,9,3.7,8.7V7.5c0-0.3,0.3-0.6,0.6-0.6H5v0.8H4.5v0.7H5V9.3z"/>
	</g>
	<g>
		<polygon class="st6" points="22.9,9.3 22.5,9.3 22.5,8.4 22.7,8.4 23.4,8.1 22.7,7.8 22.5,7.8 22.5,6.9 22.9,6.9 25.5,8.1 		"/>
	</g>
	<rect x="18.3" y="6.9" class="st7" width="3.6" height="2.3"/>
	<rect x="5.6" y="6.9" class="st7" width="4.7" height="2.3"/>
	<g>
		<path class="st4" d="M8.8,9.4C8.8,9.4,8.8,9.4,8.8,9.4v0.4l2.7,3.2c0.3,0.3,0.7,0.5,1.1,0.6v0.6"/>
		<path class="st6" d="M13.1,14.2h-0.8v-0.3c-0.4-0.1-0.7-0.4-1-0.6l0,0L8.4,10l0-0.9L8.7,9l0.1,0.4l0,0V9L8.9,9l0-0.1l0.3,0.1v0.6
			l2.6,3c0.3,0.2,0.6,0.4,0.9,0.5l0.3,0.1V14.2z"/>
	</g>
	<g>
		<path class="st6" d="M17.8,14.2h-0.8V13l0.2-0.1c0.5-0.4,0.8-1,0.8-1.7V6.8l0-1c0-0.3-0.2-0.5-0.5-0.5c-0.5,0-0.5,0.2-0.5,0.3v0
			H16V5.3c0-0.3-0.2-0.5-0.5-0.5C15.2,4.8,15,5,15,5.3h-0.8V4.9c0-0.3-0.2-0.5-0.5-0.5c-0.3,0-0.5,0.2-0.5,0.5v0.5h-0.8
			c0-0.2-0.2-0.5-0.6-0.5c-0.3,0-0.6,0.2-0.6,0.6v4h-0.8v-4c0-0.8,0.6-1.4,1.4-1.4c0.3,0,0.5,0.1,0.7,0.2c0.2-0.4,0.7-0.8,1.2-0.8
			c0.5,0,0.9,0.3,1.2,0.7C15,4,15.2,4,15.5,4c0.5,0,0.9,0.2,1.1,0.6c0.2-0.1,0.4-0.1,0.7-0.1c0.8,0,1.4,0.6,1.4,1.4l0,1l0,4.4
			c0,0.9-0.4,1.7-1,2.2V14.2z"/>
	</g>
	<g>
		<polyline class="st8" points="12.1,22.7 12.1,14.9 19.8,14.9 19.8,22.7 		"/>
		<polyline class="st8" points="12.1,22.7 12.1,14.9 19.8,14.9 19.8,22.7 		"/>
	</g>
	<g>
		<rect x="18.2" y="16.3" class="st6" width="0.8" height="0.8"/>
	</g>
</g>
</svg>
