<?xml version="1.0" encoding="utf-8"?>
<!-- Generator: Adobe Illustrator 16.0.0, SVG Export Plug-In . SVG Version: 6.00 Build 0)  -->
<!DOCTYPE svg PUBLIC "-//W3C//DTD SVG 1.1//EN" "http://www.w3.org/Graphics/SVG/1.1/DTD/svg11.dtd">
<svg version="1.1" id="Camada_1" xmlns="http://www.w3.org/2000/svg" xmlns:xlink="http://www.w3.org/1999/xlink" x="0px" y="0px"
	 width="24px" height="24px" viewBox="0 0 24 24" enable-background="new 0 0 24 24" xml:space="preserve">
<path fill-rule="evenodd" clip-rule="evenodd" fill="#414141" stroke="#FFFFFF" stroke-width="0.75" stroke-linecap="round" stroke-linejoin="round" stroke-miterlimit="10" d="
	M2.529,1.009h13.373c0.867,0,1.581,0.669,1.659,1.516l-2.201,2.191V3.473c0-0.138-0.116-0.256-0.256-0.256H3.327
	c-0.14,0-0.257,0.114-0.257,0.256v17.282c0,0.14,0.116,0.255,0.257,0.255c5.782,0,5.994,0,11.777,0c0.14,0,0.256-0.115,0.256-0.255
	v-3.853l2.21-2.211v6.857c0,0.917-0.751,1.668-1.668,1.668c-6.315,0-7.06,0-13.373,0c-0.917,0-1.667-0.747-1.667-1.668V2.675
	C0.861,1.758,1.61,1.009,2.529,1.009L2.529,1.009z"/>
<path fill-rule="evenodd" clip-rule="evenodd" fill="#FFFFFF" stroke="#414141" stroke-width="0.75" stroke-linecap="round" stroke-linejoin="round" stroke-miterlimit="10" d="
	M19.364,4.404c-0.328-0.181-0.691-0.246-1.036-0.198c-0.349,0.049-0.682,0.208-0.946,0.473L9.22,12.843
	c-0.057,0.057-0.098,0.128-0.116,0.202l-1.441,5.03c-0.021,0.071-0.024,0.154,0,0.231c0.063,0.221,0.295,0.352,0.518,0.289
	l5.032-1.444c0.073-0.016,0.141-0.055,0.197-0.107l8.167-8.17h-0.002h0.002c0.266-0.268,0.427-0.596,0.475-0.947
	c0.047-0.345-0.016-0.708-0.2-1.033c-0.292-0.523-0.641-0.989-1.045-1.398l-0.021-0.024C20.37,5.059,19.898,4.703,19.364,4.404
	L19.364,4.404z"/>
<path fill-rule="evenodd" clip-rule="evenodd" fill="#414141" stroke="#414141" stroke-width="0.75" stroke-miterlimit="10" d="
	M9.258,15.555c0.676,0.436,1.161,0.918,1.489,1.43l1.864-0.529l-0.31-1.311l-1.587,0.146l-0.063,0.007l0,0
	c-0.166,0.025-0.339-0.045-0.431-0.194l-0.568-0.926L9.258,15.555z"/>
</svg>
