<?xml version="1.0" encoding="utf-8"?>
<!-- Generator: Adobe Illustrator 16.0.0, SVG Export Plug-In . SVG Version: 6.00 Build 0)  -->
<!DOCTYPE svg PUBLIC "-//W3C//DTD SVG 1.1//EN" "http://www.w3.org/Graphics/SVG/1.1/DTD/svg11.dtd">
<svg version="1.1" id="Camada_1" xmlns="http://www.w3.org/2000/svg" xmlns:xlink="http://www.w3.org/1999/xlink" x="0px" y="0px"
	 width="24px" height="24px" viewBox="0 0 24 24" enable-background="new 0 0 24 24" xml:space="preserve">
<path id="XMLID_239_" fill="#414141" d="M23.198,8.535v8.342h-1.072v1.411v2.675c0,0.146-0.182,0.213-0.276,0.101l-3.506-4.187
	H7.845V8.535H23.198z"/>
<g id="XMLID_258_">
	<path id="XMLID_1162_" fill="#414042" d="M21.343,21.241L18,17.251H7.56V8.478h15.639v8.773h-1.052v3.697
		c0,0.194-0.116,0.362-0.299,0.428c-0.052,0.02-0.106,0.028-0.158,0.028C21.558,21.404,21.432,21.349,21.343,21.241z M22.591,9.083
		H8.165v7.562h10.118l3.259,3.891v-3.891h1.049V9.083z"/>
</g>
<g id="XMLID_257_">
	<rect id="XMLID_206_" x="14.201" y="14.629" fill="#414042" width="6.059" height="0.569"/>
</g>
<g>
	<circle fill="#FFFFFF" cx="11.788" cy="12.507" r="0.88"/>
	<circle fill="#FFFFFF" cx="15.522" cy="12.507" r="0.881"/>
	<path fill="#FFFFFF" d="M19.254,11.627c0.488,0,0.882,0.394,0.882,0.88s-0.394,0.879-0.882,0.879c-0.483,0-0.879-0.395-0.879-0.879
		C18.375,12.021,18.771,11.627,19.254,11.627z"/>
</g>
<g id="XMLID_1_">
	<path id="XMLID_2_" fill="#414042" d="M2.399,18.825c-0.055,0-0.112-0.009-0.167-0.029c-0.193-0.069-0.318-0.248-0.318-0.454
		v-3.919H0.802V5.124h16.575v9.299H6.31l-3.542,4.229C2.673,18.766,2.54,18.825,2.399,18.825z M1.443,13.78h1.113v4.125L6.01,13.78
		h10.725V5.766H1.443V13.78z"/>
</g>
</svg>
