<?xml version="1.0" encoding="utf-8"?>
<!-- Generator: Adobe Illustrator 16.0.0, SVG Export Plug-In . SVG Version: 6.00 Build 0)  -->
<!DOCTYPE svg PUBLIC "-//W3C//DTD SVG 1.1//EN" "http://www.w3.org/Graphics/SVG/1.1/DTD/svg11.dtd">
<svg version="1.1"
	 id="svg3036" xmlns:inkscape="http://www.inkscape.org/namespaces/inkscape" xmlns:sodipodi="http://sodipodi.sourceforge.net/DTD/sodipodi-0.dtd" xmlns:svg="http://www.w3.org/2000/svg" xmlns:rdf="http://www.w3.org/1999/02/22-rdf-syntax-ns#" xmlns:cc="http://creativecommons.org/ns#" xmlns:dc="http://purl.org/dc/elements/1.1/" inkscape:version="0.48.4 r9939" sodipodi:docname="pense.svg"
	 xmlns="http://www.w3.org/2000/svg" xmlns:xlink="http://www.w3.org/1999/xlink" x="0px" y="0px" width="32px" height="32px"
	 viewBox="0 0 32 32" enable-background="new 0 0 32 32" xml:space="preserve">
<g>
	<path fill="#414141" d="M13.632,3.331v3.521v15.157v6.556h4.708l-3.896-0.239l1.314-21.672l3.906,0.238l-1.318,21.673h1.418v-2.544
		v-0.59V8.806V7.631V4.697h5.407v2.932v1.174v1.366h4.551v2.548v0.589v11.097v0.582v3.575h1.253v1.624H0.815v-1.624h1.079v-2.393
		v-1.472V10.467V9.001V6.852h4.696V3.331H13.632L13.632,3.331z M13.632,2.513H6.59c-0.45,0-0.814,0.366-0.814,0.818v2.707H1.895
		c-0.45,0-0.812,0.363-0.812,0.814v2.149v1.466v14.229v1.472v1.58H0.815C0.366,27.748,0,28.112,0,28.564v1.622
		C0,30.634,0.367,31,0.815,31h30.161c0.446,0,0.814-0.366,0.814-0.813v-1.622c0-0.452-0.368-0.816-0.814-0.816h-0.44v-2.759v-0.584
		V13.31V12.72v-2.547c0-0.446-0.365-0.813-0.812-0.813h-3.737V8.806V7.631V4.697c0-0.451-0.366-0.813-0.814-0.813h-5.407
		c-0.454,0-0.818,0.362-0.818,0.813V6.03L15.81,5.843c-0.019-0.003-0.031-0.003-0.051-0.003c-0.199,0-0.39,0.072-0.538,0.208
		c-0.162,0.142-0.26,0.342-0.273,0.558l-0.502,8.238V6.852V3.331C14.446,2.879,14.083,2.513,13.632,2.513L13.632,2.513z"/>
	<path fill="#414141" d="M31.177,30.391H0.61v-2.029h30.566V30.391z M1.019,29.98h29.749v-1.215H1.019V29.98z"/>
	<path fill="#414141" d="M6.792,28.766H1.691V6.65h5.101V28.766z M2.099,28.36h4.286V7.054H2.099V28.36z"/>
	<path fill="#414141" d="M29.925,28.766h-4.959V9.974h4.959V28.766z M25.375,28.36h4.145V10.379h-4.145V28.36z"/>
	<path fill="#414141" d="M13.836,28.766H6.385V3.127h7.451V28.766z M6.792,28.36h6.636V3.534H6.792V28.36z"/>
	<path fill="#414141" d="M25.375,28.766h-5.818V4.495h5.818V28.766z M19.966,28.36h5V4.904h-5V28.36z"/>
	<path fill="#414141" d="M18.54,28.779l-4.312-0.262L15.57,6.436l4.314,0.263L18.54,28.779z M14.66,28.135l3.498,0.213l1.293-21.267
		l-3.497-0.215L14.66,28.135z"/>
	<path fill="#414141" d="M13.836,22.214H6.385V6.65h7.451V22.214z M12.142,21.806h0.939L12.995,7.065l-0.853-0.042V21.806z"/>
	<path fill="#414141" d="M6.792,10.67H1.691V8.799h5.101V10.67z M2.099,10.263V9.206h4.286H2.099V10.263z"/>
	<path fill="#414141" d="M6.792,26.367H1.691v-1.874h5.101V26.367z M2.099,25.962v-1.061h4.286H2.099V25.962z"/>
	<path fill="#414141" d="M25.375,9.008h-5.818V7.428h5.818V9.008z M19.966,8.601h5V7.833h-5V8.601z"/>
	<path fill="#414141" d="M25.375,26.224h-5.818v-0.994h5.818V26.224z M19.966,25.815h5v-0.179h-5V25.815z"/>
	<path fill="#414141" d="M29.925,13.509h-4.959v-0.992h4.959V13.509z M25.375,13.104h4.145v-0.18h-4.145V13.104z"/>
	<path fill="#414141" d="M29.925,25.196h-4.959v-0.994h4.959V25.196z M25.375,24.789h4.145V24.61h-4.145V24.789z"/>
	<path fill="#414141" d="M24.495,16.499h-4.054V9.529h4.054V16.499z M20.849,16.088h3.237V9.937l-0.428,5.701L20.849,16.088z"/>
</g>
</svg>
