<?xml version="1.0" encoding="utf-8"?>
<!-- Generator: Adobe Illustrator 16.0.0, SVG Export Plug-In . SVG Version: 6.00 Build 0)  -->
<!DOCTYPE svg PUBLIC "-//W3C//DTD SVG 1.1//EN" "http://www.w3.org/Graphics/SVG/1.1/DTD/svg11.dtd">
<svg version="1.1"
	 id="svg3036" xmlns:inkscape="http://www.inkscape.org/namespaces/inkscape" xmlns:sodipodi="http://sodipodi.sourceforge.net/DTD/sodipodi-0.dtd" xmlns:svg="http://www.w3.org/2000/svg" xmlns:rdf="http://www.w3.org/1999/02/22-rdf-syntax-ns#" xmlns:cc="http://creativecommons.org/ns#" xmlns:dc="http://purl.org/dc/elements/1.1/" inkscape:version="0.48.4 r9939" sodipodi:docname="pense.svg"
	 xmlns="http://www.w3.org/2000/svg" xmlns:xlink="http://www.w3.org/1999/xlink" x="0px" y="0px" width="32px" height="32px"
	 viewBox="0 0 32 32" enable-background="new 0 0 32 32" xml:space="preserve">
<sodipodi:namedview  showgrid="true" inkscape:cx="22.625106" borderopacity="1.0" inkscape:zoom="11.197802" pagecolor="#ffffff" id="base" bordercolor="#666666" inkscape:cy="12.629686" inkscape:pageopacity="0.0" inkscape:window-y="24" inkscape:window-maximized="1" inkscape:grid-bbox="true" inkscape:current-layer="g13" inkscape:pageshadow="2" inkscape:window-x="49" inkscape:window-width="1317" inkscape:document-units="px" inkscape:window-height="744">
	</sodipodi:namedview>
<g>
	<g>
		<g>
			<path fill="#FFFFFF" stroke="#414141" stroke-width="0.75" stroke-miterlimit="10" d="M25.562,24.723
				c-0.082-0.604-0.482-1.094-1.027-1.363c0.038-0.188,0.048-0.379,0.02-0.577c-0.134-1.018-1.174-1.723-2.318-1.569
				c-0.663,0.088-1.222,0.445-1.537,0.931c-1.373,0.304-2.324,1.4-2.169,2.567c0.164,1.246,1.533,2.09,3.057,1.89
				c0.197-0.026,0.385-0.07,0.568-0.127c0.421,0.303,0.986,0.45,1.578,0.373C24.875,26.691,25.699,25.743,25.562,24.723z"/>
			<path fill="#FFFFFF" stroke="#414141" stroke-width="0.75" stroke-miterlimit="10" d="M23.956,8.092
				c-0.26-0.038-0.52-0.053-0.776-0.053c0.003-0.013,0.01-0.035,0.013-0.053c0.28-2.061-1.298-3.977-3.53-4.286
				c-1.299-0.177-2.528,0.229-3.386,1.003c-0.61-2.03-2.353-3.625-4.589-3.931C8.632,0.354,5.818,2.488,5.396,5.547
				C5.279,6.394,5.362,7.225,5.6,7.989C5.433,7.931,5.261,7.894,5.077,7.867C3.308,7.629,1.674,8.864,1.43,10.633
				c-0.244,1.775,0.996,3.407,2.77,3.649c0.227,0.029,0.447,0.038,0.669,0.021c-0.057,0.206-0.1,0.416-0.132,0.635
				c-0.386,2.829,1.592,5.441,4.426,5.829c1.75,0.238,3.409-0.424,4.519-1.632c0.338,1.164,1.39,2.093,2.745,2.28
				c1.717,0.237,3.292-0.813,3.631-2.363c0.139,0.058,0.286,0.097,0.442,0.121c0.914,0.125,1.758-0.466,1.876-1.32
				c0.022-0.179,0.014-0.346-0.021-0.511c0.108,0.021,0.218,0.041,0.326,0.053c2.759,0.381,5.283-1.394,5.636-3.965
				C28.668,10.86,26.72,8.472,23.956,8.092z"/>
			<path fill="#FFFFFF" stroke="#414141" stroke-width="0.75" stroke-miterlimit="10" d="M19.997,28.474
				c-0.4-0.561-1.291-0.634-2.106-0.214c-0.441-0.359-1.097-0.396-1.589-0.043c-0.589,0.426-0.733,1.239-0.313,1.825
				c0.162,0.224,0.385,0.383,0.627,0.464c0.034,0.101,0.08,0.2,0.145,0.29c0.457,0.641,1.56,0.646,2.454,0.003
				C20.108,30.154,20.458,29.115,19.997,28.474z"/>
		</g>
		<g>
			<circle fill="#414141" cx="11.145" cy="11.082" r="0.88"/>
			<circle fill="#414141" cx="14.88" cy="11.082" r="0.881"/>
			<path fill="#414141" d="M18.611,10.202c0.488,0,0.882,0.394,0.882,0.88c0,0.486-0.394,0.879-0.882,0.879
				c-0.483,0-0.879-0.394-0.879-0.879C17.732,10.596,18.128,10.202,18.611,10.202z"/>
		</g>
	</g>
</g>
</svg>
