<?xml version="1.0" encoding="utf-8"?>
<!-- Generator: Adobe Illustrator 16.0.0, SVG Export Plug-In . SVG Version: 6.00 Build 0)  -->
<!DOCTYPE svg PUBLIC "-//W3C//DTD SVG 1.1//EN" "http://www.w3.org/Graphics/SVG/1.1/DTD/svg11.dtd">
<svg version="1.1"
	 id="svg3036" xmlns:inkscape="http://www.inkscape.org/namespaces/inkscape" xmlns:sodipodi="http://sodipodi.sourceforge.net/DTD/sodipodi-0.dtd" xmlns:svg="http://www.w3.org/2000/svg" xmlns:rdf="http://www.w3.org/1999/02/22-rdf-syntax-ns#" xmlns:cc="http://creativecommons.org/ns#" xmlns:dc="http://purl.org/dc/elements/1.1/" inkscape:version="0.48.4 r9939" sodipodi:docname="pense.svg"
	 xmlns="http://www.w3.org/2000/svg" xmlns:xlink="http://www.w3.org/1999/xlink" x="0px" y="0px" width="32px" height="32px"
	 viewBox="0 0 32 32" enable-background="new 0 0 32 32" xml:space="preserve">
<g>
	<path fill="#414141" d="M17.616,3.884c-0.063,0.653-0.107,0.869-0.268,1.028c-0.314,0.311-0.677-0.275-1.538-0.358
		c-0.953-0.091-1.801,0.607-1.893,1.561c-0.091,0.953,0.607,1.8,1.56,1.892c0.862,0.083,1.329-0.421,1.578-0.059
		c0.129,0.188,0.131,0.407,0.066,1.061l-0.324,3.384v0.001v-0.001l2.88,0.278c0.422,0.041,0.485,0.006,0.528-0.072
		c0.088-0.162-0.032-0.448,0.027-1.078c0.128-1.325,1.628-2.249,2.855-2.13c1.226,0.118,2.528,1.257,2.394,2.635
		c-0.06,0.629-0.233,0.888-0.179,1.063c0.028,0.083,0.084,0.131,0.507,0.172l2.88,0.276l1.145-11.894L17.942,0.5l0,0L17.616,3.884z"
		/>
	<path fill="#FFFFFF" stroke="#414141" stroke-width="0.75" stroke-miterlimit="10" d="M7.131,18.202
		c0.643-0.137,0.862-0.159,1.062-0.054c0.39,0.207-0.059,0.729,0.123,1.575c0.199,0.937,1.121,1.534,2.058,1.334
		c0.937-0.201,1.532-1.122,1.333-2.059c-0.181-0.847-0.803-1.141-0.53-1.488c0.14-0.179,0.348-0.245,0.991-0.382l3.323-0.711h0.001
		H15.49l-0.604-2.829c-0.088-0.415-0.141-0.465-0.229-0.482c-0.179-0.036-0.417,0.167-1.035,0.299
		c-1.302,0.278-2.635-0.875-2.892-2.08c-0.258-1.205,0.436-2.789,1.792-3.079c0.618-0.131,0.917-0.042,1.066-0.148
		c0.072-0.052,0.1-0.12,0.012-0.535l-0.604-2.829L1.312,7.229l2.494,11.684l0,0L7.131,18.202z"/>
	<path fill="#FFFFFF" stroke="#414141" stroke-width="0.75" stroke-miterlimit="10" d="M24.865,15.355
		c-0.642,0.137-0.86,0.162-1.061,0.056c-0.39-0.206,0.059-0.729-0.121-1.575c-0.201-0.937-1.122-1.534-2.059-1.334
		c-0.938,0.2-1.534,1.121-1.334,2.058c0.181,0.847,0.805,1.139,0.532,1.488c-0.141,0.179-0.35,0.245-0.991,0.383l-3.325,0.71l0,0
		l0,0l0.604,2.83c0.089,0.416,0.14,0.466,0.229,0.482c0.18,0.035,0.416-0.166,1.034-0.299c1.303-0.277,2.635,0.876,2.893,2.081
		c0.257,1.205-0.437,2.786-1.79,3.076c-0.619,0.133-0.918,0.044-1.068,0.151c-0.072,0.052-0.1,0.118-0.012,0.534l0.606,2.828
		l11.685-2.493l-2.495-11.687l0,0L24.865,15.355z"/>
	<path fill="#FFFFFF" stroke="#414141" stroke-width="0.75" stroke-miterlimit="10" d="M17.468,25.679
		c-0.136-0.641-0.16-0.859-0.055-1.061c0.207-0.389,0.73,0.058,1.575-0.122c0.937-0.199,1.534-1.12,1.334-2.058
		c-0.199-0.937-1.122-1.532-2.057-1.334c-0.846,0.181-1.141,0.804-1.488,0.53c-0.179-0.139-0.247-0.348-0.383-0.989l-0.71-3.325l0,0
		l0,0l-2.829,0.604c-0.416,0.087-0.465,0.141-0.483,0.228c-0.036,0.181,0.167,0.416,0.299,1.035c0.278,1.303-0.874,2.636-2.08,2.893
		c-1.205,0.257-2.79-0.437-3.079-1.791c-0.132-0.617-0.043-0.917-0.148-1.066c-0.052-0.072-0.121-0.102-0.534-0.012l-2.831,0.604
		L6.494,31.5l11.685-2.495l0,0L17.468,25.679z"/>
</g>
</svg>
