<?xml version="1.0" encoding="utf-8"?>
<!-- Generator: Adobe Illustrator 16.0.0, SVG Export Plug-In . SVG Version: 6.00 Build 0)  -->
<!DOCTYPE svg PUBLIC "-//W3C//DTD SVG 1.1//EN" "http://www.w3.org/Graphics/SVG/1.1/DTD/svg11.dtd">
<svg version="1.1" id="Camada_1" xmlns="http://www.w3.org/2000/svg" xmlns:xlink="http://www.w3.org/1999/xlink" x="0px" y="0px"
	 width="24px" height="24px" viewBox="0 0 24 24" enable-background="new 0 0 24 24" xml:space="preserve">
<g>
	<g>
		<path fill="#414141" d="M7.707,22.468c-0.535,0-1.042-0.248-1.373-0.678l-5.292-6.918C0.46,14.114,0.608,13.03,1.366,12.45
			c0.761-0.579,1.844-0.436,2.425,0.32l3.618,4.736C9.407,13.911,13.747,7.32,20.644,2.858c0.804-0.515,1.871-0.286,2.394,0.519
			c0.519,0.801,0.287,1.869-0.515,2.389C13.696,11.467,9.337,21.331,9.295,21.429c-0.249,0.562-0.767,0.952-1.378,1.028
			C7.849,22.466,7.778,22.468,7.707,22.468"/>
	</g>
</g>
</svg>
