<?xml version="1.0" encoding="utf-8"?>
<!-- Generator: Adobe Illustrator 16.0.0, SVG Export Plug-In . SVG Version: 6.00 Build 0)  -->
<!DOCTYPE svg PUBLIC "-//W3C//DTD SVG 1.1//EN" "http://www.w3.org/Graphics/SVG/1.1/DTD/svg11.dtd">
<svg version="1.1"
	 id="svg3036" xmlns:inkscape="http://www.inkscape.org/namespaces/inkscape" xmlns:sodipodi="http://sodipodi.sourceforge.net/DTD/sodipodi-0.dtd" xmlns:svg="http://www.w3.org/2000/svg" xmlns:rdf="http://www.w3.org/1999/02/22-rdf-syntax-ns#" xmlns:cc="http://creativecommons.org/ns#" xmlns:dc="http://purl.org/dc/elements/1.1/" inkscape:version="0.48.4 r9939" sodipodi:docname="pense.svg"
	 xmlns="http://www.w3.org/2000/svg" xmlns:xlink="http://www.w3.org/1999/xlink" x="0px" y="0px" width="32px" height="32px"
	 viewBox="0 0 32 32" enable-background="new 0 0 32 32" xml:space="preserve">
<sodipodi:namedview  showgrid="true" inkscape:cx="22.625106" borderopacity="1.0" inkscape:zoom="11.197802" pagecolor="#ffffff" id="base" bordercolor="#666666" inkscape:cy="12.629686" inkscape:pageopacity="0.0" inkscape:window-y="24" inkscape:window-maximized="1" inkscape:grid-bbox="true" inkscape:current-layer="g13" inkscape:pageshadow="2" inkscape:window-x="49" inkscape:window-width="1317" inkscape:document-units="px" inkscape:window-height="744">
	</sodipodi:namedview>
<g>
	<g>
		<g>
			<path fill="#FFFFFF" stroke="#414141" stroke-width="0.75" stroke-miterlimit="10" d="M61.188,34.973
				c-0.082-0.604-0.482-1.094-1.027-1.363c0.038-0.188,0.048-0.379,0.02-0.576c-0.134-1.018-1.174-1.723-2.318-1.569
				c-0.662,0.088-1.221,0.445-1.536,0.931c-1.373,0.305-2.324,1.4-2.169,2.567c0.164,1.246,1.533,2.09,3.057,1.89
				c0.197-0.025,0.385-0.069,0.568-0.127c0.421,0.303,0.986,0.45,1.578,0.373C60.5,36.941,61.324,35.993,61.188,34.973z"/>
			<path fill="#FFFFFF" stroke="#414141" stroke-width="0.75" stroke-miterlimit="10" d="M59.581,18.342
				c-0.261-0.037-0.521-0.053-0.776-0.053c0.004-0.014,0.01-0.035,0.014-0.053c0.279-2.062-1.299-3.978-3.53-4.286
				c-1.3-0.177-2.528,0.229-3.386,1.003c-0.61-2.03-2.354-3.625-4.59-3.931c-3.056-0.418-5.869,1.716-6.291,4.775
				c-0.117,0.848-0.035,1.678,0.203,2.442c-0.166-0.058-0.338-0.095-0.522-0.122c-1.769-0.238-3.403,0.997-3.647,2.766
				c-0.244,1.775,0.996,3.407,2.771,3.649c0.227,0.028,0.446,0.038,0.669,0.021c-0.057,0.206-0.1,0.416-0.133,0.635
				c-0.385,2.83,1.593,5.441,4.427,5.83c1.75,0.237,3.409-0.425,4.519-1.633c0.338,1.164,1.391,2.094,2.745,2.28
				c1.718,0.237,3.292-0.813,3.632-2.363c0.139,0.058,0.285,0.097,0.441,0.121c0.914,0.125,1.758-0.466,1.876-1.319
				c0.022-0.18,0.015-0.347-0.021-0.512c0.107,0.021,0.218,0.041,0.326,0.053c2.758,0.381,5.282-1.394,5.635-3.965
				C64.293,21.109,62.346,18.723,59.581,18.342z"/>
			<path fill="#FFFFFF" stroke="#414141" stroke-width="0.75" stroke-miterlimit="10" d="M55.622,38.725
				c-0.399-0.562-1.291-0.635-2.106-0.215c-0.44-0.359-1.097-0.396-1.589-0.043c-0.589,0.426-0.733,1.239-0.313,1.825
				c0.162,0.224,0.386,0.383,0.628,0.464c0.034,0.102,0.079,0.2,0.146,0.29c0.456,0.642,1.559,0.646,2.453,0.003
				C55.732,40.404,56.083,39.365,55.622,38.725z"/>
		</g>
		<g>
			<circle fill="#414141" cx="46.77" cy="21.332" r="0.88"/>
			<circle fill="#414141" cx="50.505" cy="21.332" r="0.881"/>
			<path fill="#414141" d="M54.236,20.452c0.488,0,0.882,0.394,0.882,0.88s-0.394,0.879-0.882,0.879
				c-0.483,0-0.879-0.395-0.879-0.879C53.357,20.846,53.753,20.452,54.236,20.452z"/>
		</g>
	</g>
</g>
<path fill-rule="evenodd" clip-rule="evenodd" fill="#414141" stroke="#FFFFFF" stroke-width="0.25" stroke-miterlimit="10" d="
	M27.041,3.922l0.004,19.188h-2.121c-0.131,0-0.257,0.029-0.368,0.074c-0.119,0.052-0.227,0.119-0.316,0.208
	c-0.089,0.089-0.159,0.197-0.208,0.315c-0.048,0.115-0.074,0.238-0.074,0.368v1.479l-0.427-0.298
	c-0.034-0.026-0.187-0.115-0.224-0.115c-0.081-0.026-0.167-0.041-0.249-0.041c-0.085,0-0.171,0.015-0.252,0.037
	c-0.078,0.026-0.156,0.063-0.227,0.112l-1.148,0.81l-1.145-0.803c-0.071-0.052-0.146-0.089-0.224-0.115
	c-0.077-0.026-0.163-0.041-0.248-0.041c-0.082,0-0.168,0.015-0.249,0.037c-0.082,0.026-0.156,0.063-0.227,0.112l-1.152,0.81
	l-1.208-0.848c-0.021-0.015-0.137-0.07-0.159-0.07c-0.074-0.026-0.163-0.041-0.245-0.041c-0.085,0-0.171,0.015-0.249,0.037
	c-0.082,0.026-0.16,0.063-0.23,0.112l-1.148,0.81l-1.211-0.848c-0.022-0.015-0.138-0.07-0.156-0.07
	c-0.078-0.026-0.163-0.041-0.249-0.041c-0.082,0-0.167,0.015-0.249,0.037c-0.078,0.026-0.156,0.063-0.227,0.112l-1.152,0.81
	l-1.211-0.848c-0.022-0.015-0.133-0.07-0.152-0.07c-0.082-0.026-0.167-0.041-0.249-0.041c-0.085,0-0.171,0.015-0.249,0.037
	c-0.082,0.026-0.16,0.063-0.23,0.112l-1.148,0.81L7.66,25.496V3.922c0-0.108-0.007-0.219-0.026-0.331
	C7.623,3.524,7.612,3.458,7.593,3.395h18.92c0.019,0,0.2,0.019,0.2,0.037c0.063,0.026,0.123,0.067,0.175,0.115
	C26.904,3.562,27,3.722,27.004,3.722C27.026,3.781,27.041,3.848,27.041,3.922L27.041,3.922z M6.021,25.919
	c0,0.067,0.007,0.134,0.022,0.193c0.003,0,0.067,0.167,0.067,0.186c0.011,0.016,0.111,0.16,0.111,0.16
	c0.041,0.049,0.093,0.093,0.148,0.13l1.62,1.145c0.071,0.045,0.149,0.082,0.227,0.108c0.082,0.025,0.167,0.037,0.253,0.037
	c0.085-0.004,0.171-0.016,0.245-0.041c0.082-0.022,0.16-0.063,0.227-0.111l1.141-0.803l1.148,0.81
	c0.071,0.045,0.148,0.082,0.23,0.108c0.082,0.025,0.164,0.037,0.249,0.037c0.086-0.004,0.171-0.016,0.249-0.041
	c0.078-0.022,0.156-0.063,0.223-0.111l1.141-0.803l1.152,0.81c0.071,0.045,0.149,0.082,0.227,0.108
	c0.089,0.025,0.175,0.04,0.268,0.037l-0.658,0.516l-0.94-0.739c-0.022-0.019-0.238-0.13-0.238-0.13
	c-0.085-0.029-0.178-0.048-0.271-0.048c-0.097-0.004-0.219,0.04-0.268,0.04c-0.085,0.03-0.167,0.074-0.242,0.134l-0.951,0.743
	l-0.94-0.739c-0.022-0.019-0.234-0.13-0.234-0.13c-0.085-0.029-0.178-0.048-0.271-0.048c-0.097-0.004-0.219,0.04-0.268,0.04
	c-0.085,0.03-0.167,0.074-0.242,0.134l-0.951,0.743l-0.94-0.739c-0.022-0.019-0.234-0.13-0.234-0.13
	c-0.085-0.029-0.178-0.048-0.271-0.048c-0.101-0.004-0.219,0.04-0.268,0.04c-0.085,0.03-0.167,0.074-0.242,0.134L5.59,28.394
	l-0.631-0.498V3.922c0-0.149,0.059-0.283,0.156-0.375C5.13,3.532,5.286,3.432,5.286,3.432c0.06-0.026,0.13-0.037,0.205-0.037
	s0.178,0.037,0.201,0.037c0.067,0.026,0.123,0.067,0.174,0.115C5.892,3.573,5.98,3.685,5.98,3.722
	c0.008,0.015,0.041,0.201,0.041,0.201V25.919L6.021,25.919z M15.779,27.477c0.089,0.003,0.178,0.019,0.26,0.048
	c0,0,0.215,0.111,0.238,0.13l0.94,0.739l0.71-0.557c-0.074-0.026-0.146-0.06-0.212-0.104l-1.148-0.81L15.779,27.477L15.779,27.477z
	 M18.948,27.524c0.086,0.029,0.163,0.074,0.234,0.13l0.94,0.739l0.843-0.661h-0.007l-1.148-0.81L18.948,27.524L18.948,27.524z
	 M22.047,27.625l0.041,0.029l0.94,0.739l0.636-0.498v-0.542l-0.613-0.431L22.047,27.625L22.047,27.625z M3.316,3.922
	c0-0.293,0.06-0.572,0.167-0.833c0.004,0,0.405-0.639,0.472-0.702c0.39-0.394,0.937-0.636,1.535-0.636h21.023
	c0.29,0,0.572,0.06,0.828,0.164c0.131,0,0.599,0.368,0.703,0.472c0.297,0,0.639,1.23,0.639,1.535v1.898
	c0,5.745-0.004,11.486,0,17.23c0,1.155-0.037,1.301-0.617,1.836c-0.836,0.776-2.352,2.348-2.556,2.556c0,0-0.16,0.127-0.179,0.134
	l-0.033,0.714c0.004,0.126-0.026,0.253-0.078,0.36c0,0.06-0.186,0.249-0.234,0.286l-1.441,1.13c-0.078,0.06-0.145,0.1-0.238,0.134
	c0,0.021-0.241,0.048-0.268,0.048c-0.096,0-0.182-0.011-0.271-0.041c-0.086-0.029-0.168-0.074-0.242-0.134l-0.951-0.743
	l-0.937,0.736c-0.078,0.06-0.145,0.1-0.237,0.134c0,0.021-0.241,0.048-0.271,0.048c-0.093,0-0.182-0.011-0.271-0.041
	c-0.082-0.029-0.164-0.074-0.238-0.134L18.67,29.33l-0.937,0.736c-0.078,0.06-0.148,0.1-0.237,0.134
	c0,0.021-0.242,0.048-0.271,0.048c-0.094,0-0.182-0.011-0.271-0.041c-0.082-0.029-0.167-0.074-0.242-0.134l-0.947-0.743l-0.94,0.736
	c-0.075,0.06-0.145,0.1-0.238,0.134c0,0.021-0.237,0.048-0.267,0.048c-0.093,0-0.182-0.011-0.271-0.041
	c-0.082-0.029-0.167-0.074-0.242-0.134l-0.947-0.743l-0.937,0.736c-0.078,0.06-0.148,0.1-0.241,0.134
	c0,0.021-0.242,0.048-0.268,0.048c-0.093,0-0.182-0.011-0.271-0.041c-0.085-0.029-0.167-0.074-0.241-0.134L9.949,29.33L9.02,30.059
	c-0.074,0.063-0.152,0.107-0.245,0.142c0,0.021-0.242,0.048-0.268,0.048c-0.097,0-0.186-0.011-0.271-0.041
	c-0.085-0.029-0.167-0.074-0.241-0.134L7.043,29.33l-0.937,0.736c-0.078,0.06-0.148,0.1-0.238,0.134
	c0,0.021-0.242,0.048-0.271,0.048c-0.093,0-0.182-0.011-0.271-0.041c-0.082-0.029-0.164-0.074-0.238-0.134
	c-0.394-0.309-1.482-1.018-1.683-1.412c-0.004,0.008-0.06-0.156-0.06-0.171c-0.011,0-0.026-0.163-0.026-0.178L3.316,3.922
	L3.316,3.922z M9.719,10.332c-0.36,0-0.654,0.293-0.654,0.654v3.556c0,0.356,0.297,0.653,0.654,0.653h6.599
	c0.36,0,0.654-0.297,0.654-0.653v-3.556c0-0.36-0.294-0.654-0.654-0.654H9.719L9.719,10.332z M9.719,14.386h6.603v-0.877
	l-0.866-0.736c-0.193-0.164-0.476-0.186-0.691-0.044l-1.453,0.929c-0.208,0.134-0.479,0.123-0.676-0.029l-1.924-1.509
	c-0.205-0.164-0.495-0.167-0.703-0.011l-0.29,0.212V14.386L9.719,14.386z M9.733,21.319c-0.36,0-0.654,0.293-0.654,0.654l0,0
	c0,0.356,0.297,0.653,0.654,0.653h15.082c0.36,0,0.654-0.297,0.654-0.653l0,0c0-0.361-0.294-0.654-0.654-0.654H9.733L9.733,21.319z
	 M9.733,17.581c-0.36,0-0.654,0.297-0.654,0.654l0,0c0,0.36,0.297,0.654,0.654,0.654h15.082c0.36,0,0.654-0.294,0.654-0.654l0,0
	c0-0.357-0.294-0.654-0.654-0.654H9.733L9.733,17.581z M19.294,13.847c-0.36,0-0.653,0.294-0.653,0.658l0,0
	c0,0.356,0.293,0.65,0.653,0.65h5.521c0.36,0,0.654-0.294,0.654-0.65l0,0c0-0.364-0.294-0.658-0.654-0.658H19.294L19.294,13.847z
	 M19.294,10.332c-0.36,0-0.653,0.293-0.653,0.654l0,0c0,0.36,0.293,0.654,0.653,0.654h5.521c0.36,0,0.654-0.293,0.654-0.654l0,0
	c0-0.36-0.294-0.654-0.654-0.654H19.294L19.294,10.332z"/>
</svg>
