<?xml version="1.0" encoding="utf-8"?>
<!-- Generator: Adobe Illustrator 16.0.0, SVG Export Plug-In . SVG Version: 6.00 Build 0)  -->
<!DOCTYPE svg PUBLIC "-//W3C//DTD SVG 1.1//EN" "http://www.w3.org/Graphics/SVG/1.1/DTD/svg11.dtd">
<svg version="1.1"
	 id="svg3024" xmlns:inkscape="http://www.inkscape.org/namespaces/inkscape" xmlns:sodipodi="http://sodipodi.sourceforge.net/DTD/sodipodi-0.dtd" xmlns:svg="http://www.w3.org/2000/svg" xmlns:rdf="http://www.w3.org/1999/02/22-rdf-syntax-ns#" xmlns:cc="http://creativecommons.org/ns#" xmlns:dc="http://purl.org/dc/elements/1.1/" inkscape:version="0.48.4 r9939" sodipodi:docname="textos.svg"
	 xmlns="http://www.w3.org/2000/svg" xmlns:xlink="http://www.w3.org/1999/xlink" x="0px" y="0px" width="32px" height="32px"
	 viewBox="0 0 32 32" enable-background="new 0 0 32 32" xml:space="preserve">
<sodipodi:namedview  showgrid="true" inkscape:cx="21.679471" borderopacity="1.0" inkscape:zoom="13.587577" pagecolor="#ffffff" id="base" bordercolor="#666666" inkscape:cy="17.722336" inkscape:pageopacity="0.0" inkscape:window-y="24" inkscape:window-maximized="1" inkscape:grid-bbox="true" inkscape:current-layer="layer1" inkscape:pageshadow="2" inkscape:window-x="49" inkscape:window-width="1317" inkscape:document-units="px" inkscape:window-height="744">
	</sodipodi:namedview>
<g>
	<path fill="#414141" d="M0.539,25.324c0,0,0,0-0.001,0c-0.118,0-0.209-0.094-0.209-0.207v-0.095l0.304-21.03
		c0.001-0.042,0.016-0.084,0.035-0.121c0.262-1.851,1.847-3.238,3.73-3.238h0.046c0.119,0,0.215,0.094,0.215,0.21v20.712
		c0,0.117-0.095,0.211-0.215,0.211H4.398c-1.893,0-3.597,1.524-3.647,3.263v0.084C0.751,25.233,0.65,25.324,0.539,25.324z
		 M1.053,4.099L0.771,23.467c0.667-1.186,2.004-2.055,3.462-2.118V1.059C2.605,1.141,1.264,2.385,1.078,4.021
		C1.074,4.049,1.065,4.073,1.053,4.099z"/>
	<path fill="#414141" d="M26.188,21.768H4.232V0.634h21.955V21.768z M4.659,21.345h21.108V1.056H4.659V21.345z"/>
	<path fill="#414141" d="M11.46,30.884l-2.475-2.052l-2.482,2.052v-5.631h4.957V30.884z M6.927,25.677v4.309l2.056-1.707
		l2.054,1.707v-4.309H6.927z"/>
	<path fill="#414141" d="M26.188,28.163h-15.15v-2.486h-4.11v2.486H4.398c-1.677,0-3.045-1.369-3.045-3.049
		c0-1.681,1.368-3.05,3.045-3.05h21.79V28.163z M11.46,27.738h14.308v-5.251H4.398c-1.446,0-2.623,1.179-2.623,2.627
		c0,1.447,1.177,2.623,2.623,2.623h2.104v-2.485h4.957v2.486H11.46z"/>
	<path fill="#414141" d="M25.977,0.844v3.154v9.365v8.193v0.721v5.676v0.716H11.25v1.768l-2.128-1.768H8.844l-2.127,1.768v-1.768
		H4.398c-1.961,0-3.552-1.588-3.552-3.552V3.998h0.023c0.2-1.777,1.703-3.154,3.529-3.154h0.046h8.964h9.011H25.977L25.977,0.844z
		 M25.977,0h-3.558H13.41H4.444H4.398c-2.165,0-3.993,1.568-4.34,3.681C0.021,3.776,0,3.884,0,3.998v21.119
		c0,2.423,1.971,4.4,4.398,4.4h1.474v0.919c0,0.326,0.188,0.625,0.484,0.765c0.116,0.053,0.235,0.08,0.36,0.08
		c0.191,0,0.383-0.067,0.54-0.193l1.728-1.435l1.724,1.435c0.157,0.129,0.349,0.193,0.542,0.193c0.121,0,0.244-0.027,0.358-0.08
		c0.296-0.14,0.486-0.438,0.486-0.765v-0.919h13.883c0.468,0,0.843-0.379,0.843-0.849v-0.716v-5.676v-0.721v-8.193V3.998V0.844
		C26.819,0.378,26.444,0,25.977,0L25.977,0z"/>
</g>
</svg>
