<?xml version="1.0" encoding="utf-8"?>
<!-- Generator: Adobe Illustrator 16.0.0, SVG Export Plug-In . SVG Version: 6.00 Build 0)  -->
<!DOCTYPE svg PUBLIC "-//W3C//DTD SVG 1.1//EN" "http://www.w3.org/Graphics/SVG/1.1/DTD/svg11.dtd">
<svg version="1.1"
	 id="svg3024" xmlns:inkscape="http://www.inkscape.org/namespaces/inkscape" xmlns:sodipodi="http://sodipodi.sourceforge.net/DTD/sodipodi-0.dtd" xmlns:svg="http://www.w3.org/2000/svg" xmlns:rdf="http://www.w3.org/1999/02/22-rdf-syntax-ns#" xmlns:cc="http://creativecommons.org/ns#" xmlns:dc="http://purl.org/dc/elements/1.1/" inkscape:version="0.48.4 r9939" sodipodi:docname="webaula.svg"
	 xmlns="http://www.w3.org/2000/svg" xmlns:xlink="http://www.w3.org/1999/xlink" x="0px" y="0px" width="32px" height="32px"
	 viewBox="0 0 32 32" enable-background="new 0 0 32 32" xml:space="preserve">
<sodipodi:namedview  showgrid="true" inkscape:cx="16" borderopacity="1.0" inkscape:zoom="11.197802" pagecolor="#ffffff" id="base" bordercolor="#666666" inkscape:cy="24.542987" inkscape:pageopacity="0.0" inkscape:window-y="24" inkscape:window-maximized="1" inkscape:grid-bbox="true" inkscape:current-layer="layer1" inkscape:pageshadow="2" inkscape:window-x="49" inkscape:window-width="1317" inkscape:document-units="px" inkscape:window-height="744">
	</sodipodi:namedview>
<g>
	<path fill="#414141" d="M15.999,1.614c7.946,0,14.389,6.441,14.389,14.386c0,7.945-6.442,14.385-14.389,14.385
		C8.057,30.385,1.614,23.945,1.614,16C1.614,8.053,8.057,1.614,15.999,1.614L15.999,1.614z M15.999,0.73
		C7.58,0.73,0.729,7.58,0.729,16s6.85,15.27,15.27,15.27c8.42,0,15.271-6.85,15.271-15.27S24.419,0.73,15.999,0.73L15.999,0.73z"/>
	<path fill="#414141" d="M15.999,27.721C9.536,27.721,4.277,22.465,4.277,16c0-6.463,5.259-11.722,11.722-11.722
		C22.465,4.278,27.72,9.537,27.72,16C27.72,22.465,22.465,27.721,15.999,27.721z M15.999,4.718C9.781,4.718,4.719,9.779,4.719,16
		c0,6.221,5.062,11.279,11.28,11.279c6.222,0,11.279-5.059,11.279-11.279C27.278,9.779,22.221,4.718,15.999,4.718z"/>
	<path fill="#414141" d="M11.145,24.109c-0.678,0-1.115-0.533-1.115-1.369V9.253c0-0.831,0.437-1.366,1.115-1.366
		c0.263,0,0.542,0.086,0.827,0.249l11.682,6.744c0.5,0.289,0.775,0.688,0.775,1.121c0,0.435-0.275,0.833-0.775,1.118l-11.682,6.746
		C11.687,24.031,11.408,24.109,11.145,24.109z M11.145,8.327c-0.42,0-0.673,0.348-0.673,0.927v13.491c0,0.582,0.252,0.93,0.673,0.93
		c0.181,0,0.392-0.068,0.603-0.191l11.688-6.746c0.354-0.207,0.55-0.467,0.55-0.738c0-0.271-0.197-0.531-0.55-0.738L11.748,8.515
		C11.537,8.394,11.326,8.327,11.145,8.327z"/>
</g>
</svg>
