<?xml version="1.0" encoding="utf-8"?>
<!-- Generator: Adobe Illustrator 20.1.0, SVG Export Plug-In . SVG Version: 6.00 Build 0)  -->
<svg version="1.1" id="Camada_1" xmlns="http://www.w3.org/2000/svg" xmlns:xlink="http://www.w3.org/1999/xlink" x="0px" y="0px"
	 viewBox="2.1 0.1 25 25" style="enable-background:new 2.1 0.1 25 25;" xml:space="preserve">
<style type="text/css">
	.st0{fill:none;}
	.st1{fill:#E26161;}
	.st2{opacity:0.2;}
	.st3{fill:#231F20;}
	.st4{fill:#FFFFFF;}
	.st5{fill:#4D4D4D;}
	.st6{fill:#212930;}
	.st7{fill:#e4376e;}
</style>
<rect x="-171" y="99.7" class="st0" width="31.2" height="3.1"/>
<g>
	<g>
		<g>
			<path class="st1" d="M526.7,1685.2c0,11.8-9.7,21.9-21.5,21.9H125.7c-11.8,0-22.1-10.1-22.1-21.9v-42.9
				c0-11.8,10.2-21.2,22.1-21.2h379.4c11.8,0,21.5,9.4,21.5,21.2V1685.2z"/>
			<g>
				
					<text transform="matrix(1 0 0 1 211.2488 1677.167)" class="st4" style="font-family:'OpenSans-Semibold'; font-size:34.2965px;">Fórum</text>
			</g>
		</g>
	</g>
</g>
<g class="st2">
	<g>
		<g>
			<path class="st3" d="M151.2,1673c0,5.9,4.8,10.8,10.8,10.8h26.9c5.9,0,10.8-4.8,10.8-10.8v-16.4c0-5.9-4.8-10.8-10.8-10.8H162
				c-5.9,0-10.8,4.8-10.8,10.8V1673z"/>
		</g>
		<g>
			<path class="st3" d="M186.2,1645.8h2.7v2.7C188.9,1647,187.7,1645.8,186.2,1645.8z"/>
		</g>
		<g>
			<path class="st3" d="M180.8,1645.8c-1.5,0-2.7,1.2-2.7,2.7v-2.7H180.8z"/>
		</g>
		<g>
			<path class="st3" d="M180.8,1645.8h5.4c1.5,0,2.7,1.2,2.7,2.7v32.5v2.7v2.7v5.3c0,1.5-0.9,1.8-1.9,0.8l-3.5-3.4l-5.4-5.3v-2.7
				v-32.5C178.1,1647,179.4,1645.8,180.8,1645.8z"/>
		</g>
	</g>
	<g>
		<g>
			<path class="st3" d="M172.8,1667.5c0,5.9-4.8,10.8-10.8,10.8h-26.9c-5.9,0-10.8-4.8-10.8-10.8v-16.4c0-5.9,4.8-10.8,10.8-10.8
				H162c5.9,0,10.8,4.8,10.8,10.8V1667.5z"/>
		</g>
		<g>
			<path class="st3" d="M137.8,1640.4h-2.7v2.7C135.1,1641.6,136.3,1640.4,137.8,1640.4z"/>
		</g>
		<g>
			<path class="st3" d="M143.1,1640.4c1.5,0,2.7,1.2,2.7,2.7v-2.7H143.1z"/>
		</g>
		<g>
			<path class="st3" d="M143.1,1640.4h-5.4c-1.5,0-2.7,1.2-2.7,2.7v32.5v2.7v2.7v5.3c0,1.5,0.9,1.8,1.9,0.8l3.5-3.4l5.4-5.3v-2.7
				v-32.5C145.8,1641.6,144.6,1640.4,143.1,1640.4z"/>
		</g>
	</g>
	<g>
		<circle class="st3" cx="137.8" cy="1659.2" r="2.7"/>
		<circle class="st3" cx="148.5" cy="1659.2" r="2.7"/>
		<circle class="st3" cx="159.3" cy="1659.2" r="2.7"/>
	</g>
</g>
<g>
	<g>
		<g>
			<path class="st4" d="M149.2,1671c0,5.9,4.8,10.8,10.8,10.8h26.9c5.9,0,10.8-4.8,10.8-10.8v-16.4c0-5.9-4.8-10.8-10.8-10.8H160
				c-5.9,0-10.8,4.8-10.8,10.8V1671z"/>
		</g>
		<g>
			<path class="st4" d="M184.2,1643.8h2.7v2.7C186.9,1645,185.7,1643.8,184.2,1643.8z"/>
		</g>
		<g>
			<path class="st4" d="M178.8,1643.8c-1.5,0-2.7,1.2-2.7,2.7v-2.7H178.8z"/>
		</g>
		<g>
			<path class="st4" d="M178.8,1643.8h5.4c1.5,0,2.7,1.2,2.7,2.7v32.5v2.7v2.7v5.3c0,1.5-0.9,1.8-1.9,0.8l-3.5-3.4l-5.4-5.3v-2.7
				v-32.5C176.1,1645,177.4,1643.8,178.8,1643.8z"/>
		</g>
	</g>
	<g>
		<g>
			<path class="st5" d="M170.8,1665.5c0,5.9-4.8,10.8-10.8,10.8h-26.9c-5.9,0-10.8-4.8-10.8-10.8v-16.4c0-5.9,4.8-10.8,10.8-10.8
				H160c5.9,0,10.8,4.8,10.8,10.8V1665.5z"/>
		</g>
		<g>
			<path class="st5" d="M135.8,1638.4h-2.7v2.7C133.1,1639.6,134.3,1638.4,135.8,1638.4z"/>
		</g>
		<g>
			<path class="st5" d="M141.1,1638.4c1.5,0,2.7,1.2,2.7,2.7v-2.7H141.1z"/>
		</g>
		<g>
			<path class="st5" d="M141.1,1638.4h-5.4c-1.5,0-2.7,1.2-2.7,2.7v32.5v2.7v2.7v5.3c0,1.5,0.9,1.8,1.9,0.8l3.5-3.4l5.4-5.3v-2.7
				v-32.5C143.8,1639.6,142.6,1638.4,141.1,1638.4z"/>
		</g>
	</g>
	<g>
		<circle class="st4" cx="135.8" cy="1657.2" r="2.7"/>
		<circle class="st4" cx="146.5" cy="1657.2" r="2.7"/>
		<circle class="st4" cx="157.3" cy="1657.2" r="2.7"/>
	</g>
</g>
<g>
	<g>
		<g>
			<g>
				<path class="st4" d="M20,21c0,0.1-0.1,0.2-0.2,0.2H6.4c-0.1,0-0.2-0.1-0.2-0.2v-5.5c0-0.1,0.1-0.2,0.2-0.2h13.4
					c0.1,0,0.2,0.1,0.2,0.2V21z"/>
				<path class="st6" d="M19.8,21.6H6.4c-0.3,0-0.6-0.3-0.6-0.6v-5.5c0-0.3,0.3-0.6,0.6-0.6h13.4c0.3,0,0.6,0.3,0.6,0.6V21
					C20.4,21.3,20.1,21.6,19.8,21.6z M6.6,20.9h13.1v-5.2H6.6V20.9z"/>
			</g>
			<g>
				<g>
					<g>
						<line class="st7" x1="7.3" y1="16.8" x2="8.4" y2="16.8"/>
						<rect x="7.3" y="16.5" class="st7" width="1" height="0.7"/>
					</g>
					<g>
						<line class="st7" x1="9.1" y1="16.8" x2="10.1" y2="16.8"/>
						<rect x="9.1" y="16.5" class="st7" width="1" height="0.7"/>
					</g>
					<g>
						<line class="st7" x1="10.8" y1="16.8" x2="11.9" y2="16.8"/>
						<rect x="10.8" y="16.5" class="st7" width="1" height="0.7"/>
					</g>
					<g>
						<line class="st7" x1="12.6" y1="16.8" x2="13.6" y2="16.8"/>
						<rect x="12.6" y="16.5" class="st7" width="1" height="0.7"/>
					</g>
					<g>
						<line class="st7" x1="14.3" y1="16.8" x2="15.4" y2="16.8"/>
						<rect x="14.3" y="16.5" class="st7" width="1" height="0.7"/>
					</g>
					<g>
						<line class="st7" x1="16.1" y1="16.8" x2="17.1" y2="16.8"/>
						<rect x="16.1" y="16.5" class="st7" width="1" height="0.7"/>
					</g>
					<g>
						<line class="st7" x1="17.9" y1="16.8" x2="18.9" y2="16.8"/>
						<rect x="17.9" y="16.5" class="st7" width="1" height="0.7"/>
					</g>
				</g>
				<g>
					<g>
						<line class="st7" x1="7.3" y1="18.3" x2="8.4" y2="18.3"/>
						<rect x="7.3" y="17.9" class="st7" width="1" height="0.7"/>
					</g>
					<g>
						<line class="st7" x1="9.1" y1="18.3" x2="10.1" y2="18.3"/>
						<rect x="9.1" y="17.9" class="st7" width="1" height="0.7"/>
					</g>
					<g>
						<line class="st7" x1="10.8" y1="18.3" x2="11.9" y2="18.3"/>
						<rect x="10.8" y="17.9" class="st7" width="1" height="0.7"/>
					</g>
					<g>
						<line class="st7" x1="12.6" y1="18.3" x2="13.6" y2="18.3"/>
						<rect x="12.6" y="17.9" class="st7" width="1" height="0.7"/>
					</g>
					<g>
						<line class="st7" x1="14.3" y1="18.3" x2="15.4" y2="18.3"/>
						<rect x="14.3" y="17.9" class="st7" width="1" height="0.7"/>
					</g>
					<g>
						<line class="st7" x1="16.1" y1="18.3" x2="17.1" y2="18.3"/>
						<rect x="16.1" y="17.9" class="st7" width="1" height="0.7"/>
					</g>
					<g>
						<line class="st7" x1="17.9" y1="18.3" x2="18.9" y2="18.3"/>
						<rect x="17.9" y="17.9" class="st7" width="1" height="0.7"/>
					</g>
				</g>
				<g>
					<g>
						<line class="st7" x1="7.3" y1="19.7" x2="8.4" y2="19.7"/>
						<rect x="7.3" y="19.4" class="st7" width="1" height="0.7"/>
					</g>
					<g>
						<line class="st7" x1="9.1" y1="19.7" x2="10.1" y2="19.7"/>
						<rect x="9.1" y="19.4" class="st7" width="1" height="0.7"/>
					</g>
					<g>
						<line class="st7" x1="10.8" y1="19.7" x2="17.2" y2="19.7"/>
						<rect x="10.8" y="19.4" class="st7" width="6.3" height="0.7"/>
					</g>
					<g>
						<line class="st7" x1="17.9" y1="19.7" x2="18.9" y2="19.7"/>
						<rect x="17.9" y="19.4" class="st7" width="1" height="0.7"/>
					</g>
				</g>
			</g>
		</g>
	</g>
	<g>
		<g>
			<rect x="12.1" y="8.7" class="st6" width="0.4" height="0.7"/>
		</g>
		<g>
			<path class="st6" d="M11.9,13.5h-0.7v-0.7h0.7V13.5z M10.5,13.5H9.8v-0.7h0.7V13.5z M9.1,13.5H8.9c-0.2,0-0.4,0-0.5-0.1l0.2-0.7
				c0.1,0,0.2,0,0.4,0h0.2V13.5z M7.6,13.1c-0.2-0.1-0.4-0.3-0.6-0.6l0.6-0.4c0.1,0.2,0.3,0.3,0.4,0.4L7.6,13.1z M6.6,11.8
				c-0.1-0.2-0.1-0.5-0.1-0.7l0-0.1l0.7,0l0,0c0,0.2,0,0.4,0.1,0.5L6.6,11.8z M7.3,10.5l-0.7-0.3c0.1-0.3,0.2-0.5,0.4-0.7L7.6,10
				C7.5,10.1,7.4,10.3,7.3,10.5z M8.1,9.6L7.7,9C8,8.8,8.2,8.7,8.5,8.7l0.1,0.7C8.4,9.4,8.2,9.5,8.1,9.6z M11.4,9.4h-0.7V8.7h0.7
				V9.4z M9.9,9.4H9.2V8.7h0.7V9.4z"/>
		</g>
		<g>
			<rect x="12.7" y="12.7" class="st6" width="0.4" height="0.7"/>
		</g>
	</g>
	<g>
		<g>
			<rect x="13" y="12.7" class="st6" width="0.4" height="0.7"/>
		</g>
		<g>
			<path class="st6" d="M21.5,17.1h-0.5v-0.7h0.5c0.1,0,0.1,0,0.2,0l0.1,0.7C21.7,17.1,21.6,17.1,21.5,17.1z M22.6,16.8l-0.4-0.6
				c0.2-0.1,0.3-0.2,0.4-0.4l0.6,0.4C23.1,16.4,22.9,16.6,22.6,16.8z M23.6,15.4l-0.7-0.2c0-0.1,0-0.2,0-0.3c0-0.1,0-0.2,0-0.2
				l0.7-0.1c0,0.1,0,0.2,0,0.4C23.7,15.1,23.7,15.2,23.6,15.4z M22.7,14.1c-0.1-0.2-0.2-0.3-0.4-0.4l0.4-0.6
				c0.2,0.2,0.4,0.4,0.6,0.6L22.7,14.1z M21.8,13.5c-0.1,0-0.2,0-0.3,0h-0.3v-0.7h0.3c0.2,0,0.3,0,0.5,0L21.8,13.5z M20.5,13.5h-0.7
				v-0.7h0.7V13.5z M19,13.5h-0.7v-0.7H19V13.5z M17.6,13.5h-0.7v-0.7h0.7V13.5z M16.2,13.5h-0.7v-0.7h0.7V13.5z M14.8,13.5H14v-0.7
				h0.7V13.5z"/>
		</g>
		<g>
			<rect x="20" y="16.3" class="st6" width="0.4" height="0.7"/>
		</g>
	</g>
	<g>
		<g>
			<g>
				<path class="st4" d="M14.6,5.5c-0.8,0-1.5,0-2.3,0c-1,0-1.7,0.6-1.7,1.2c0,0.7,0,1.3,0,2c0,0.7,0.3,1.1,1.7,1.8
					c0.8,0.4,1.6,0.7,2.3,0.8L14.6,5.5z"/>
				<path class="st6" d="M14.7,11.7C14.7,11.7,14.7,11.7,14.7,11.7c-0.8-0.2-1.6-0.4-2.5-0.8c-1.4-0.6-1.9-1.2-1.9-2.1l0-2
					c0-0.9,0.9-1.6,2.1-1.6l2.3,0c0.1,0,0.2,0,0.3,0.1C15,5.3,15,5.4,15,5.5l0.1,5.8c0,0.1,0,0.2-0.1,0.3
					C14.9,11.6,14.8,11.7,14.7,11.7z M14.3,5.8l-1.9,0c-0.8,0-1.4,0.5-1.4,0.9l0,2c0,0.4,0.1,0.8,1.5,1.4c0.7,0.3,1.3,0.5,1.8,0.7
					L14.3,5.8z"/>
			</g>
			<g>
				<path class="st4" d="M14.6,5.5c0.8,0,1.5,0,2.3,0c1,0,1.8,0.6,1.8,1.2c0,0.7,0,1.3,0,2c0,0.7-0.3,1.1-1.7,1.8
					c-0.8,0.4-1.6,0.7-2.3,0.9L14.6,5.5z"/>
				<path class="st6" d="M14.7,11.7c-0.1,0-0.2,0-0.2-0.1c-0.1-0.1-0.1-0.2-0.1-0.3l-0.1-5.8c0-0.2,0.2-0.4,0.4-0.4l2.3,0
					c1.2,0,2.1,0.7,2.1,1.6l0,2c0,0.9-0.5,1.5-1.9,2.1C16.3,11.2,15.5,11.5,14.7,11.7C14.7,11.7,14.7,11.7,14.7,11.7z M15,5.8l0,5
					c0.6-0.2,1.2-0.4,1.8-0.7c1.4-0.7,1.5-1.1,1.5-1.5l0-2c0-0.4-0.6-0.9-1.4-0.9L15,5.8z"/>
			</g>
		</g>
		<g>
			<path class="st4" d="M14.7,9L7.1,6.2l7.5-3L22.2,6L14.7,9z"/>
			<path class="st6" d="M14.7,9.4L6.1,6.2l8.5-3.4L23.2,6L14.7,9.4z M8.1,6.2l6.6,2.5l6.5-2.6l-6.6-2.5L8.1,6.2z"/>
		</g>
		<g>
			<polygon class="st7" points="18.9,10.2 18.9,7.5 14.3,5.7 14.5,5.1 19.6,7 19.6,10.2 			"/>
		</g>
		<g>
			
				<ellipse transform="matrix(0.9999 -1.018227e-02 1.018227e-02 0.9999 -5.374997e-02 0.1494)" class="st4" cx="14.6" cy="5.4" rx="0.8" ry="0.4"/>
			<path class="st6" d="M14.6,6.1c-0.7,0-1.2-0.3-1.2-0.8c0-0.5,0.5-0.8,1.2-0.8h0c0.7,0,1.2,0.3,1.2,0.8
				C15.8,5.8,15.3,6.1,14.6,6.1L14.6,6.1z M14.3,5.4c0.1,0,0.2,0.1,0.3,0.1v0.4l0-0.4c0.2,0,0.3,0,0.4-0.1c-0.1,0-0.2-0.1-0.3-0.1
				C14.5,5.3,14.4,5.3,14.3,5.4z"/>
		</g>
		<path class="st7" d="M20.2,11.8v-1.4c0-0.4-0.4-0.8-0.9-0.8c-0.5,0-0.9,0.3-0.9,0.8v1.4H20.2z"/>
	</g>
</g>
</svg>
