<?xml version="1.0" encoding="utf-8"?>
<!-- Generator: Adobe Illustrator 20.1.0, SVG Export Plug-In . SVG Version: 6.00 Build 0)  -->
<svg version="1.1" id="Camada_1" xmlns="http://www.w3.org/2000/svg" xmlns:xlink="http://www.w3.org/1999/xlink" x="0px" y="0px"
	 viewBox="2.1 0.1 25 25" style="enable-background:new 2.1 0.1 25 25;" xml:space="preserve">
<style type="text/css">
	.st0{fill:none;}
	.st1{fill:#E26161;}
	.st2{opacity:0.2;}
	.st3{fill:#231F20;}
	.st4{fill:#FFFFFF;}
	.st5{fill:#4D4D4D;}
	.st6{fill:#212930;}
	.st7{fill:#00A8D6;}
	.st8{fill:#e4376e;}
	.st9{fill:none;stroke:#FFFFFF;stroke-width:4;}
</style>
<rect x="-171" y="99.7" class="st0" width="31.2" height="3.1"/>
<g>
	<g>
		<g>
			<path class="st1" d="M526.7,1685.2c0,11.8-9.7,21.9-21.5,21.9H125.7c-11.8,0-22.1-10.1-22.1-21.9v-42.9
				c0-11.8,10.2-21.2,22.1-21.2h379.4c11.8,0,21.5,9.4,21.5,21.2V1685.2z"/>
			<g>
				
					<text transform="matrix(1 0 0 1 211.2488 1677.167)" class="st4" style="font-family:'OpenSans-Semibold'; font-size:34.2965px;">Fórum</text>
			</g>
		</g>
	</g>
</g>
<g class="st2">
	<g>
		<g>
			<path class="st3" d="M151.2,1673c0,5.9,4.8,10.8,10.8,10.8h26.9c5.9,0,10.8-4.8,10.8-10.8v-16.4c0-5.9-4.8-10.8-10.8-10.8H162
				c-5.9,0-10.8,4.8-10.8,10.8V1673z"/>
		</g>
		<g>
			<path class="st3" d="M186.2,1645.8h2.7v2.7C188.9,1647,187.7,1645.8,186.2,1645.8z"/>
		</g>
		<g>
			<path class="st3" d="M180.8,1645.8c-1.5,0-2.7,1.2-2.7,2.7v-2.7H180.8z"/>
		</g>
		<g>
			<path class="st3" d="M180.8,1645.8h5.4c1.5,0,2.7,1.2,2.7,2.7v32.5v2.7v2.7v5.3c0,1.5-0.9,1.8-1.9,0.8l-3.5-3.4l-5.4-5.3v-2.7
				v-32.5C178.1,1647,179.4,1645.8,180.8,1645.8z"/>
		</g>
	</g>
	<g>
		<g>
			<path class="st3" d="M172.8,1667.5c0,5.9-4.8,10.8-10.8,10.8h-26.9c-5.9,0-10.8-4.8-10.8-10.8v-16.4c0-5.9,4.8-10.8,10.8-10.8
				H162c5.9,0,10.8,4.8,10.8,10.8V1667.5z"/>
		</g>
		<g>
			<path class="st3" d="M137.8,1640.4h-2.7v2.7C135.1,1641.6,136.3,1640.4,137.8,1640.4z"/>
		</g>
		<g>
			<path class="st3" d="M143.1,1640.4c1.5,0,2.7,1.2,2.7,2.7v-2.7H143.1z"/>
		</g>
		<g>
			<path class="st3" d="M143.1,1640.4h-5.4c-1.5,0-2.7,1.2-2.7,2.7v32.5v2.7v2.7v5.3c0,1.5,0.9,1.8,1.9,0.8l3.5-3.4l5.4-5.3v-2.7
				v-32.5C145.8,1641.6,144.6,1640.4,143.1,1640.4z"/>
		</g>
	</g>
	<g>
		<circle class="st3" cx="137.8" cy="1659.2" r="2.7"/>
		<circle class="st3" cx="148.5" cy="1659.2" r="2.7"/>
		<circle class="st3" cx="159.3" cy="1659.2" r="2.7"/>
	</g>
</g>
<g>
	<g>
		<g>
			<path class="st4" d="M149.2,1671c0,5.9,4.8,10.8,10.8,10.8h26.9c5.9,0,10.8-4.8,10.8-10.8v-16.4c0-5.9-4.8-10.8-10.8-10.8H160
				c-5.9,0-10.8,4.8-10.8,10.8V1671z"/>
		</g>
		<g>
			<path class="st4" d="M184.2,1643.8h2.7v2.7C186.9,1645,185.7,1643.8,184.2,1643.8z"/>
		</g>
		<g>
			<path class="st4" d="M178.8,1643.8c-1.5,0-2.7,1.2-2.7,2.7v-2.7H178.8z"/>
		</g>
		<g>
			<path class="st4" d="M178.8,1643.8h5.4c1.5,0,2.7,1.2,2.7,2.7v32.5v2.7v2.7v5.3c0,1.5-0.9,1.8-1.9,0.8l-3.5-3.4l-5.4-5.3v-2.7
				v-32.5C176.1,1645,177.4,1643.8,178.8,1643.8z"/>
		</g>
	</g>
	<g>
		<g>
			<path class="st5" d="M170.8,1665.5c0,5.9-4.8,10.8-10.8,10.8h-26.9c-5.9,0-10.8-4.8-10.8-10.8v-16.4c0-5.9,4.8-10.8,10.8-10.8
				H160c5.9,0,10.8,4.8,10.8,10.8V1665.5z"/>
		</g>
		<g>
			<path class="st5" d="M135.8,1638.4h-2.7v2.7C133.1,1639.6,134.3,1638.4,135.8,1638.4z"/>
		</g>
		<g>
			<path class="st5" d="M141.1,1638.4c1.5,0,2.7,1.2,2.7,2.7v-2.7H141.1z"/>
		</g>
		<g>
			<path class="st5" d="M141.1,1638.4h-5.4c-1.5,0-2.7,1.2-2.7,2.7v32.5v2.7v2.7v5.3c0,1.5,0.9,1.8,1.9,0.8l3.5-3.4l5.4-5.3v-2.7
				v-32.5C143.8,1639.6,142.6,1638.4,141.1,1638.4z"/>
		</g>
	</g>
	<g>
		<circle class="st4" cx="135.8" cy="1657.2" r="2.7"/>
		<circle class="st4" cx="146.5" cy="1657.2" r="2.7"/>
		<circle class="st4" cx="157.3" cy="1657.2" r="2.7"/>
	</g>
</g>
<g>
	<g>
		<path class="st6" d="M14.4,8.4h-0.8V6.3c0-0.7,0.6-1.3,1.3-1.3v0.8c-0.3,0-0.5,0.2-0.5,0.5V8.4z"/>
	</g>
	<g>
		<g>
			<rect x="5.4" y="18.7" class="st4" width="18.6" height="3.7"/>
			<path class="st6" d="M24.5,22.8H5v-4.5h19.5V22.8z M5.9,21.9h17.8v-2.8H5.9V21.9z"/>
		</g>
		<rect x="6.7" y="19.9" class="st7" width="16.1" height="1.2"/>
		<g>
			<rect x="20.2" y="19.5" class="st6" width="0.8" height="2"/>
		</g>
		<g>
			<rect x="18.8" y="19.5" class="st6" width="0.8" height="2"/>
		</g>
	</g>
	<g>
		<g>
			<path class="st4" d="M21.1,16.8c0-0.8,0.5-1.5,1.3-1.8V15h-5h-9c-1,0-1.8,0.8-1.8,1.8c0,1,0.8,1.8,1.8,1.8h9h5v-0.1
				C21.6,18.3,21.1,17.6,21.1,16.8z"/>
			<path class="st6" d="M22.7,19.1H8.3c-1.3,0-2.3-1-2.3-2.3c0-1.3,1-2.3,2.3-2.3h14.5v0.8l-0.3,0.1c-0.6,0.2-1,0.7-1,1.4
				c0,0.6,0.4,1.2,1,1.4l0.3,0.1V19.1z M8.3,15.4c-0.8,0-1.4,0.6-1.4,1.4c0,0.8,0.6,1.4,1.4,1.4h12.9c-0.3-0.4-0.5-0.9-0.5-1.4
				c0-0.5,0.2-1,0.5-1.4H8.3z"/>
		</g>
		<g>
			<rect x="8.3" y="16" class="st6" width="13" height="0.8"/>
		</g>
	</g>
	<polygon class="st8" points="10.9,20 9.6,19.2 8.3,20 8.3,16.9 9.6,16.9 10.9,16.9 	"/>
	<path class="st8" d="M16,7.2c0,0-0.1,0-0.1,0c-0.7,0-1.3,0.3-1.9,0.8c-0.5-0.5-1.2-0.8-1.9-0.8c0,0-0.1,0-0.1,0
		c-1.2,0.1-2.4,1-2.3,2.1c0.1,1,0.3,2.1,0.6,3.1c0.5,1.2,1.7,2.1,2.5,2.1c0.3,0,0.6,0,0.9,0c0.1-0.1,0.2-0.2,0.3-0.3
		c0.1,0.1,0.2,0.2,0.3,0.3c0.3,0,0.6,0,0.9,0c0.9,0,2.1-0.9,2.5-2.1c0.3-1,0.6-2.1,0.6-3.1C18.4,8.2,17.2,7.4,16,7.2z"/>
	<g>
		<path class="st9" d="M12.2,8.5"/>
	</g>
	<g>
		<path class="st4" d="M10.6,10c-0.1-0.1-0.2-0.4-0.1-0.9c0.1-0.5,0.7-0.9,1.6-1l0.1,0.8c-0.6,0.1-0.8,0.3-0.8,0.4
			c0,0.2,0,0.3,0,0.3c0,0,0,0.1,0,0.1L11,9.9L10.6,10z"/>
	</g>
	<g>
		<g>
			<path class="st6" d="M22,14.1l-0.8-0.3c0-0.1,0.1-0.2,0.1-0.4l0.8,0.3C22.1,13.8,22.1,13.9,22,14.1z"/>
		</g>
		<g>
			<path class="st6" d="M22.4,12.8l-0.8-0.2c0.1-0.3,0.1-0.5,0.1-0.8l0.8,0.1C22.5,12.2,22.5,12.5,22.4,12.8z M6,12.7
				c-0.1-0.3-0.1-0.6-0.1-0.9l0.8-0.1c0,0.3,0.1,0.5,0.1,0.8L6,12.7z M21.8,11L21.8,11c0-0.3,0-0.6,0-0.8l0.8-0.1c0,0.3,0,0.6,0,0.9
				L21.8,11z M6.7,10.9H5.8c0-0.3,0-0.6,0-0.9l0.8,0.1C6.7,10.4,6.7,10.7,6.7,10.9z M21.6,9.3c-0.1-0.3-0.1-0.5-0.2-0.8l0.8-0.3
				c0.1,0.3,0.2,0.6,0.2,0.9L21.6,9.3z M6.8,9.3L6,9.1c0.1-0.3,0.1-0.6,0.2-0.9l0.8,0.3C7,8.8,6.9,9,6.8,9.3z M21.1,7.8
				c-0.1-0.2-0.2-0.5-0.4-0.7l0.7-0.4c0.2,0.3,0.3,0.5,0.4,0.8L21.1,7.8z M7.4,7.8L6.6,7.4C6.7,7.1,6.9,6.9,7,6.6L7.8,7
				C7.6,7.3,7.5,7.5,7.4,7.8z M20.3,6.4c-0.2-0.2-0.3-0.4-0.5-0.6l0.6-0.6c0.2,0.2,0.4,0.5,0.6,0.7L20.3,6.4z M8.2,6.4L7.5,5.9
				c0.2-0.2,0.4-0.5,0.6-0.7l0.6,0.6C8.6,5.9,8.4,6.1,8.2,6.4z M19.1,5.2c-0.2-0.2-0.4-0.3-0.7-0.5L19,4c0.2,0.2,0.5,0.4,0.7,0.6
				L19.1,5.2z M9.3,5.2L8.8,4.5C9,4.3,9.3,4.2,9.5,4L10,4.7C9.8,4.8,9.6,5,9.3,5.2z M17.8,4.3C17.5,4.1,17.3,4,17,3.9l0.3-0.8
				c0.3,0.1,0.6,0.2,0.8,0.4L17.8,4.3z M10.7,4.3l-0.4-0.7c0.3-0.1,0.5-0.3,0.8-0.4l0.3,0.8C11.2,4,10.9,4.1,10.7,4.3z M16.3,3.7
				c-0.3-0.1-0.5-0.1-0.8-0.2l0.1-0.8c0.3,0,0.6,0.1,0.9,0.2L16.3,3.7z M12.2,3.7L12,2.8c0.3-0.1,0.6-0.1,0.9-0.2L13,3.5
				C12.7,3.5,12.5,3.6,12.2,3.7z M14.6,3.4c-0.3,0-0.5,0-0.8,0l0-0.8c0.3,0,0.6,0,0.9,0L14.6,3.4z"/>
		</g>
		<g>
			<path class="st6" d="M6.4,14.1c-0.1-0.1-0.1-0.3-0.2-0.4l0.8-0.3c0,0.1,0.1,0.3,0.1,0.4L6.4,14.1z"/>
		</g>
	</g>
</g>
</svg>
