<?xml version="1.0" encoding="utf-8"?>
<!-- Generator: Adobe Illustrator 20.1.0, SVG Export Plug-In . SVG Version: 6.00 Build 0)  -->
<svg version="1.1" id="Camada_1" xmlns="http://www.w3.org/2000/svg" xmlns:xlink="http://www.w3.org/1999/xlink" x="0px" y="0px"
	 viewBox="2.1 0.1 25 25" style="enable-background:new 2.1 0.1 25 25;" xml:space="preserve">
<style type="text/css">
	.st0{fill:none;}
	.st1{fill:#E26161;}
	.st2{opacity:0.2;}
	.st3{fill:#231F20;}
	.st4{fill:#FFFFFF;}
	.st5{fill:#4D4D4D;}
	.st6{fill:#e4376e;}
	.st7{fill:#212930;}
	.st8{fill:#AAB4B5;}
</style>
<rect x="-171" y="99.7" class="st0" width="31.2" height="3.1"/>
<g>
	<g>
		<g>
			<path class="st1" d="M526.7,1685.2c0,11.8-9.7,21.9-21.5,21.9H125.7c-11.8,0-22.1-10.1-22.1-21.9v-42.9
				c0-11.8,10.2-21.2,22.1-21.2h379.4c11.8,0,21.5,9.4,21.5,21.2V1685.2z"/>
			<g>
				
					<text transform="matrix(1 0 0 1 211.2488 1677.167)" class="st4" style="font-family:'OpenSans-Semibold'; font-size:34.2965px;">Fórum</text>
			</g>
		</g>
	</g>
</g>
<g class="st2">
	<g>
		<g>
			<path class="st3" d="M151.2,1673c0,5.9,4.8,10.8,10.8,10.8h26.9c5.9,0,10.8-4.8,10.8-10.8v-16.4c0-5.9-4.8-10.8-10.8-10.8H162
				c-5.9,0-10.8,4.8-10.8,10.8V1673z"/>
		</g>
		<g>
			<path class="st3" d="M186.2,1645.8h2.7v2.7C188.9,1647,187.7,1645.8,186.2,1645.8z"/>
		</g>
		<g>
			<path class="st3" d="M180.8,1645.8c-1.5,0-2.7,1.2-2.7,2.7v-2.7H180.8z"/>
		</g>
		<g>
			<path class="st3" d="M180.8,1645.8h5.4c1.5,0,2.7,1.2,2.7,2.7v32.5v2.7v2.7v5.3c0,1.5-0.9,1.8-1.9,0.8l-3.5-3.4l-5.4-5.3v-2.7
				v-32.5C178.1,1647,179.4,1645.8,180.8,1645.8z"/>
		</g>
	</g>
	<g>
		<g>
			<path class="st3" d="M172.8,1667.5c0,5.9-4.8,10.8-10.8,10.8h-26.9c-5.9,0-10.8-4.8-10.8-10.8v-16.4c0-5.9,4.8-10.8,10.8-10.8
				H162c5.9,0,10.8,4.8,10.8,10.8V1667.5z"/>
		</g>
		<g>
			<path class="st3" d="M137.8,1640.4h-2.7v2.7C135.1,1641.6,136.3,1640.4,137.8,1640.4z"/>
		</g>
		<g>
			<path class="st3" d="M143.1,1640.4c1.5,0,2.7,1.2,2.7,2.7v-2.7H143.1z"/>
		</g>
		<g>
			<path class="st3" d="M143.1,1640.4h-5.4c-1.5,0-2.7,1.2-2.7,2.7v32.5v2.7v2.7v5.3c0,1.5,0.9,1.8,1.9,0.8l3.5-3.4l5.4-5.3v-2.7
				v-32.5C145.8,1641.6,144.6,1640.4,143.1,1640.4z"/>
		</g>
	</g>
	<g>
		<circle class="st3" cx="137.8" cy="1659.2" r="2.7"/>
		<circle class="st3" cx="148.5" cy="1659.2" r="2.7"/>
		<circle class="st3" cx="159.3" cy="1659.2" r="2.7"/>
	</g>
</g>
<g>
	<g>
		<g>
			<path class="st4" d="M149.2,1671c0,5.9,4.8,10.8,10.8,10.8h26.9c5.9,0,10.8-4.8,10.8-10.8v-16.4c0-5.9-4.8-10.8-10.8-10.8H160
				c-5.9,0-10.8,4.8-10.8,10.8V1671z"/>
		</g>
		<g>
			<path class="st4" d="M184.2,1643.8h2.7v2.7C186.9,1645,185.7,1643.8,184.2,1643.8z"/>
		</g>
		<g>
			<path class="st4" d="M178.8,1643.8c-1.5,0-2.7,1.2-2.7,2.7v-2.7H178.8z"/>
		</g>
		<g>
			<path class="st4" d="M178.8,1643.8h5.4c1.5,0,2.7,1.2,2.7,2.7v32.5v2.7v2.7v5.3c0,1.5-0.9,1.8-1.9,0.8l-3.5-3.4l-5.4-5.3v-2.7
				v-32.5C176.1,1645,177.4,1643.8,178.8,1643.8z"/>
		</g>
	</g>
	<g>
		<g>
			<path class="st5" d="M170.8,1665.5c0,5.9-4.8,10.8-10.8,10.8h-26.9c-5.9,0-10.8-4.8-10.8-10.8v-16.4c0-5.9,4.8-10.8,10.8-10.8
				H160c5.9,0,10.8,4.8,10.8,10.8V1665.5z"/>
		</g>
		<g>
			<path class="st5" d="M135.8,1638.4h-2.7v2.7C133.1,1639.6,134.3,1638.4,135.8,1638.4z"/>
		</g>
		<g>
			<path class="st5" d="M141.1,1638.4c1.5,0,2.7,1.2,2.7,2.7v-2.7H141.1z"/>
		</g>
		<g>
			<path class="st5" d="M141.1,1638.4h-5.4c-1.5,0-2.7,1.2-2.7,2.7v32.5v2.7v2.7v5.3c0,1.5,0.9,1.8,1.9,0.8l3.5-3.4l5.4-5.3v-2.7
				v-32.5C143.8,1639.6,142.6,1638.4,141.1,1638.4z"/>
		</g>
	</g>
	<g>
		<circle class="st4" cx="135.8" cy="1657.2" r="2.7"/>
		<circle class="st4" cx="146.5" cy="1657.2" r="2.7"/>
		<circle class="st4" cx="157.3" cy="1657.2" r="2.7"/>
	</g>
</g>
<g>
	<g>
		<g>
			<g>
				<g>
					<path class="st6" d="M20.6,6.4V5c0-0.7,0.6-1.3,1.3-1.3c0.7,0,1.3,0.6,1.3,1.3v1.4H20.6z"/>
					<path class="st6" d="M23.6,6.8h-3.4V5c0-0.9,0.8-1.7,1.7-1.7c0.9,0,1.7,0.8,1.7,1.7V6.8z M20.9,6h1.9V5c0-0.5-0.4-1-1-1
						c-0.5,0-1,0.4-1,1V6z"/>
				</g>
				<g>
					<path class="st4" d="M20.6,5v14.8h0l0,0.2c0,0.7-0.5,1.2-1.2,1.3c-0.4,0-11.8,0-12.3,0c0.7-0.1,1.2-0.6,1.2-1.3v-0.3h0V5
						c0-0.7,0.5-1.2,1.2-1.3c0.4,0,11.8,0,12.3,0C21.1,3.7,20.6,4.3,20.6,5z"/>
					<path class="st7" d="M19.4,21.7l-9,0c-1.8,0-3.2,0-3.4,0L7,21c0.5-0.1,0.8-0.5,0.8-0.9L7.8,5c0-0.9,0.6-1.6,1.5-1.7l0,0l9,0
						c1.8,0,3.2,0,3.4,0l0,0.7c-0.5,0.1-0.8,0.5-0.8,0.9v15.2h0C20.8,21,20.2,21.6,19.4,21.7L19.4,21.7z M10.4,21l8.9,0
						c0.5-0.1,0.8-0.5,0.8-0.9l0-0.6h0V5c0-0.3,0.1-0.7,0.3-0.9c-0.6,0-1.3,0-2.1,0L9.4,4C8.9,4.1,8.6,4.5,8.6,5v15.1h0
						c0,0.3-0.1,0.6-0.3,0.9C8.9,21,9.6,21,10.4,21z"/>
				</g>
				<g>
					<path class="st6" d="M18.1,19.3V20c0,0.7,0.5,1.2,1.2,1.3c-0.6,0-12,0-12.3,0c-0.7-0.1-1.2-0.6-1.2-1.3v-0.7H18.1z"/>
					<path class="st6" d="M6.9,21.7L6.9,21.7C6,21.6,5.4,20.9,5.4,20v-1h13.1v1c0,0.5,0.4,0.9,0.8,0.9l0,0.7c-0.2,0-1.6,0-3.4,0
						L6.9,21.7z M6.1,19.7V20c0,0.5,0.4,0.9,0.8,0.9l8.9,0c0.8,0,1.6,0,2.1,0c-0.2-0.3-0.3-0.6-0.3-0.9v-0.3H6.1z"/>
				</g>
				<g>
					<path class="st7" d="M23.6,6.8h-0.7V5c0-0.5-0.4-1-1-1c-0.5,0-1,0.4-1,1h-0.7c0-0.9,0.8-1.7,1.7-1.7c0.9,0,1.7,0.8,1.7,1.7V6.8
						z"/>
				</g>
				<g>
					<path class="st7" d="M19.4,21.7c-0.9,0-1.6-0.8-1.6-1.7v-1.1h0.7V20c0,0.5,0.4,0.9,0.9,0.9V21.7z"/>
				</g>
			</g>
		</g>
	</g>
	<g>
		<polygon class="st8" points="17.9,18.1 17,17.4 16,18.1 16,15.5 17,15.5 17.9,15.5 		"/>
		<g>
			<path class="st6" d="M18.8,15.2c0,0.1-0.2,0.2-0.2,0.3c0,0.1,0.1,0.2,0.1,0.3c0,0.1-0.2,0.1-0.3,0.2c0,0.1,0,0.3,0,0.3
				c-0.1,0.1-0.2,0-0.3,0.1c-0.1,0.1,0,0.3-0.1,0.3c-0.1,0.1-0.2,0-0.3,0c-0.1,0-0.1,0.2-0.2,0.3c-0.1,0-0.2-0.1-0.3-0.1
				c-0.1,0-0.2,0.2-0.3,0.2c-0.1,0-0.2-0.2-0.3-0.2c-0.1,0-0.2,0.1-0.3,0.1c-0.1,0-0.1-0.2-0.2-0.3c-0.1,0-0.3,0.1-0.3,0
				c-0.1-0.1,0-0.2-0.1-0.3c-0.1-0.1-0.3,0-0.3-0.1c-0.1-0.1,0-0.2,0-0.3c0-0.1-0.2-0.1-0.3-0.2c0-0.1,0.1-0.2,0.1-0.3
				c0-0.1-0.2-0.2-0.2-0.3c0-0.1,0.2-0.2,0.2-0.3c0-0.1-0.1-0.2-0.1-0.3c0-0.1,0.2-0.1,0.3-0.2c0-0.1,0-0.3,0-0.3
				c0.1-0.1,0.2,0,0.3-0.1c0.1-0.1,0-0.3,0.1-0.3c0.1-0.1,0.2,0,0.3,0c0.1,0,0.1-0.2,0.2-0.3c0.1,0,0.2,0.1,0.3,0.1
				c0.1,0,0.2-0.2,0.3-0.2c0.1,0,0.2,0.2,0.3,0.2c0.1,0,0.2-0.1,0.3-0.1c0.1,0,0.1,0.2,0.2,0.3c0.1,0,0.3,0,0.3,0
				c0.1,0.1,0,0.2,0.1,0.3c0.1,0.1,0.3,0,0.3,0.1c0.1,0.1,0,0.2,0,0.3c0,0.1,0.2,0.1,0.3,0.2c0,0.1-0.1,0.2-0.1,0.3
				C18.7,15,18.8,15.1,18.8,15.2z"/>
			<circle class="st4" cx="17" cy="15.2" r="0.8"/>
		</g>
	</g>
	<g>
		<g>
			<rect x="11.7" y="6" class="st8" width="4.8" height="0.7"/>
		</g>
		<g>
			<rect x="10.1" y="7.8" class="st7" width="8" height="0.7"/>
		</g>
		<g>
			<rect x="10.1" y="9.6" class="st7" width="8" height="0.7"/>
		</g>
		<g>
			<rect x="10.1" y="11.5" class="st7" width="8" height="0.7"/>
		</g>
		<g>
			<rect x="10.1" y="13.3" class="st7" width="4.8" height="0.7"/>
		</g>
		<g>
			<rect x="10.1" y="15.1" class="st8" width="3.2" height="0.7"/>
		</g>
	</g>
</g>
</svg>
